<svg width="67" height="59" viewBox="0 0 67 59" fill="none" xmlns="http://www.w3.org/2000/svg">
    <path d="M50.7575 23.0819L55.2648 22.8859C56.0488 22.6898 56.8328 21.9062 56.8328 20.9261V15.4391H8.23158C7.25191 15.4391 6.4679 14.6551 6.4679 13.8711C6.4679 12.8914 7.25188 12.1074 8.23158 12.1074H17.2463L23.5174 9.16804H5.48769C4.31197 9.16804 3.33186 10.1477 3.33186 11.3239V52.87C3.33186 54.0457 4.31153 55.0258 5.48769 55.0258H54.6772C55.8529 55.0258 56.833 54.0461 56.833 52.87V43.2673C56.833 42.0916 55.8534 41.1114 54.6772 41.1114H48.014C45.0746 41.1114 42.7226 38.7599 42.7226 35.6244V28.3732C42.7226 23.474 46.8383 23.0819 50.7574 23.0819L50.7575 23.0819ZM24.889 12.1074H46.4462L42.3306 3.87666L24.8892 12.1074H24.889ZM50.1692 12.1074H56.8324V11.3234C56.8324 10.1477 55.8527 9.16759 54.6766 9.16759H48.6012L50.1692 12.107V12.1074ZM47.0337 5.83636H54.6766C57.616 5.83636 59.9679 8.38402 59.9679 11.3234V20.9261C59.9679 21.7101 59.9679 22.298 59.5761 23.0819H60.7519C63.6913 23.0819 66.2389 25.4335 66.2389 28.3733V35.6245C66.2389 38.5639 63.6913 41.1115 60.7519 41.1115H59.5761C59.9679 41.6994 59.9679 42.4834 59.9679 43.2673V52.87C59.9679 55.8094 57.6164 58.1614 54.6766 58.1614H5.48706C2.54766 58.1614 0 55.8099 0 52.87V11.3239C0 8.38454 2.54766 5.83688 5.48706 5.83688H30.3754L42.5255 0.153691C43.3095 -0.238094 44.2892 0.153691 44.6813 0.937676L47.0329 5.83688L47.0337 5.83636ZM60.7521 26.4135H48.0138C46.8381 26.4135 46.0541 27.1975 46.0541 28.3732V35.6244C46.0541 36.8001 46.8381 37.7802 48.0138 37.7802H60.7521C61.9278 37.7802 62.9079 36.8005 62.9079 35.6244V28.3732C62.9079 27.1975 61.9283 26.4135 60.7521 26.4135Z" fill="url(#paint0_linear_11393_225355)"/>
    <path fill-rule="evenodd" clip-rule="evenodd" d="M54.4781 32.0945C54.4781 33.5013 53.3372 34.6422 51.9305 34.6422C50.5233 34.6422 49.3828 33.5013 49.3828 32.0945C49.3828 30.6874 50.5233 29.5469 51.9305 29.5469C53.3372 29.5469 54.4781 30.6874 54.4781 32.0945Z" fill="url(#paint1_linear_11393_225355)"/>
    <defs>
      <linearGradient id="paint0_linear_11393_225355" x1="33.1195" y1="58.1638" x2="33.1195" y2="0" gradientUnits="userSpaceOnUse">
        <stop stop-color="#2EBD85"/>
        <stop offset="1" stop-color="#0095C8"/>
      </linearGradient>
      <linearGradient id="paint1_linear_11393_225355" x1="51.9305" y1="34.6424" x2="51.9305" y2="29.5469" gradientUnits="userSpaceOnUse">
        <stop stop-color="#2EBD85"/>
        <stop offset="1" stop-color="#0095C8"/>
      </linearGradient>
    </defs>
  </svg>