<svg width="24" height="24" viewBox="0 0 24 24" fill="none" xmlns="http://www.w3.org/2000/svg">
  <path d="M4.12812 14.8982H5.45517V16.2816C5.45517 16.6486 5.74273 16.953 6.10516 16.953C6.46778 16.953 6.75516 16.6486 6.75516 16.2816V14.8982H8.08301C8.4456 14.8982 8.733 14.5941 8.733 14.2269C8.733 13.8596 8.4456 13.5555 8.08301 13.5555H6.75516V12.1729C6.75516 11.8057 6.46776 11.5016 6.10516 11.5016C5.74275 11.5016 5.45517 11.8057 5.45517 12.1729V13.5555H4.12812C3.76571 13.5555 3.47812 13.8596 3.47812 14.2269C3.47812 14.5941 3.76571 14.8982 4.12812 14.8982Z" fill="white" stroke="white" stroke-width="0.2"/>
  <path d="M16.4082 13.5414C16.2154 13.3413 15.9532 13.2281 15.6791 13.2281C15.405 13.2281 15.1428 13.3413 14.95 13.5414C14.7575 13.7413 14.65 14.0118 14.65 14.2929C14.65 14.5742 14.7575 14.8445 14.95 15.0446L14.9501 15.0446C15.1428 15.2446 15.405 15.3577 15.6791 15.3577C15.9532 15.3577 16.2154 15.2446 16.4082 15.0446L16.4082 15.0445C16.6007 14.8445 16.7082 14.5743 16.7082 14.2929C16.7082 14.0118 16.6007 13.7413 16.4082 13.5414ZM16.4082 13.5414L16.3362 13.6108L16.4082 13.5414Z" fill="white" stroke="white" stroke-width="0.2"/>
  <path d="M17.6558 13.2094C18.2276 13.2094 18.6849 12.729 18.6849 12.1447C18.6849 11.5601 18.2276 11.0797 17.6558 11.0797C17.0839 11.0797 16.6266 11.5601 16.6266 12.1447C16.6266 12.729 17.0839 13.2094 17.6558 13.2094Z" fill="white" stroke="white" stroke-width="0.2"/>
  <path d="M17.5778 17.3733L17.5769 17.3725C17.317 17.3622 17.0706 17.2503 16.8873 17.0598M17.5778 17.3733L16.8877 15.5569C16.695 15.7568 16.5875 16.0272 16.5875 16.3085C16.5875 16.5896 16.6948 16.8599 16.8873 17.0598M17.5778 17.3733L17.6159 17.3733M17.5778 17.3733L17.6159 17.3733M16.8873 17.0598L16.9594 16.9905L16.8874 17.0599C16.8873 17.0599 16.8873 17.0598 16.8873 17.0598ZM17.617 15.2438C17.617 15.2438 17.617 15.2438 17.6169 15.2438C17.3427 15.2436 17.0805 15.3567 16.8877 15.5568L18.5457 16.3091C18.5459 16.0531 18.4482 15.8077 18.2738 15.6266C18.0997 15.4456 17.8633 15.3438 17.6169 15.3438L17.617 15.2438ZM17.617 15.2438C17.8911 15.2438 18.1533 15.3571 18.3459 15.5572L17.617 15.2438ZM18.3452 17.0606C18.3452 17.0606 18.3452 17.0606 18.3451 17.0606L18.2732 16.9912L18.3452 17.0606ZM18.3452 17.0606C18.1523 17.2606 17.89 17.3735 17.6159 17.3733M18.3452 17.0606L17.6159 17.3733" fill="white" stroke="white" stroke-width="0.2"/>
  <path d="M19.601 15.2249C20.1729 15.2249 20.6301 14.7446 20.6301 14.1601C20.6301 13.5756 20.1729 13.0953 19.601 13.0953C19.0291 13.0953 18.5719 13.5756 18.5719 14.1601C18.5719 14.7446 19.0291 15.2249 19.601 15.2249Z" fill="white" stroke="white" stroke-width="0.2"/>
  <path d="M14.5907 3.27344C14.8945 3.27344 15.1407 3.5292 15.1407 3.84482C15.1407 4.16027 14.8945 4.41619 14.5907 4.41619M14.5907 3.27344L12.5477 6.53863C12.5484 5.97592 12.7638 5.43636 13.1468 5.03842C13.5298 4.6405 14.049 4.41672 14.5907 4.41619M14.5907 3.27344C13.7575 3.27429 12.9586 3.61865 12.3693 4.23083L14.5907 3.27344ZM14.5907 4.41619V4.51619M14.5907 4.41619L14.5908 4.51619C14.5908 4.51619 14.5907 4.51619 14.5907 4.51619M12.6477 6.53875V7.63241H17.2409H17.241V7.73241C19.3134 7.73071 21.252 8.79555 22.4174 10.5759C23.5827 12.3561 23.8237 14.6206 23.0604 16.6222C22.2972 18.6237 20.6292 20.1025 18.6064 20.5709C16.5835 21.0392 14.4688 20.436 12.9598 18.9605L12.6477 6.53875ZM12.6477 6.53875C12.6483 6.0013 12.8541 5.48671 13.2189 5.10777C13.5835 4.72899 14.0768 4.51672 14.5907 4.51619M12.6477 6.53875L12.9192 19.0605H11.0762C9.92902 20.1741 8.42255 20.8028 6.85239 20.8236L6.8523 20.828H6.75443C4.48239 20.828 2.3848 19.5686 1.25047 17.5277L1.33788 17.4791L1.25047 17.5277C0.116511 15.4871 0.116511 12.9733 1.25047 10.9327C2.38463 8.89174 4.48231 7.63241 6.75443 7.63241H11.3477V6.53863V6.53852C11.3487 5.64749 11.6898 4.79264 12.2972 4.16149L12.2972 4.16148C12.9049 3.53018 13.7297 3.17432 14.5906 3.17344L14.5907 3.17344C14.9533 3.17344 15.2407 3.4776 15.2407 3.84482C15.2407 4.21184 14.9533 4.51619 14.5907 4.51619M17.1411 8.97121H6.80124L6.80087 8.97165L6.75413 8.97164C5.06512 8.9713 3.48618 9.84866 2.54817 11.3118L2.46792 11.2603L2.54817 11.3118C1.61001 12.775 1.43818 14.6296 2.09091 16.2525C2.7436 17.8752 4.13328 19.0495 5.79175 19.3837L5.772 19.4817L5.79176 19.3837C7.44975 19.7179 9.15987 19.169 10.3483 17.9187C10.4701 17.7903 10.6373 17.7174 10.8125 17.7176M17.1411 8.97121L10.8124 17.8176M17.1411 8.97121V8.97143L17.2411 8.97138C18.9307 8.97055 20.5103 9.84759 21.4491 11.311C22.3878 12.7748 22.56 14.63 21.9069 16.2535L21.9997 16.2909L21.9069 16.2535C21.2541 17.8769 19.8639 19.0513 18.2048 19.3854C16.5461 19.7194 14.8354 19.1698 13.6473 17.9186C13.5256 17.7903 13.3584 17.7174 13.1832 17.7176M17.1411 8.97121L13.1833 17.8176M10.8125 17.7176L10.8124 17.8176M10.8125 17.7176H10.8124V17.8176M10.8125 17.7176H13.1832M10.8124 17.8176H13.1833M13.1832 17.7176L13.1833 17.8176M13.1832 17.7176H13.1833V17.8176" fill="white" stroke="white" stroke-width="0.2"/>
</svg>