<svg width="126" height="51" viewBox="0 0 126 51" fill="none" xmlns="http://www.w3.org/2000/svg">
    <path d="M1 36.6231L6.58194 39.5622C7.33585 39.9592 8.25848 39.8349 8.88052 39.2526L12.7214 35.6573C12.8875 35.5018 13.0259 35.3191 13.1305 35.117L18.8454 24.0837C19.372 23.067 20.643 22.6991 21.6312 23.2773L29.1312 27.6651C29.7198 28.0095 30.4433 28.0302 31.0506 27.7201L39.1978 23.5603C39.3866 23.4639 39.5895 23.3981 39.7989 23.3654L46.448 22.3281C46.9199 22.2545 47.3499 22.0144 47.6602 21.6514L54.409 13.7546C54.7108 13.4015 55.1261 13.1644 55.5836 13.0841L60.7909 12.1702C61.3776 12.0672 61.8879 11.708 62.1829 11.1904L66.1678 4.19617C67.05 2.64789 69.3637 2.93923 69.8345 4.65787L72.6085 14.7849C72.7528 15.3118 73.1064 15.7567 73.5871 16.0163L83.1371 21.1737C83.6539 21.4528 84.2671 21.4906 84.8142 21.2772L90.0749 19.2254C90.9835 18.871 92.0153 19.2236 92.5169 20.06L97.0232 27.5738C97.7364 28.763 99.4141 28.8831 100.29 27.8076L101.461 26.3677C101.752 26.011 101.91 25.5652 101.91 25.1052V21.5257C101.91 19.9751 103.599 19.0143 104.932 19.8062L111.957 23.9796C112.612 24.3689 113.432 24.3518 114.071 23.9355L125 16.8106" stroke="#2EBD85" stroke-linejoin="round"/>
    <path d="M6.51903 39.3297L1 35.5917V49C1 50.1046 1.89543 51 3 51H123C124.105 51 125 50.1046 125 49V15.8028L114.095 23.8298C113.448 24.306 112.579 24.3489 111.888 23.9386L104.932 19.8062C103.599 19.0143 101.91 19.9751 101.91 21.5257V25.1052C101.91 25.5652 101.752 26.011 101.461 26.3677L100.29 27.8076C99.4141 28.8831 97.7364 28.763 97.0232 27.5738L92.5169 20.06C92.0153 19.2236 90.9835 18.871 90.0749 19.2254L84.8142 21.2772C84.2671 21.4906 83.6539 21.4528 83.1371 21.1737L73.5871 16.0163C73.1064 15.7567 72.7528 15.3118 72.6085 14.7849L69.8345 4.65788C69.3637 2.93923 67.05 2.64789 66.1678 4.19617L62.1829 11.1904C61.8879 11.708 61.3776 12.0672 60.7909 12.1702L55.5836 13.0841C55.1261 13.1644 54.7108 13.4015 54.409 13.7546L47.6602 21.6514C47.3499 22.0144 46.9199 22.2545 46.4481 22.3281L39.7989 23.3654C39.5895 23.3981 39.3866 23.4639 39.1978 23.5603L31.0506 27.7201C30.4433 28.0302 29.7198 28.0095 29.1312 27.6651L21.6312 23.2773C20.643 22.6991 19.372 23.067 18.8454 24.0837L13.1305 35.117C13.0259 35.3191 12.8875 35.5018 12.7214 35.6573L9.00737 39.1339C8.32542 39.7723 7.29243 39.8535 6.51903 39.3297Z" fill="url(#paint0_linear_6287_75377)"/>
    <defs>
      <linearGradient id="paint0_linear_6287_75377" x1="63" y1="0" x2="63" y2="40.2254" gradientUnits="userSpaceOnUse">
        <stop stop-color="#2EBD85"/>
        <stop offset="1" stop-color="#2EBD85" stop-opacity="0"/>
      </linearGradient>
    </defs>
  </svg>