<svg width="72" height="67" viewBox="0 0 72 67" fill="none" xmlns="http://www.w3.org/2000/svg">
    <path d="M64.3248 34.7969V59.4564C64.3248 60.4898 63.9155 61.4808 63.1868 62.2115C62.4582 62.9422 61.4701 63.3527 60.4397 63.3527H11.2593C10.7503 63.3527 10.2462 63.2517 9.77619 63.0556C9.30618 62.8595 8.87938 62.5721 8.52056 62.21C8.16174 61.8479 7.87804 61.4181 7.68548 60.9456C7.49292 60.473 7.39527 59.9669 7.39852 59.4564V34.7969" stroke="url(#paint0_linear_11393_225342)" stroke-width="3" stroke-linejoin="round"/>
    <path d="M38.24 28.5542C37.5543 29.1542 36.667 29.4707 35.7575 29.4398C34.848 29.4088 33.984 29.0327 33.3405 28.3874C32.697 27.7421 32.322 26.8758 32.2911 25.9637C32.2603 25.0517 32.5759 24.1619 33.1742 23.4743L51.8384 4.73294C52.1619 4.36123 52.5581 4.06014 53.0025 3.8484C53.4468 3.63665 53.9297 3.51881 54.4214 3.50207C54.9131 3.48534 55.4031 3.57012 55.8607 3.75117C56.3184 3.93221 56.7339 4.20558 57.0818 4.55444C57.4297 4.9033 57.7024 5.32019 57.883 5.77914C58.0635 6.23808 58.1479 6.7293 58.1312 7.22238C58.1145 7.71546 57.9972 8.19984 57.786 8.64545C57.5749 9.09106 57.2745 9.4884 56.9038 9.8128L38.24 28.5542Z" stroke="url(#paint1_linear_11393_225342)" stroke-width="3" stroke-linejoin="round"/>
    <path d="M34.7941 21.8516H3.6875V34.7978H68.2859V21.8516H44.9252" stroke="url(#paint2_linear_11393_225342)" stroke-width="3" stroke-linejoin="round"/>
    <path d="M23.0623 55.5367C23.0623 56.2234 22.7904 56.882 22.3062 57.3675C21.822 57.8531 21.1653 58.126 20.4805 58.126C19.7957 58.126 19.1388 57.8531 18.6546 57.3675C18.1704 56.882 17.8984 56.2234 17.8984 55.5367V42.5658C17.8984 41.8791 18.1704 41.2204 18.6546 40.7348C19.1388 40.2493 19.7957 39.9766 20.4805 39.9766C21.1653 39.9766 21.822 40.2493 22.3062 40.7348C22.7904 41.2204 23.0623 41.8791 23.0623 42.5658V55.5367Z" stroke="url(#paint3_linear_11393_225342)" stroke-width="3" stroke-linejoin="round"/>
    <path d="M33.4154 55.5344C33.3525 56.1807 33.052 56.7803 32.5725 57.2166C32.0929 57.6529 31.4685 57.8947 30.821 57.8947C30.1734 57.8947 29.549 57.6529 29.0694 57.2166C28.5899 56.7803 28.2894 56.1807 28.2266 55.5344V42.5634C28.2894 41.9171 28.5899 41.3173 29.0694 40.881C29.549 40.4447 30.1734 40.2031 30.821 40.2031C31.4685 40.2031 32.0929 40.4447 32.5725 40.881C33.052 41.3173 33.3525 41.9171 33.4154 42.5634V55.5344Z" stroke="url(#paint4_linear_11393_225342)" stroke-width="3" stroke-linejoin="round"/>
    <path d="M43.7498 55.5367C43.7498 56.2234 43.4779 56.882 42.9937 57.3675C42.5095 57.8531 41.8525 58.126 41.1677 58.126C40.4829 58.126 39.8263 57.8531 39.3421 57.3675C38.8579 56.882 38.5859 56.2234 38.5859 55.5367V42.5658C38.5859 41.8791 38.8579 41.2204 39.3421 40.7348C39.8263 40.2493 40.4829 39.9766 41.1677 39.9766C41.8525 39.9766 42.5095 40.2493 42.9937 40.7348C43.4779 41.2204 43.7498 41.8791 43.7498 42.5658V55.5367Z" stroke="url(#paint5_linear_11393_225342)" stroke-width="3" stroke-linejoin="round"/>
    <path d="M54.0701 55.5367C54.0701 56.2234 53.7982 56.882 53.314 57.3675C52.8298 57.8531 52.1731 58.126 51.4883 58.126C50.8036 58.126 50.1469 57.8531 49.6627 57.3675C49.1785 56.882 48.9062 56.2234 48.9062 55.5367V42.5658C48.9062 41.8791 49.1785 41.2204 49.6627 40.7348C50.1469 40.2493 50.8036 39.9766 51.4883 39.9766C52.1731 39.9766 52.8298 40.2493 53.314 40.7348C53.7982 41.2204 54.0701 41.8791 54.0701 42.5658V55.5367Z" stroke="url(#paint6_linear_11393_225342)" stroke-width="3" stroke-linejoin="round"/>
    <defs>
      <linearGradient id="paint0_linear_11393_225342" x1="35.8616" y1="63.3539" x2="35.8616" y2="34.7969" gradientUnits="userSpaceOnUse">
        <stop stop-color="#2EBD85"/>
        <stop offset="1" stop-color="#0095C8"/>
      </linearGradient>
      <linearGradient id="paint1_linear_11393_225342" x1="45.2112" y1="29.4429" x2="45.2112" y2="3.5" gradientUnits="userSpaceOnUse">
        <stop stop-color="#2EBD85"/>
        <stop offset="1" stop-color="#0095C8"/>
      </linearGradient>
      <linearGradient id="paint2_linear_11393_225342" x1="35.9867" y1="34.7984" x2="35.9867" y2="21.8516" gradientUnits="userSpaceOnUse">
        <stop stop-color="#2EBD85"/>
        <stop offset="1" stop-color="#0095C8"/>
      </linearGradient>
      <linearGradient id="paint3_linear_11393_225342" x1="20.4804" y1="58.1267" x2="20.4804" y2="39.9766" gradientUnits="userSpaceOnUse">
        <stop stop-color="#2EBD85"/>
        <stop offset="1" stop-color="#0095C8"/>
      </linearGradient>
      <linearGradient id="paint4_linear_11393_225342" x1="30.821" y1="57.8954" x2="30.821" y2="40.2031" gradientUnits="userSpaceOnUse">
        <stop stop-color="#2EBD85"/>
        <stop offset="1" stop-color="#0095C8"/>
      </linearGradient>
      <linearGradient id="paint5_linear_11393_225342" x1="41.1679" y1="58.1267" x2="41.1679" y2="39.9766" gradientUnits="userSpaceOnUse">
        <stop stop-color="#2EBD85"/>
        <stop offset="1" stop-color="#0095C8"/>
      </linearGradient>
      <linearGradient id="paint6_linear_11393_225342" x1="51.4882" y1="58.1267" x2="51.4882" y2="39.9766" gradientUnits="userSpaceOnUse">
        <stop stop-color="#2EBD85"/>
        <stop offset="1" stop-color="#0095C8"/>
      </linearGradient>
    </defs>
  </svg>