<svg width="126" height="51" viewBox="0 0 126 51" fill="none" xmlns="http://www.w3.org/2000/svg">
    <path d="M125 36.6231L119.418 39.5622C118.664 39.9592 117.742 39.8349 117.119 39.2526L113.279 35.6573C113.112 35.5018 112.974 35.3191 112.869 35.117L107.155 24.0837C106.628 23.067 105.357 22.6991 104.369 23.2773L96.8688 27.6651C96.2802 28.0095 95.5567 28.0302 94.9494 27.7201L86.8022 23.5603C86.6134 23.4639 86.4105 23.3981 86.2011 23.3654L79.552 22.3281C79.0801 22.2545 78.6501 22.0144 78.3398 21.6514L71.591 13.7546C71.2892 13.4015 70.8739 13.1644 70.4164 13.0841L65.2091 12.1702C64.6224 12.0672 64.1121 11.708 63.8171 11.1904L59.8322 4.19617C58.95 2.64789 56.6363 2.93923 56.1655 4.65787L53.3915 14.7849C53.2472 15.3118 52.8936 15.7567 52.4129 16.0163L42.8629 21.1737C42.3461 21.4528 41.7329 21.4906 41.1858 21.2772L35.9251 19.2254C35.0165 18.871 33.9847 19.2236 33.4831 20.06L28.9768 27.5738C28.2636 28.763 26.5859 28.8831 25.7105 27.8076L24.5385 26.3677C24.2482 26.011 24.0897 25.5652 24.0897 25.1052V21.5257C24.0897 19.9751 22.4014 19.0143 21.0682 19.8062L14.043 23.9796C13.3876 24.3689 12.5679 24.3518 11.9293 23.9355L1 16.8106" stroke="#F6465D" stroke-linejoin="round"/>
    <path d="M119.481 39.3297L125 35.5917V49C125 50.1046 124.105 51 123 51H3C1.89543 51 1 50.1046 1 49V15.8028L11.9049 23.8298C12.552 24.306 13.4212 24.3489 14.112 23.9386L21.0682 19.8062C22.4014 19.0143 24.0897 19.9751 24.0897 21.5257V25.1052C24.0897 25.5652 24.2482 26.011 24.5385 26.3677L25.7105 27.8076C26.5859 28.8831 28.2636 28.763 28.9768 27.5738L33.4831 20.06C33.9847 19.2236 35.0165 18.871 35.9251 19.2254L41.1858 21.2772C41.7329 21.4906 42.3461 21.4528 42.8629 21.1737L52.4129 16.0163C52.8936 15.7567 53.2472 15.3118 53.3915 14.7849L56.1655 4.65788C56.6363 2.93923 58.95 2.64789 59.8322 4.19617L63.8171 11.1904C64.1121 11.708 64.6224 12.0672 65.2091 12.1702L70.4164 13.0841C70.8739 13.1644 71.2892 13.4015 71.591 13.7546L78.3398 21.6514C78.6501 22.0144 79.0801 22.2545 79.5519 22.3281L86.2011 23.3654C86.4105 23.3981 86.6134 23.4639 86.8022 23.5603L94.9494 27.7201C95.5567 28.0302 96.2802 28.0095 96.8688 27.6651L104.369 23.2773C105.357 22.6991 106.628 23.067 107.155 24.0837L112.869 35.117C112.974 35.3191 113.112 35.5018 113.279 35.6573L116.993 39.1339C117.675 39.7723 118.708 39.8535 119.481 39.3297Z" fill="url(#paint0_linear_6287_75344)"/>
    <defs>
      <linearGradient id="paint0_linear_6287_75344" x1="63" y1="0" x2="63" y2="40.2254" gradientUnits="userSpaceOnUse">
        <stop stop-color="#BD2E2E"/>
        <stop offset="1" stop-color="#BD2E2E" stop-opacity="0"/>
      </linearGradient>
    </defs>
  </svg>