<svg width="111" height="50" viewBox="0 0 111 50" fill="none" xmlns="http://www.w3.org/2000/svg">
    <g clip-path="url(#clip0_11408_225379)">
      <mask id="mask0_11408_225379" style="mask-type:alpha" maskUnits="userSpaceOnUse" x="1" y="0" width="42" height="41">
        <path d="M22.0338 40.38C33.1844 40.38 42.2238 31.3406 42.2238 20.19C42.2238 9.03937 33.1844 0 22.0338 0C10.8831 0 1.84375 9.03937 1.84375 20.19C1.84375 31.3406 10.8831 40.38 22.0338 40.38Z" fill="url(#paint0_linear_11408_225379)"/>
      </mask>
      <g mask="url(#mask0_11408_225379)">
        <path d="M22.0338 40.38C33.1844 40.38 42.2238 31.3406 42.2238 20.19C42.2238 9.03937 33.1844 0 22.0338 0C10.8831 0 1.84375 9.03937 1.84375 20.19C1.84375 31.3406 10.8831 40.38 22.0338 40.38Z" fill="url(#paint1_linear_11408_225379)"/>
        <path d="M33.0369 33.7515C33.0369 33.7515 28.3869 33.6715 26.9569 32.3715C26.0456 30.6914 25.5003 28.8375 25.3569 26.9316C25.3569 24.9916 18.7269 24.9916 18.7269 26.9316C18.5883 28.8384 18.0428 30.6933 17.1269 32.3715C15.6969 33.6715 11.0469 33.7515 11.0469 33.7515C14.5669 34.6715 22.0469 38.8715 22.0469 38.8715C22.0469 38.8715 29.5269 34.6715 33.0469 33.7515" fill="#EFB488"/>
        <path d="M14.8419 19.9254C14.7655 19.7577 14.626 19.6269 14.4538 19.5614C14.2815 19.4958 14.0904 19.5009 13.9219 19.5754C13.4719 19.7654 13.1819 21.0153 13.6919 21.9953C14.0919 22.7553 14.1319 22.9954 14.2319 23.1554C14.2597 23.2291 14.3043 23.2954 14.362 23.349C14.4198 23.4026 14.4891 23.442 14.5647 23.4643C14.6403 23.4866 14.72 23.4911 14.7976 23.4774C14.8751 23.4637 14.9485 23.4321 15.0119 23.3853C15.3519 23.1953 14.8419 19.9254 14.8419 19.9254Z" fill="#EAA97F"/>
        <path d="M29.5056 19.9249C29.58 19.7579 29.7176 19.6272 29.8882 19.5616C30.0588 19.496 30.2485 19.5008 30.4156 19.5749C30.8756 19.7649 31.1656 21.0148 30.6456 21.9948C30.2556 22.7548 30.2056 22.9949 30.1056 23.1549C30.079 23.2283 30.0356 23.2946 29.9788 23.3482C29.922 23.4019 29.8534 23.4414 29.7786 23.4638C29.7037 23.4862 29.6246 23.4907 29.5477 23.477C29.4708 23.4633 29.3981 23.4317 29.3356 23.3848C28.9956 23.1948 29.5056 19.9249 29.5056 19.9249Z" fill="#EAA97F"/>
        <path d="M22.1714 7.26562C19.9722 7.3613 17.8957 8.30549 16.3778 9.89978C14.86 11.4941 14.019 13.6144 14.0314 15.8157C14.2235 18.5808 14.6179 21.3281 15.2114 24.0356C15.8414 26.2856 18.8914 30.1256 22.0514 30.1256C25.2114 30.1256 28.5014 26.2856 29.1314 24.0356C29.7316 21.329 30.1293 18.5814 30.3214 15.8157C30.3312 13.6135 29.488 11.4931 27.9685 9.89905C26.4491 8.30503 24.3715 7.36124 22.1714 7.26562Z" fill="#F8BA8D"/>
        <path d="M33.3163 33.3341L26.1663 30.6641L22.0363 33.4141L17.9163 30.6641L10.7662 33.3341C10.7662 33.3341 6.15625 34.3341 6.15625 41.1541H37.9262C37.9262 34.3841 33.3163 33.3341 33.3163 33.3341Z" fill="#802024"/>
        <path d="M30.9281 20.804C30.9281 20.804 30.9281 19.874 30.4581 19.554C30.3839 19.5046 30.2995 19.4726 30.2112 19.4605C30.1228 19.4484 30.0329 19.4565 29.9482 19.4841C29.8882 19.9541 29.8381 20.324 29.7581 20.904C29.7581 20.904 29.6281 21.204 29.2981 20.994C28.9681 20.784 29.5781 17.524 27.7781 16.164C25.9781 14.804 25.8281 11.284 25.8281 10.994C25.8801 10.7908 25.9808 10.6034 26.1215 10.448C26.2622 10.2925 26.4387 10.1735 26.6357 10.1016C26.8326 10.0297 27.0442 10.0069 27.252 10.0352C27.4598 10.0635 27.6575 10.142 27.8281 10.264C29.1081 10.914 32.6581 14.124 30.9581 20.804" fill="#262625"/>
        <path d="M13.4041 20.804C13.4041 20.804 13.404 19.874 13.864 19.554C13.9398 19.5037 14.0259 19.4713 14.116 19.4592C14.2061 19.4471 14.2977 19.4556 14.3841 19.4841C14.4441 19.8941 14.494 20.254 14.584 20.904C14.584 20.904 14.704 21.204 15.024 20.994C15.344 20.784 14.754 17.524 16.544 16.164C18.334 14.804 18.494 11.284 18.494 10.994C18.4421 10.7908 18.3415 10.6034 18.2007 10.448C18.06 10.2925 17.8835 10.1735 17.6865 10.1016C17.4895 10.0297 17.278 10.0069 17.0702 10.0352C16.8624 10.0635 16.6646 10.142 16.494 10.264C15.224 10.914 11.6741 14.124 13.3741 20.804" fill="#262625"/>
        <path d="M15.1137 10.8133C15.1137 10.8133 18.1137 6.25328 23.3837 6.81328C28.6537 7.37328 30.6437 13.6033 30.6437 13.6033L30.0637 15.6833C30.0637 15.6833 23.7237 18.3933 16.5837 13.7833C16.0778 13.4758 15.6705 13.0299 15.41 12.4982C15.1495 11.9666 15.0467 11.3715 15.1137 10.7833" fill="#262625"/>
        <path d="M26.1691 30.6641C26.4966 30.7385 26.8126 30.8561 27.109 31.014C27.399 31.234 26.6991 34.744 25.1991 35.524C24.2477 34.6789 23.1843 33.9689 22.0391 33.4141L26.1691 30.6641Z" fill="#601717"/>
        <path d="M17.9174 30.6641C17.5872 30.74 17.2679 30.8576 16.9674 31.014C16.6874 31.234 17.3774 34.744 18.8774 35.524C19.8335 34.6803 20.8999 33.9705 22.0473 33.4141L17.9174 30.6641Z" fill="#601717"/>
        <path d="M22.0959 24.9251C22.2159 25.2151 22.3259 25.6451 21.7159 25.8551C21.1059 26.0651 20.556 26.3251 20.506 26.7851C20.456 27.2451 19.9659 28.375 19.3059 28.375C19.1329 28.3892 18.9611 28.3356 18.8268 28.2255C18.6924 28.1154 18.6061 27.9575 18.5859 27.7851C18.5859 27.7851 19.4359 28.175 19.5859 27.395C19.7359 26.615 19.3759 25.7251 20.3659 25.0851C21.3559 24.4451 21.9859 24.6351 22.1059 24.9251" fill="#262625"/>
        <path d="M22.2529 24.9251C22.1329 25.2151 22.0129 25.6451 22.6329 25.8551C23.2529 26.0651 23.7929 26.3251 23.8329 26.7851C23.8729 27.2451 24.3729 28.375 25.0429 28.375C25.2154 28.3867 25.3859 28.3322 25.5197 28.2226C25.6534 28.113 25.7404 27.9565 25.7629 27.7851C25.7629 27.7851 24.9029 28.175 24.7629 27.395C24.6229 26.615 24.9829 25.7251 23.9829 25.0851C22.9829 24.4451 22.3729 24.6351 22.2529 24.9251Z" fill="#262625"/>
      </g>
      <mask id="mask1_11408_225379" style="mask-type:alpha" maskUnits="userSpaceOnUse" x="24" y="0" width="42" height="41">
        <path d="M44.9322 40.38C56.0828 40.38 65.1222 31.3406 65.1222 20.19C65.1222 9.03937 56.0828 0 44.9322 0C33.7816 0 24.7422 9.03937 24.7422 20.19C24.7422 31.3406 33.7816 40.38 44.9322 40.38Z" fill="url(#paint2_linear_11408_225379)"/>
      </mask>
      <g mask="url(#mask1_11408_225379)">
        <path d="M44.9322 40.38C56.0828 40.38 65.1222 31.3406 65.1222 20.19C65.1222 9.03937 56.0828 0 44.9322 0C33.7816 0 24.7422 9.03937 24.7422 20.19C24.7422 31.3406 33.7816 40.38 44.9322 40.38Z" fill="url(#paint3_linear_11408_225379)"/>
        <path d="M55.7703 35.5662C55.7703 35.5662 51.1903 35.4862 49.7703 34.2062C48.8697 32.5517 48.3312 30.7247 48.1903 28.8462C48.1903 26.9262 41.6503 26.9262 41.6503 28.8462C41.5144 30.7256 40.9755 32.5536 40.0703 34.2062C38.6603 35.4862 34.0703 35.5662 34.0703 35.5662C37.5403 36.4662 44.9003 40.5662 44.9003 40.5662C44.9003 40.5662 52.2803 36.4162 55.7503 35.5662" fill="#EFB488"/>
        <path d="M37.8175 21.9212C37.7431 21.7567 37.6071 21.628 37.4389 21.5625C37.2706 21.4971 37.0835 21.5002 36.9175 21.5712C36.4675 21.7612 36.1875 22.9812 36.6875 23.9512C36.8872 24.325 37.0674 24.7089 37.2275 25.1012C37.2545 25.1731 37.2977 25.2377 37.3537 25.2902C37.4098 25.3427 37.4772 25.3816 37.5507 25.4039C37.6242 25.4261 37.7018 25.4311 37.7776 25.4185C37.8533 25.4059 37.9251 25.3761 37.9875 25.3312C38.3175 25.1412 37.8175 21.9212 37.8175 21.9212Z" fill="#EAA97F"/>
        <path d="M52.287 21.9212C52.3614 21.7567 52.4973 21.628 52.6655 21.5625C52.8338 21.4971 53.021 21.5002 53.187 21.5712C53.637 21.7612 53.917 22.9812 53.417 23.9512C53.2173 24.325 53.0371 24.7089 52.877 25.1012C52.8487 25.1734 52.8044 25.238 52.7474 25.2905C52.6904 25.3429 52.6222 25.3817 52.548 25.4039C52.4738 25.426 52.3955 25.4311 52.3191 25.4185C52.2427 25.4059 52.1701 25.376 52.107 25.3312C51.787 25.1412 52.287 21.9212 52.287 21.9212Z" fill="#EAA97F"/>
        <path d="M45.0469 9.45312C42.8848 9.55864 40.8467 10.4938 39.3566 12.064C37.8665 13.6342 37.0392 15.7184 37.0469 17.8831C37.2388 20.608 37.6299 23.3153 38.2169 25.9832C38.8369 28.2132 41.8469 31.9832 44.9569 31.9832C48.0669 31.9832 51.3169 28.2032 51.9569 25.9832C52.544 23.3153 52.935 20.608 53.1269 17.8831C53.1347 15.7184 52.3074 13.6342 50.8173 12.064C49.3272 10.4938 47.2891 9.55864 45.1269 9.45312" fill="#F8BA8D"/>
        <path d="M56.0369 35.1456L48.9869 32.5156L44.9169 35.2356L40.8569 32.5156L33.8569 35.1456C33.8569 35.1456 29.2969 36.1456 29.2969 42.8556H60.6269C60.6269 36.1856 56.0769 35.1456 56.0769 35.1456" fill="#D9D9D9"/>
        <path d="M48.9919 32.5156C49.316 32.5905 49.6288 32.7082 49.9219 32.8656C50.2019 33.0756 48.5719 35.5956 47.1019 36.3656C46.4981 35.7883 45.7416 35.3962 44.9219 35.2356L48.9919 32.5156Z" fill="#F5F5F5"/>
        <path d="M40.8601 32.5156C40.5359 32.5905 40.2232 32.7082 39.9301 32.8656C39.6501 33.0756 41.2801 35.5956 42.7501 36.3656C43.3538 35.7883 44.1104 35.3962 44.9301 35.2356L40.8601 32.5156Z" fill="#F5F5F5"/>
        <path d="M41.7999 37.2588C41.5459 36.275 41.5459 35.2427 41.7999 34.2588C42.0599 33.9488 44.9299 34.9988 44.9299 35.7788C44.9299 36.5588 42.0599 37.6089 41.7999 37.2989" fill="#296D80"/>
        <path d="M48.0597 37.2588C48.3137 36.275 48.3137 35.2427 48.0597 34.2588C47.7997 33.9488 44.9297 34.9988 44.9297 35.7788C44.9297 36.5588 47.7997 37.6089 48.0597 37.2989" fill="#296D80"/>
        <path d="M45.5591 36.137C45.5591 36.1773 45.551 36.2171 45.5353 36.2542C45.5196 36.2913 45.4966 36.3249 45.4677 36.3528C45.4388 36.3808 45.4045 36.4027 45.3669 36.4172C45.3294 36.4316 45.2893 36.4384 45.2491 36.4371H44.6091C44.5684 36.4384 44.5278 36.4317 44.4897 36.4173C44.4515 36.4029 44.4166 36.3812 44.3869 36.3533C44.3572 36.3255 44.3333 36.2921 44.3165 36.2549C44.2997 36.2178 44.2904 36.1777 44.2891 36.137V35.3371C44.2942 35.2566 44.3305 35.1813 44.3903 35.1271C44.45 35.073 44.5285 35.0443 44.6091 35.0471H45.2391C45.2785 35.0457 45.3178 35.0521 45.3547 35.066C45.3916 35.0798 45.4254 35.1008 45.4542 35.1277C45.483 35.1547 45.5062 35.1871 45.5225 35.223C45.5387 35.2589 45.5478 35.2977 45.5491 35.3371L45.5591 36.137Z" fill="#225C6C"/>
        <path d="M38.0391 13.5865C38.7564 12.3497 39.753 11.2977 40.9493 10.5146C42.1457 9.73157 43.5085 9.23908 44.9291 9.07654C49.9891 8.35654 51.3591 6.22656 51.3591 6.22656C52.1093 7.47961 52.6003 8.87043 52.803 10.3168C53.0057 11.7631 52.916 13.2355 52.5391 14.6465C52.2291 15.8465 51.2091 18.6465 50.7091 18.3365C49.3422 17.1063 47.5462 16.4632 45.7091 16.5465C42.4391 16.6365 41.7091 16.5466 39.5191 18.2266L38.0391 13.5865Z" fill="#DC5113"/>
        <path d="M53.6841 22.7982C53.6841 22.7982 53.684 21.8882 53.234 21.5682C53.1602 21.5181 53.0757 21.4856 52.9872 21.4735C52.8988 21.4613 52.8087 21.4698 52.7241 21.4981C52.6641 21.9581 52.6141 22.3282 52.5341 22.8982C52.4263 22.9705 52.3021 23.0147 52.1729 23.027C52.0437 23.0392 51.9135 23.0191 51.794 22.9682C51.474 22.7582 52.364 19.5582 50.584 18.2282C48.804 16.8982 48.6641 13.4181 48.6641 13.1181C48.7193 12.9232 48.8201 12.7443 48.958 12.5959C49.096 12.4475 49.2672 12.3341 49.4576 12.2647C49.6479 12.1954 49.852 12.1723 50.0531 12.1972C50.2541 12.2222 50.4464 12.2944 50.614 12.4082C51.864 13.0482 55.3641 16.2082 53.6841 22.7982Z" fill="#DC5113"/>
        <path d="M36.4126 22.7982C36.4126 22.7982 36.4126 21.8882 36.8726 21.5682C36.9468 21.5188 37.0312 21.4867 37.1196 21.4746C37.2079 21.4625 37.2979 21.4705 37.3826 21.4981C37.4426 21.9081 37.4926 22.2482 37.5826 22.8982C37.5826 22.8982 38.0726 23.1682 38.3926 22.9682C38.7126 22.7682 37.7426 19.5582 39.5226 18.2282C41.3026 16.8982 41.4426 13.4181 41.4426 13.1181C41.3873 12.9232 41.2866 12.7443 41.1486 12.5959C41.0107 12.4475 40.8395 12.3341 40.6491 12.2647C40.4587 12.1954 40.2546 12.1723 40.0536 12.1972C39.8525 12.2222 39.6603 12.2944 39.4926 12.4082C38.2326 13.0482 34.7426 16.2082 36.4126 22.7982Z" fill="#DC5113"/>
        <path d="M38.3881 22.9685C38.3881 22.9685 39.3881 27.9685 41.7381 29.3485C44.0881 30.7285 44.1681 30.2085 44.1681 29.3485H45.0581V32.6685C44.5118 32.4875 43.9539 32.3438 43.3881 32.2384C42.6681 32.1184 38.0081 30.0684 37.5781 22.8984L38.3881 22.9685Z" fill="#DC5113"/>
        <path d="M51.7869 22.9685C51.7869 22.9685 50.7169 27.9685 48.3669 29.3485C46.0169 30.7285 45.9369 30.2085 45.9369 29.3485H45.0469V32.6685C45.5932 32.4875 46.1511 32.3438 46.7169 32.2384C47.4369 32.1184 52.0969 30.0684 52.5269 22.8984L51.7869 22.9685Z" fill="#DC5113"/>
        <path d="M45.1062 26.2077C45.1062 26.2077 43.1063 25.4776 42.4062 26.4176C41.8679 27.3372 41.5273 28.359 41.4062 29.4176L42.7662 30.2376C42.5003 29.7338 42.4325 29.1489 42.5762 28.5977C42.8862 27.9077 43.7162 26.9277 44.5162 27.4677C45.5162 28.1377 45.8662 26.4677 45.0762 26.1977" fill="#DC5113"/>
        <path d="M45.013 26.2077C45.013 26.2077 47.0131 25.4776 47.7131 26.4176C48.2514 27.3372 48.592 28.359 48.7131 29.4176L47.353 30.2376C47.619 29.7338 47.6868 29.1489 47.543 28.5977C47.243 27.9077 46.403 26.9277 45.603 27.4677C44.603 28.1377 44.253 26.4677 45.043 26.1977" fill="#DC5113"/>
      </g>
      <path d="M61.5725 26.5325C61.5725 27.8225 61.2325 27.9825 60.8225 27.9825C60.4125 27.9825 60.0625 27.8225 60.0625 26.5325C60.1562 25.4276 60.4123 24.3426 60.8225 23.3125C61.2276 24.3437 61.4803 25.4284 61.5725 26.5325Z" fill="#10AC89"/>
      <path d="M61.0665 19.4018C60.968 19.1844 60.7882 19.0145 60.5656 18.9284C60.343 18.8424 60.0955 18.8472 59.8765 18.9418C59.2765 19.1918 58.8765 20.8119 59.5665 22.1019C59.8305 22.5953 60.0675 23.1026 60.2765 23.6218C60.3152 23.7137 60.374 23.7959 60.4485 23.8623C60.5231 23.9286 60.6115 23.9774 60.7073 24.0052C60.8032 24.033 60.904 24.0391 61.0025 24.0229C61.1009 24.0067 61.1946 23.9688 61.2765 23.9118C61.7065 23.6618 61.0465 19.4018 61.0465 19.4018" fill="#F8BA8D"/>
      <path d="M61.6472 14.8107L61.4672 15.0607L61.0972 15.5807C60.6721 16.1641 60.3101 16.791 60.0172 17.4507C59.8282 17.8666 59.6872 18.3027 59.5972 18.7506C59.5972 18.8706 59.5972 18.9807 59.5372 19.1007C59.5273 19.2205 59.5273 19.3409 59.5372 19.4607V19.6807V19.8407C59.5372 19.9407 59.5372 19.9307 59.5372 19.9807C59.5343 20.0307 59.5343 20.0807 59.5372 20.1306C59.7167 20.7114 59.927 21.2823 60.1672 21.8407C60.3005 22.2149 60.3845 22.6047 60.4172 23.0006V23.6106C60.3984 23.8175 60.3582 24.0221 60.2972 24.2207C60.0695 24.8893 59.7606 25.5274 59.3772 26.1206C59.3487 26.1832 59.3152 26.2434 59.2772 26.3007L59.1772 26.5206C59.1288 26.6333 59.092 26.7505 59.0672 26.8706C59.0032 27.1461 58.9697 27.4279 58.9672 27.7107V27.9106C58.9672 27.9806 58.9672 28.0806 58.9672 28.1106C58.9846 28.228 59.0182 28.3425 59.0672 28.4507C59.1572 28.7007 59.2972 28.9507 59.4272 29.2307C59.6641 29.7421 59.8129 30.2898 59.8672 30.8507C59.9104 31.3266 59.8419 31.8059 59.6672 32.2506C59.5297 32.5943 59.3694 32.9284 59.1872 33.2506C59.0735 33.4419 58.9764 33.6427 58.8972 33.8507L58.8072 34.0707L58.8672 33.8407C58.8672 33.6907 58.9772 33.4707 59.0772 33.2007C59.2164 32.8767 59.3301 32.5424 59.4172 32.2007C59.5182 31.7834 59.5182 31.348 59.4172 30.9307C59.299 30.4378 59.0996 29.9681 58.8272 29.5406C58.6972 29.3206 58.5072 29.0906 58.3572 28.7906C58.264 28.6312 58.1933 28.4595 58.1472 28.2806C58.1213 28.2022 58.1012 28.122 58.0872 28.0406V27.7706C58.0538 27.4381 58.0538 27.1031 58.0872 26.7706C58.1035 26.5747 58.137 26.3807 58.1872 26.1907L58.2672 25.9507L58.3672 25.6907C58.6316 25.1429 58.8297 24.5655 58.9572 23.9707C58.9714 23.8478 58.9714 23.7236 58.9572 23.6007V23.3407V23.2207C58.8994 22.9698 58.8087 22.7276 58.6872 22.5006C58.3529 21.9253 58.0523 21.331 57.7872 20.7207C57.7464 20.6233 57.713 20.523 57.6872 20.4207C57.6872 20.3207 57.6272 20.1606 57.6172 20.1106V19.8307V19.5607C57.6072 19.3841 57.6072 19.2072 57.6172 19.0306C57.6068 18.8641 57.6068 18.6971 57.6172 18.5306C57.6852 17.9226 57.8262 17.3249 58.0372 16.7506C58.3294 15.9265 58.7011 15.1327 59.1472 14.3806L59.6072 13.6406L61.6472 14.8107Z" fill="#683B11"/>
      <path d="M62.2407 18.2922C62.2363 18.312 62.2363 18.3325 62.2407 18.3523C62.2169 18.3796 62.1968 18.4099 62.1807 18.4423C62.1789 18.4789 62.1789 18.5156 62.1807 18.5522C62.1807 18.6222 62.1106 18.7223 62.0706 18.8423C61.8396 19.5274 61.6624 20.2295 61.5406 20.9423V21.1122C61.5406 21.1122 61.5406 21.2322 61.5406 21.2422C61.5406 21.2522 61.5406 21.3922 61.5406 21.4922C61.5406 21.5922 61.5907 21.9723 61.6307 22.2223C61.7142 22.7369 61.8345 23.2448 61.9907 23.7422C62.0046 23.7898 62.0213 23.8365 62.0406 23.8822L62.1406 24.0723C62.1406 24.1923 62.2707 24.3223 62.3407 24.4523C62.4107 24.5823 62.6507 25.0023 62.8007 25.3223C63.1601 26.0075 63.3162 26.7812 63.2507 27.5522C63.1303 28.2735 62.8463 28.9577 62.4206 29.5522C62.2659 29.7919 62.1288 30.0426 62.0106 30.3022C61.9234 30.5537 61.8729 30.8164 61.8606 31.0823C61.8176 31.3338 61.8176 31.5908 61.8606 31.8423C61.949 32.0901 62.063 32.328 62.2006 32.5522C62.4744 33.0313 62.6574 33.5568 62.7407 34.1023C62.8027 34.5644 62.7512 35.0346 62.5907 35.4723C62.455 35.786 62.298 36.09 62.1207 36.3822C62.005 36.5687 61.9014 36.7625 61.8107 36.9623L61.7306 37.1823L61.7906 36.9523C61.8528 36.7438 61.9297 36.5399 62.0207 36.3423C62.1633 36.0381 62.2837 35.7239 62.3807 35.4022C62.4806 34.9983 62.4806 34.5761 62.3807 34.1722C62.2422 33.6979 62.0222 33.2513 61.7306 32.8523C61.5471 32.6111 61.3865 32.3533 61.2507 32.0823C61.1295 31.7626 61.0652 31.4241 61.0607 31.0823C61.0429 30.7469 61.0698 30.4106 61.1406 30.0823C61.2403 29.7555 61.3674 29.4376 61.5207 29.1322C61.797 28.6402 61.9641 28.0946 62.0106 27.5322C61.9874 27.0138 61.8137 26.5135 61.5106 26.0923C61.2106 25.6023 60.8007 25.1623 60.4307 24.4623C60.1914 23.8722 60.0007 23.2634 59.8606 22.6422C59.7906 22.3522 59.7407 22.0722 59.6907 21.7822C59.6407 21.4922 59.6906 21.4922 59.6406 21.2722V20.8323C59.6392 19.9945 59.7094 19.1581 59.8506 18.3323C59.8506 18.1823 59.9107 18.0322 59.9407 17.9022C59.9607 17.8432 59.9774 17.7832 59.9907 17.7223L60.0607 17.5122L60.1706 17.2422L62.2407 18.2922Z" fill="#683B11"/>
      <mask id="mask2_11408_225379" style="mask-type:alpha" maskUnits="userSpaceOnUse" x="47" y="0" width="42" height="41">
        <path d="M67.815 40.38C78.9656 40.38 88.005 31.3406 88.005 20.19C88.005 9.03937 78.9656 0 67.815 0C56.6644 0 47.625 9.03937 47.625 20.19C47.625 31.3406 56.6644 40.38 67.815 40.38Z" fill="url(#paint4_linear_11408_225379)"/>
      </mask>
      <g mask="url(#mask2_11408_225379)">
        <path d="M67.815 40.38C78.9656 40.38 88.005 31.3406 88.005 20.19C88.005 9.03937 78.9656 0 67.815 0C56.6644 0 47.625 9.03937 47.625 20.19C47.625 31.3406 56.6644 40.38 67.815 40.38Z" fill="url(#paint5_linear_11408_225379)"/>
        <path d="M77.2353 34.2824C77.2353 34.2824 73.3353 33.4524 72.0653 32.2824C70.7953 31.1124 70.6553 30.2225 70.6553 27.4725C70.6553 25.2025 69.0753 27.4724 68.5453 28.2624H67.1353C66.5953 27.4424 65.0253 25.2025 65.0253 27.4725C65.0253 30.2225 65.0253 31.0024 63.6053 32.2824C62.1853 33.5624 58.4453 34.2824 58.4453 34.2824C60.4187 34.5121 62.412 34.5121 64.3853 34.2824L64.2553 35.0824H71.3853L71.2553 34.2824C73.2286 34.5121 75.222 34.5121 77.1953 34.2824" fill="#EFB488"/>
        <path d="M76.9187 34.2422H58.7188C57.9336 34.3961 57.2186 34.7978 56.6786 35.3882C56.1386 35.9786 55.8022 36.7265 55.7188 37.5222V46.8022C55.7187 47.0841 55.7744 47.3632 55.8826 47.6235C55.9908 47.8838 56.1493 48.1201 56.3491 48.319C56.5488 48.5178 56.7859 48.6753 57.0467 48.7822C57.3075 48.8892 57.5869 48.9436 57.8687 48.9423H77.8187C78.0998 48.9423 78.3781 48.8868 78.6377 48.7793C78.8973 48.6718 79.1332 48.5141 79.3319 48.3154C79.5307 48.1167 79.6883 47.8809 79.7958 47.6212C79.9034 47.3616 79.9587 47.0833 79.9587 46.8022V37.5222C79.8768 36.726 79.5409 35.9773 79.0007 35.3866C78.4605 34.7959 77.7445 34.3946 76.9587 34.2422" fill="#10AC89"/>
        <path d="M66.3353 35.0785C66.1753 34.7585 66.0453 34.4684 65.9153 34.2384C65.2653 33.0484 62.6753 32.8984 62.6753 32.8984C61.3171 33.5042 59.8995 33.9667 58.4453 34.2784C61.0153 34.5184 66.3353 35.0785 66.3353 35.0785Z" fill="#10AC89"/>
        <path d="M69.3359 35.0685C69.4959 34.7485 69.5759 34.5384 69.7159 34.2384C70.2959 33.0084 72.9559 32.8984 72.9659 32.8984C74.3241 33.5042 75.7418 33.9667 77.1959 34.2784C74.6259 34.5184 69.3359 35.0685 69.3359 35.0685Z" fill="#10AC89"/>
        <path d="M65.9219 34.2388L67.9019 38.1787L69.7219 34.2388L67.8319 33.7188L65.9219 34.2388Z" fill="#EFB488"/>
        <path d="M61.9975 12.8281L62.4675 13.5881C62.9319 14.3509 63.3108 15.1623 63.5975 16.0081C63.7966 16.5949 63.9308 17.202 63.9975 17.8181C64.0278 18.1708 64.0278 18.5254 63.9975 18.8781C63.9975 18.9781 63.9975 19.0381 63.9975 19.1681V19.4181C63.9604 19.6037 63.9136 19.7873 63.8575 19.9681C63.6675 20.6581 63.4075 21.258 63.1975 21.858C62.9871 22.3796 62.8752 22.9357 62.8675 23.498C62.9548 24.0978 63.1406 24.679 63.4175 25.2181C63.4775 25.3881 63.5375 25.5181 63.6075 25.7181C63.6693 25.9035 63.7128 26.0943 63.7375 26.2881C63.7821 26.64 63.7821 26.9962 63.7375 27.3481C63.7427 27.4314 63.7427 27.5149 63.7375 27.5981V27.748V27.868C63.7162 27.9628 63.6895 28.0563 63.6575 28.1481C63.6269 28.2339 63.5901 28.3175 63.5475 28.3981C63.4017 28.6698 63.2415 28.9336 63.0675 29.1881C62.7806 29.615 62.5707 30.0888 62.4475 30.5881C62.3473 31.0157 62.3473 31.4605 62.4475 31.8881C62.5382 32.2286 62.6518 32.5627 62.7875 32.8881C62.8727 33.1005 62.9462 33.3175 63.0075 33.5381L63.0675 33.7781L62.9775 33.5481C62.8878 33.3431 62.7877 33.1429 62.6775 32.9481C62.491 32.6282 62.3304 32.2938 62.1975 31.9481C62.0273 31.4953 61.9623 31.0097 62.0075 30.5281C62.0777 29.9546 62.2433 29.3969 62.4975 28.8781C62.6275 28.5981 62.7575 28.3481 62.8475 28.0981C62.8475 28.0381 62.8475 27.9781 62.8975 27.9281C62.9475 27.8781 62.8975 27.8481 62.8975 27.7581V27.6381C62.8975 27.6381 62.8975 27.5781 62.8975 27.5581V27.3281C62.8859 27.0441 62.8423 26.7623 62.7675 26.488C62.7352 26.3597 62.6882 26.2356 62.6275 26.118L62.4075 25.7181C62.0053 25.1023 61.7016 24.4276 61.5075 23.7181C61.3832 22.9506 61.4311 22.1649 61.6475 21.4181C61.7975 20.7381 61.9875 20.1081 62.0775 19.5681C62.0853 19.4449 62.0853 19.3213 62.0775 19.1981C62.0832 19.1282 62.0832 19.0579 62.0775 18.988V18.8181C62.0695 18.5802 62.0461 18.3429 62.0075 18.108C61.9143 17.648 61.7736 17.199 61.5875 16.7681C61.2908 16.0988 60.9255 15.462 60.4975 14.868C60.3475 14.638 60.2075 14.4681 60.1175 14.3381L59.9375 14.0881L61.9975 12.8281Z" fill="#683B11"/>
        <path d="M76.1078 13.2578L76.5778 14.0178C77.0383 14.7826 77.4171 15.5938 77.7078 16.4379C77.908 17.0279 78.0422 17.6382 78.1078 18.2578C78.138 18.6072 78.138 18.9585 78.1078 19.3079C78.1078 19.4079 78.1078 19.4778 78.1078 19.6078L78.0578 19.8479C78.0285 20.0375 77.985 20.2247 77.9278 20.4078C77.7378 21.0878 77.4778 21.6878 77.2678 22.2878C77.0573 22.8129 76.9454 23.3723 76.9378 23.9379C77.0266 24.5373 77.2123 25.1182 77.4878 25.6578C77.5478 25.8178 77.6078 25.9478 77.6778 26.1578C77.7397 26.3397 77.7833 26.5274 77.8078 26.7179C77.8525 27.0732 77.8525 27.4326 77.8078 27.7878C77.813 27.8711 77.813 27.9546 77.8078 28.0378V28.1879V28.2979C77.7865 28.3926 77.7598 28.4861 77.7278 28.5779C77.6991 28.6677 77.6623 28.7547 77.6178 28.8379C77.4721 29.1096 77.3118 29.3733 77.1378 29.6278C76.8509 30.0547 76.6411 30.5285 76.5178 31.0278C76.4178 31.452 76.4178 31.8937 76.5178 32.3179C76.6108 32.6578 76.7243 32.9917 76.8578 33.3179C76.9446 33.5298 77.018 33.7469 77.0778 33.9679L77.1378 34.2079L77.0478 33.9779C76.967 33.7657 76.8666 33.5614 76.7478 33.3678C76.5606 33.0482 76.4 32.7138 76.2678 32.3678C76.0968 31.9117 76.0318 31.4228 76.0778 30.9379C76.1482 30.3676 76.3138 29.8132 76.5678 29.2979C76.6978 29.044 76.8146 28.7836 76.9178 28.5178C76.9178 28.4578 76.9178 28.3979 76.9678 28.3379C77.0178 28.2779 76.9678 28.2678 76.9678 28.1678V28.0579C76.9678 28.0579 76.9678 27.9979 76.9678 27.9679V27.7478C76.9552 27.4606 76.9116 27.1757 76.8378 26.8978C76.8039 26.77 76.757 26.6461 76.6978 26.5278C76.6478 26.4278 76.5578 26.2678 76.4778 26.1378C76.0774 25.521 75.7739 24.8465 75.5778 24.1378C75.4541 23.3669 75.5019 22.5782 75.7178 21.8279C75.8678 21.1479 76.0578 20.5279 76.1478 19.9779C76.155 19.858 76.155 19.7377 76.1478 19.6178C76.1533 19.5446 76.1533 19.4711 76.1478 19.3978V19.2378C76.1415 18.996 76.1147 18.7551 76.0678 18.5178C75.9811 18.0606 75.8436 17.6146 75.6578 17.1879C75.3632 16.5144 74.9978 15.8741 74.5678 15.2778L74.1878 14.7578L74.0078 14.5078L76.1078 13.2578Z" fill="#683B11"/>
        <path d="M74.7094 12.8281L75.1794 13.5881C75.6418 14.3519 76.0207 15.1632 76.3094 16.0081C76.5143 16.5967 76.6486 17.2078 76.7094 17.8281C76.7368 18.1609 76.7368 18.4954 76.7094 18.8281C76.7094 18.9281 76.7094 18.988 76.7094 19.118V19.368C76.7094 19.578 76.6194 19.7481 76.5794 19.9181C76.3794 20.6081 76.1194 21.2081 75.9194 21.8081C75.7005 22.3271 75.5883 22.8849 75.5894 23.4481C75.6775 24.0464 75.8598 24.6268 76.1294 25.1681C76.1894 25.3381 76.2494 25.4681 76.3194 25.6681C76.3846 25.8531 76.4315 26.0439 76.4594 26.238C76.4941 26.5939 76.4941 26.9523 76.4594 27.3081V27.5481V27.6981V27.8181C76.4381 27.9129 76.4114 28.0064 76.3794 28.0981C76.3794 28.1881 76.3094 28.2681 76.2794 28.3481C76.1305 28.6202 75.9669 28.8838 75.7894 29.1381C75.5064 29.5671 75.2969 30.0402 75.1694 30.5381C75.0692 30.9656 75.0692 31.4106 75.1694 31.8381C75.2601 32.1787 75.3737 32.5128 75.5094 32.8381C75.5969 33.0508 75.6737 33.2676 75.7394 33.488C75.7394 33.648 75.7394 33.7281 75.7394 33.7281L75.6594 33.498C75.5697 33.2913 75.4661 33.0909 75.3494 32.8981C75.2194 32.6381 75.0294 32.3281 74.8694 31.8981C74.7082 31.4397 74.6468 30.9522 74.6894 30.4681C74.7514 29.8942 74.9138 29.3357 75.1694 28.8181C75.303 28.5661 75.4199 28.3055 75.5194 28.0381C75.5406 27.9829 75.5573 27.926 75.5694 27.868C75.5761 27.8116 75.5761 27.7546 75.5694 27.6981V27.498C75.5694 27.418 75.5694 27.3481 75.5694 27.2681C75.561 26.9845 75.5208 26.7027 75.4494 26.4281C75.4132 26.2996 75.3629 26.1755 75.2994 26.0581L75.0794 25.6581C74.678 25.0418 74.3744 24.3672 74.1794 23.6581C74.065 22.8867 74.1127 22.1 74.3194 21.3481C74.4794 20.6681 74.6594 20.038 74.7494 19.498C74.7572 19.3748 74.7572 19.2513 74.7494 19.1281C74.7494 19.1281 74.7494 18.9881 74.7494 18.9181V18.748C74.7464 18.5098 74.723 18.2723 74.6794 18.0381C74.5923 17.5798 74.4513 17.1334 74.2594 16.7081C73.9647 16.0347 73.5993 15.3944 73.1694 14.7981C73.0194 14.5681 72.8894 14.4081 72.7894 14.2781L72.6094 14.0181L74.7094 12.8281Z" fill="#683B11"/>
        <path d="M77.4113 18.5795C77.4113 24.2995 73.0713 28.9294 67.7213 28.9294C62.3713 28.9294 57.7812 22.9295 57.7812 17.2095C57.7812 11.4895 61.8413 6.85938 67.1913 6.85938C69.5313 6.85938 73.0713 7.67942 73.8813 9.77942C77.9413 11.2994 78.4413 14.9695 77.4113 18.5795Z" fill="#683B11"/>
        <path d="M74.8054 19.0985C74.8412 18.1457 74.6845 17.1954 74.3446 16.3046C74.0046 15.4137 73.4885 14.6006 72.8271 13.9138C72.1656 13.2271 71.3725 12.6809 70.495 12.3077C69.6176 11.9346 68.6739 11.7422 67.7204 11.7422C66.7669 11.7422 65.8233 11.9346 64.9458 12.3077C64.0684 12.6809 63.2752 13.2271 62.6138 13.9138C61.9523 14.6006 61.4362 15.4137 61.0963 16.3046C60.7564 17.1954 60.5996 18.1457 60.6354 19.0985C60.519 21.2533 60.7934 23.4114 61.4454 25.4685C62.2654 27.8085 65.6254 30.4685 67.7254 30.4685C69.8254 30.4685 73.1754 27.7885 73.9954 25.4685C74.6474 23.4114 74.9218 21.2533 74.8054 19.0985Z" fill="#F8BA8D"/>
        <path d="M74.3769 19.4024C74.4773 19.1843 74.659 19.0141 74.8832 18.9281C75.1075 18.8422 75.3564 18.8473 75.5769 18.9424C76.1669 19.1924 76.5769 20.8124 75.8769 22.1024C75.6129 22.5959 75.3758 23.1032 75.1669 23.6223C75.1297 23.7156 75.0717 23.7992 74.9973 23.8666C74.9229 23.9341 74.8341 23.9837 74.7377 24.0116C74.6413 24.0396 74.5398 24.0452 74.4408 24.028C74.3419 24.0108 74.2482 23.9713 74.1669 23.9124C73.7269 23.6624 74.3869 19.4024 74.3869 19.4024" fill="#F8BA8D"/>
        <path d="M61.2338 18.9908C61.2947 19.6027 61.3915 20.2105 61.5238 20.8109C61.7619 19.9264 62.2222 19.1175 62.8611 18.4612C63.4999 17.8048 64.2961 17.3228 65.1738 17.0609C66.8938 16.5909 71.4838 17.9909 71.8538 15.5609C71.8538 15.3209 72.8538 17.1309 72.9138 17.8309C72.9392 18.214 73.0408 18.5881 73.2125 18.9315C73.3842 19.2749 73.6226 19.5807 73.9138 19.8309C74.5738 20.3309 74.5038 21.3109 74.6838 22.0409C74.8612 21.3023 74.9716 20.5493 75.0138 19.7909C75.0138 17.5609 74.6438 15.0909 73.3438 13.3909C72.6568 12.5538 71.793 11.8794 70.8144 11.416C69.8357 10.9526 68.7666 10.7119 67.6838 10.7109C66.6305 10.7169 65.5903 10.9443 64.6307 11.3784C63.6711 11.8126 62.8136 12.4438 62.1138 13.231C60.7138 14.951 60.3438 17.4609 60.3438 19.7909C60.3438 19.7909 61.1238 20.891 61.0838 20.601C60.9438 19.251 61.2038 18.8209 61.2138 18.9509" fill="#683B11"/>
        <path d="M74.8053 16.3473C74.8378 16.2737 74.8613 16.1964 74.8753 16.1172C74.8753 15.9472 74.8753 15.9373 74.8753 15.9673C74.8753 15.9973 74.9253 16.3072 74.9553 16.6572C75.0186 17.6284 74.8542 18.6008 74.4753 19.4972C74.3553 19.7672 74.2353 20.0272 74.0853 20.2972L73.8453 20.6973C73.8453 20.5873 73.8453 20.6973 73.8453 20.6973V20.7772C73.8365 20.8335 73.8365 20.8909 73.8453 20.9473C73.8345 21.0202 73.8345 21.0943 73.8453 21.1672C73.8809 21.3932 73.9413 21.6145 74.0253 21.8273C74.0408 21.8887 74.0609 21.9488 74.0853 22.0072L74.1353 22.1172C74.1953 22.2472 74.2453 22.3572 74.3253 22.4972C74.4053 22.6372 74.6253 23.0372 74.7853 23.3572C75.1572 24.0506 75.3367 24.831 75.3053 25.6172C75.2092 26.3741 74.9275 27.0955 74.4853 27.7173L74.2353 28.1172L74.1353 28.2872C74.101 28.3484 74.071 28.412 74.0453 28.4773C73.948 28.7128 73.8906 28.9629 73.8753 29.2173C73.8341 29.4689 73.8341 29.7256 73.8753 29.9773C73.9501 30.2254 74.0541 30.4638 74.1853 30.6873C74.4638 31.1722 74.6503 31.7045 74.7353 32.2572C74.8051 32.7283 74.757 33.2093 74.5953 33.6572C74.4576 33.9769 74.2937 34.2846 74.1053 34.5773C73.9896 34.7637 73.8861 34.9574 73.7953 35.1572L73.7053 35.3772L73.7653 35.1472C73.8288 34.9359 73.9056 34.7288 73.9953 34.5272C74.1407 34.2056 74.2545 33.8707 74.3353 33.5272C74.4395 33.1238 74.4395 32.7006 74.3353 32.2972C74.1897 31.82 73.9593 31.373 73.6553 30.9773C73.4606 30.7311 73.2961 30.4625 73.1653 30.1772C73.0534 29.8557 72.996 29.5177 72.9953 29.1772C72.9716 28.8109 73.0053 28.4432 73.0953 28.0873C73.0953 27.9673 73.1553 27.9173 73.1753 27.8373C73.1953 27.7573 73.2453 27.6673 73.2853 27.5873L73.4853 27.1372C73.7456 26.6609 73.8896 26.1298 73.9053 25.5873C73.852 25.0747 73.6582 24.5868 73.3453 24.1772C73.1853 23.9372 72.9953 23.6872 72.7953 23.4272L72.5053 22.9972L72.4453 22.8972L72.3753 22.7772L72.2353 22.5472C72.063 22.2284 71.9223 21.8935 71.8153 21.5472C71.7544 21.3384 71.7142 21.124 71.6953 20.9072C71.6953 20.7672 71.6953 20.7272 71.6953 20.6472V20.5673V20.2872C71.7576 19.9028 71.8826 19.5312 72.0653 19.1873C72.1595 18.9954 72.243 18.7984 72.3153 18.5973C72.5453 18.0375 72.6312 17.4289 72.5653 16.8273C72.5653 16.6073 72.5053 16.4373 72.4753 16.2173C72.4535 16.048 72.4535 15.8766 72.4753 15.7073C72.4947 15.612 72.5214 15.5184 72.5553 15.4272C72.5597 15.4075 72.5597 15.387 72.5553 15.3672L74.8053 16.3473Z" fill="#683B11"/>
        <path d="M65.0117 20.5164L64.8517 20.1764C64.6867 19.8313 64.6243 19.446 64.6717 19.0664C64.6832 18.9953 64.7 18.9251 64.7217 18.8564V18.6864C64.776 18.5409 64.8429 18.4003 64.9217 18.2664C65.0779 17.9901 65.2771 17.7403 65.5117 17.5264C65.6281 17.412 65.7517 17.3052 65.8817 17.2065H65.9317H65.9917L66.0717 17.1464L66.2617 17.0264L66.5017 16.8964L66.6917 16.7964C66.7951 16.7386 66.8952 16.6751 66.9917 16.6064C67.0556 16.5713 67.1111 16.5229 67.1543 16.4641C67.1975 16.4054 67.2273 16.3379 67.2417 16.2664L67.4117 16.1364L67.5417 16.0364L67.9517 15.7764C68.2575 15.6083 68.5343 15.3922 68.7717 15.1364C68.8717 14.9864 68.7717 15.0064 68.6917 15.1364C68.6577 15.1857 68.6307 15.2396 68.6117 15.2964L72.4617 15.7265C72.4617 15.7265 72.4617 15.8065 72.4617 15.9565C72.412 16.174 72.3382 16.3853 72.2417 16.5865C72.1063 16.8753 71.9276 17.1416 71.7117 17.3764C71.4895 17.6213 71.2336 17.8334 70.9517 18.0064C70.4707 18.2934 69.957 18.5218 69.4217 18.6864L69.1717 18.7664L69.0217 18.8465C68.6498 19.0285 68.2451 19.1338 67.8317 19.1564C67.6785 19.1659 67.5249 19.1659 67.3717 19.1564H67.1817H67.0517C66.9917 19.1522 66.9316 19.1522 66.8717 19.1564H66.7617C66.7617 19.1564 66.8317 19.1564 66.7617 19.1564H66.4017C66.2194 19.1785 66.0411 19.2256 65.8717 19.2964C65.7976 19.3159 65.7269 19.3462 65.6617 19.3864L65.5417 19.4964C65.5417 19.4964 65.5417 19.4964 65.4617 19.5564C65.267 19.7761 65.1386 20.0467 65.0917 20.3365C65.0917 20.5665 65.0317 20.7065 65.0317 20.7065" fill="#683B11"/>
        <path d="M63.4289 20.6779L63.2189 20.468C63.0123 20.2605 62.8461 20.0162 62.7288 19.7479C62.651 19.546 62.6039 19.3337 62.5889 19.1179C62.5745 18.995 62.5745 18.8708 62.5889 18.7479C62.6049 18.6192 62.6316 18.4921 62.6688 18.3679C62.7357 18.1074 62.833 17.8556 62.9589 17.6179C63.0842 17.3657 63.246 17.1332 63.4389 16.9279L64.2888 15.9279C64.4943 15.6843 64.6784 15.4233 64.8389 15.1479C64.9489 14.9479 64.9388 14.798 64.7888 14.958C64.6741 15.1021 64.6015 15.2752 64.5788 15.458C64.5701 15.5812 64.5701 15.7048 64.5788 15.828L68.4188 15.2879C68.423 15.3345 68.423 15.3814 68.4188 15.4279C68.4375 15.5539 68.4375 15.682 68.4188 15.808C68.3755 16.1315 68.263 16.4419 68.0889 16.718C67.8144 17.1078 67.4511 17.4265 67.0289 17.6479C66.6566 17.8517 66.2687 18.0257 65.8689 18.1679C65.4689 18.3179 65.0289 18.458 64.6789 18.578C64.5278 18.6023 64.3823 18.6531 64.2489 18.728C64.1075 18.7938 63.9734 18.8742 63.8488 18.968L63.6889 19.1079C63.6306 19.1539 63.5828 19.2119 63.5488 19.2779C63.4712 19.3929 63.4168 19.522 63.3888 19.6579C63.3386 19.8953 63.3386 20.1405 63.3888 20.3779C63.3888 20.5679 63.4389 20.6679 63.4389 20.6679" fill="#683B11"/>
        <path d="M75.8225 26.5325C75.8225 27.8225 75.4825 27.9825 75.0625 27.9825C74.6425 27.9825 74.3125 27.8225 74.3125 26.5325C74.4047 25.4284 74.6574 24.3437 75.0625 23.3125C75.4727 24.3426 75.7288 25.4276 75.8225 26.5325Z" fill="#10AC89"/>
      </g>
      <mask id="mask3_11408_225379" style="mask-type:alpha" maskUnits="userSpaceOnUse" x="69" y="0" width="42" height="41">
        <path d="M90.1744 40.38C101.325 40.38 110.364 31.3406 110.364 20.19C110.364 9.03937 101.325 0 90.1744 0C79.0237 0 69.9844 9.03937 69.9844 20.19C69.9844 31.3406 79.0237 40.38 90.1744 40.38Z" fill="url(#paint6_linear_11408_225379)"/>
      </mask>
      <g mask="url(#mask3_11408_225379)">
        <path d="M90.1744 40.38C101.325 40.38 110.364 31.3406 110.364 20.19C110.364 9.03937 101.325 0 90.1744 0C79.0237 0 69.9844 9.03937 69.9844 20.19C69.9844 31.3406 79.0237 40.38 90.1744 40.38Z" fill="url(#paint7_linear_11408_225379)"/>
        <path d="M100.881 33.7515C100.881 33.7515 96.2306 33.6715 94.8006 32.3715C93.8893 30.6914 93.344 28.8375 93.2006 26.9316C93.2006 24.9916 86.5706 24.9916 86.5706 26.9316C86.4321 28.8384 85.8865 30.6933 84.9706 32.3715C83.5406 33.6715 78.8906 33.7515 78.8906 33.7515C82.4106 34.6715 89.8906 38.8715 89.8906 38.8715C89.8906 38.8715 97.3706 34.6715 100.891 33.7515" fill="#EFB488"/>
        <path d="M82.6856 19.9254C82.6092 19.7577 82.4698 19.6269 82.2975 19.5614C82.1253 19.4958 81.9342 19.5009 81.7656 19.5754C81.3156 19.7654 81.0256 21.0153 81.5356 21.9953C81.9356 22.7553 81.9756 22.9954 82.0756 23.1554C82.1035 23.2291 82.148 23.2954 82.2058 23.349C82.2635 23.4026 82.3329 23.442 82.4085 23.4643C82.484 23.4866 82.5637 23.4911 82.6413 23.4774C82.7189 23.4637 82.7922 23.4321 82.8556 23.3853C83.1956 23.1953 82.6856 19.9254 82.6856 19.9254Z" fill="#EAA97F"/>
        <path d="M97.3494 19.9249C97.4238 19.7579 97.5614 19.6272 97.732 19.5616C97.9026 19.496 98.0923 19.5008 98.2594 19.5749C98.7194 19.7649 99.0094 21.0148 98.4894 21.9948C98.0994 22.7548 98.0494 22.9949 97.9494 23.1549C97.9228 23.2283 97.8794 23.2946 97.8226 23.3482C97.7658 23.4019 97.6972 23.4414 97.6223 23.4638C97.5474 23.4862 97.4684 23.4907 97.3915 23.477C97.3145 23.4633 97.2419 23.4317 97.1794 23.3848C96.8394 23.1948 97.3494 19.9249 97.3494 19.9249Z" fill="#EAA97F"/>
        <path d="M90.0152 7.26562C87.816 7.3613 85.7394 8.30549 84.2216 9.89978C82.7037 11.4941 81.8627 13.6144 81.8751 15.8157C82.0673 18.5808 82.4617 21.3281 83.0551 24.0356C83.6851 26.2856 86.7351 30.1256 89.8951 30.1256C93.0551 30.1256 96.3451 26.2856 96.9751 24.0356C97.5753 21.329 97.9731 18.5814 98.1651 15.8157C98.175 13.6135 97.3317 11.4931 95.8123 9.89905C94.2929 8.30503 92.2153 7.36124 90.0152 7.26562Z" fill="#F8BA8D"/>
        <path d="M101.16 33.3341L94.01 30.6641L89.88 33.4141L85.76 30.6641L78.61 33.3341C78.61 33.3341 74 34.3341 74 41.1541H105.77C105.77 34.3841 101.16 33.3341 101.16 33.3341Z" fill="#802024"/>
        <path d="M98.7719 20.804C98.7719 20.804 98.7719 19.874 98.3019 19.554C98.2277 19.5046 98.1433 19.4726 98.0549 19.4605C97.9666 19.4484 97.8767 19.4565 97.7919 19.4841C97.7319 19.9541 97.6819 20.324 97.6019 20.904C97.6019 20.904 97.4719 21.204 97.1419 20.994C96.8119 20.784 97.4219 17.524 95.6219 16.164C93.8219 14.804 93.6719 11.284 93.6719 10.994C93.7238 10.7908 93.8245 10.6034 93.9652 10.448C94.1059 10.2925 94.2824 10.1735 94.4794 10.1016C94.6764 10.0297 94.8879 10.0069 95.0957 10.0352C95.3035 10.0635 95.5013 10.142 95.6719 10.264C96.9519 10.914 100.502 14.124 98.8019 20.804" fill="#262625"/>
        <path d="M81.2478 20.804C81.2478 20.804 81.2478 19.874 81.7078 19.554C81.7835 19.5037 81.8697 19.4713 81.9597 19.4592C82.0498 19.4471 82.1415 19.4556 82.2278 19.4841C82.2878 19.8941 82.3378 20.254 82.4278 20.904C82.4278 20.904 82.5478 21.204 82.8678 20.994C83.1878 20.784 82.5978 17.524 84.3878 16.164C86.1778 14.804 86.3378 11.284 86.3378 10.994C86.2859 10.7908 86.1852 10.6034 86.0445 10.448C85.9038 10.2925 85.7273 10.1735 85.5303 10.1016C85.3333 10.0297 85.1217 10.0069 84.9139 10.0352C84.7062 10.0635 84.5084 10.142 84.3378 10.264C83.0678 10.914 79.5178 14.124 81.2178 20.804" fill="#262625"/>
        <path d="M82.9574 10.8133C82.9574 10.8133 85.9574 6.25328 91.2274 6.81328C96.4974 7.37328 98.4874 13.6033 98.4874 13.6033L97.9074 15.6833C97.9074 15.6833 91.5674 18.3933 84.4274 13.7833C83.9215 13.4758 83.5142 13.0299 83.2537 12.4982C82.9932 11.9666 82.8904 11.3715 82.9574 10.7833" fill="#262625"/>
        <path d="M94.0128 30.6641C94.3403 30.7385 94.6564 30.8561 94.9528 31.014C95.2428 31.234 94.5428 34.744 93.0428 35.524C92.0914 34.6789 91.0281 33.9689 89.8828 33.4141L94.0128 30.6641Z" fill="#601717"/>
        <path d="M85.7611 30.6641C85.4309 30.74 85.1117 30.8576 84.8111 31.014C84.5311 31.234 85.2211 34.744 86.7211 35.524C87.6773 34.6803 88.7437 33.9705 89.8911 33.4141L85.7611 30.6641Z" fill="#601717"/>
        <path d="M89.9397 24.9251C90.0597 25.2151 90.1697 25.6451 89.5597 25.8551C88.9497 26.0651 88.3997 26.3251 88.3497 26.7851C88.2997 27.2451 87.8097 28.375 87.1497 28.375C86.9766 28.3892 86.8048 28.3356 86.6705 28.2255C86.5362 28.1154 86.4498 27.9575 86.4297 27.7851C86.4297 27.7851 87.2797 28.175 87.4297 27.395C87.5797 26.615 87.2197 25.7251 88.2097 25.0851C89.1997 24.4451 89.8297 24.6351 89.9497 24.9251" fill="#262625"/>
        <path d="M90.0966 24.9251C89.9766 25.2151 89.8566 25.6451 90.4766 25.8551C91.0966 26.0651 91.6366 26.3251 91.6766 26.7851C91.7166 27.2451 92.2167 28.375 92.8867 28.375C93.0592 28.3867 93.2297 28.3322 93.3634 28.2226C93.4972 28.113 93.5842 27.9565 93.6067 27.7851C93.6067 27.7851 92.7467 28.175 92.6067 27.395C92.4667 26.615 92.8267 25.7251 91.8267 25.0851C90.8267 24.4451 90.2166 24.6351 90.0966 24.9251Z" fill="#262625"/>
      </g>
    </g>
    <defs>
      <linearGradient id="paint0_linear_11408_225379" x1="22.0338" y1="0" x2="22.0338" y2="40.37" gradientUnits="userSpaceOnUse">
        <stop stop-color="#DD9737"/>
        <stop offset="1" stop-color="#FFC447"/>
      </linearGradient>
      <linearGradient id="paint1_linear_11408_225379" x1="22.0338" y1="0" x2="22.0338" y2="40.37" gradientUnits="userSpaceOnUse">
        <stop stop-color="#DD9737"/>
        <stop offset="1" stop-color="#FFC447"/>
      </linearGradient>
      <linearGradient id="paint2_linear_11408_225379" x1="44.9322" y1="0" x2="44.9322" y2="40.37" gradientUnits="userSpaceOnUse">
        <stop stop-color="#9898FC"/>
        <stop offset="1" stop-color="#9E9EFF"/>
      </linearGradient>
      <linearGradient id="paint3_linear_11408_225379" x1="44.9322" y1="0" x2="44.9322" y2="40.37" gradientUnits="userSpaceOnUse">
        <stop stop-color="#9898FC"/>
        <stop offset="1" stop-color="#9E9EFF"/>
      </linearGradient>
      <linearGradient id="paint4_linear_11408_225379" x1="67.815" y1="0" x2="67.815" y2="40.37" gradientUnits="userSpaceOnUse">
        <stop stop-color="#F9B6D8"/>
        <stop offset="1" stop-color="#FFB1D3"/>
      </linearGradient>
      <linearGradient id="paint5_linear_11408_225379" x1="67.815" y1="0" x2="67.815" y2="40.37" gradientUnits="userSpaceOnUse">
        <stop stop-color="#F9B6D8"/>
        <stop offset="1" stop-color="#FFB1D3"/>
      </linearGradient>
      <linearGradient id="paint6_linear_11408_225379" x1="69.9944" y1="20.19" x2="110.364" y2="20.19" gradientUnits="userSpaceOnUse">
        <stop stop-color="#BAA0C4"/>
        <stop offset="1" stop-color="#8984B8"/>
      </linearGradient>
      <linearGradient id="paint7_linear_11408_225379" x1="69.9944" y1="20.19" x2="110.364" y2="20.19" gradientUnits="userSpaceOnUse">
        <stop stop-color="#BAA0C4"/>
        <stop offset="1" stop-color="#8984B8"/>
      </linearGradient>
      <clipPath id="clip0_11408_225379">
        <rect width="110.37" height="49.56" fill="white"/>
      </clipPath>
    </defs>
  </svg>