<svg width="287" height="287" viewBox="0 0 287 287" fill="none" xmlns="http://www.w3.org/2000/svg">
<path d="M281.789 143.127C281.789 219.404 219.836 281.255 143.394 281.255C66.9525 281.255 5 219.404 5 143.127C5 66.8505 66.9525 5 143.394 5C219.836 5 281.789 66.8505 281.789 143.127Z" stroke="#48515F" stroke-width="10"/>
<path fill-rule="evenodd" clip-rule="evenodd" d="M143.152 60.53C135.7 60.53 129.659 66.5713 129.659 74.0235V127.755H78.8903C71.1563 127.755 64.8867 134.024 64.8867 141.758C64.8867 149.492 71.1563 155.762 78.8902 155.762H129.659V209.478C129.659 216.93 135.7 222.971 143.152 222.971C150.605 222.971 156.646 216.93 156.646 209.478V155.762H207.408C215.142 155.762 221.411 149.492 221.411 141.758C221.411 134.024 215.142 127.755 207.408 127.755H156.646V74.0235C156.646 66.5713 150.605 60.53 143.152 60.53Z" fill="#48515F"/>
</svg>
