<svg width="48" height="59" viewBox="0 0 48 59" fill="none" xmlns="http://www.w3.org/2000/svg">
    <g clip-path="url(#clip0_6283_74908)">
      <path fill-rule="evenodd" clip-rule="evenodd" d="M24.086 59C17.7208 59 11.6163 56.4745 7.11539 51.9792C2.61452 47.4838 0.0859375 41.3868 0.0859375 35.0294C0.0859375 29.5588 2.55959 22.8235 7.47738 20.3235C7.47738 20.3235 9.33259 31.8824 14.8393 35.0294C13.632 28.9412 6.88846 6.29412 27.767 0C27.178 11.2353 28.6799 21.5 35.1584 27.647C34.6284 23.5 34.275 15.1176 42.3732 12.9412C42.6545 15.787 43.4528 18.5578 44.729 21.1176C47.0096 25.4384 48.1642 30.2633 48.0861 35.1471C48.0861 41.5045 45.5575 47.6015 41.0566 52.0968C36.5558 56.5922 30.4512 59.1177 24.086 59.1177M39.7818 19.5588C38.4289 23.8452 38.4804 28.4508 39.929 32.7059C29.2394 32.7059 24.086 20.9412 24.086 5.6471C11.9535 13.1765 17.6664 30.4412 19.9045 39.5882C9.30324 39.5882 7.00625 30.5882 5.85778 27.3823C4.5719 29.7754 3.85633 32.4327 3.76692 35.1471C3.75129 37.8165 4.26632 40.4624 5.28191 42.9317C6.2975 45.4009 7.79353 47.6444 9.68345 49.532C11.5734 51.4196 13.8195 52.9138 16.2918 53.9282C18.7641 54.9425 21.4133 55.4568 24.086 55.4412C35.3056 55.4412 43.4628 46.6177 44.4051 35.1471C44.4051 28.1765 40.6652 22.3823 39.7818 19.5588Z" fill="white"/>
    </g>
    <defs>
      <clipPath id="clip0_6283_74908">
        <rect width="48" height="59" fill="white"/>
      </clipPath>
    </defs>
  </svg>