<svg width="17" height="17" viewBox="0 0 17 17" fill="none" xmlns="http://www.w3.org/2000/svg">
    <g clip-path="url(#clip0_11408_227415)">
      <path d="M8.49679 3.17773e-06C10.179 -0.00145074 11.8238 0.496037 13.2232 1.42955C14.6226 2.36306 15.7137 3.69064 16.3584 5.24436C17.0032 6.79807 17.1726 8.50812 16.8453 10.1582C16.518 11.8082 15.7088 13.3241 14.5198 14.5141C13.3308 15.7041 11.8156 16.5147 10.1658 16.8434C8.51608 17.1721 6.80594 17.0041 5.25167 16.3607C3.69739 15.7173 2.36885 14.6274 1.43413 13.2288C0.499411 11.8302 0.000514984 10.1859 0.000514984 8.50367C0.00245667 6.25023 0.89801 4.08952 2.49075 2.49541C4.08349 0.901291 6.24335 0.0038943 8.49679 3.17773e-06ZM8.49679 16.3459C10.0499 16.3473 11.5686 15.888 12.8605 15.026C14.1525 14.1641 15.1597 12.9382 15.7548 11.5036C16.3498 10.069 16.5059 8.4901 16.2033 6.96676C15.9006 5.44341 15.1528 4.04408 14.0546 2.94586C12.9564 1.84764 11.5571 1.0999 10.0338 0.797255C8.51042 0.494613 6.93148 0.650679 5.49687 1.2457C4.06225 1.84073 2.83638 2.84795 1.97442 4.13993C1.11246 5.43191 0.6532 6.95055 0.654654 8.50367C0.658541 10.5824 1.486 12.5748 2.95585 14.0446C4.42571 15.5145 6.41811 16.342 8.49679 16.3459Z" fill="white"/>
      <path d="M8 5V9.5L12 11.5" stroke="white" stroke-linecap="round" stroke-linejoin="round"/>
    </g>
    <defs>
      <clipPath id="clip0_11408_227415">
        <rect width="17" height="17" fill="white" transform="matrix(-1 0 0 1 17 0)"/>
      </clipPath>
    </defs>
  </svg>