<svg width="300" height="300" viewBox="0 0 300 300" fill="none" xmlns="http://www.w3.org/2000/svg">
<rect width="300" height="300" rx="150" fill="#37404C"/>
<path fill-rule="evenodd" clip-rule="evenodd" d="M150.082 52C141.124 52 133.861 59.2621 133.861 68.2204V132.963H72.8649C63.5507 132.963 56 140.514 56 149.828C56 159.142 63.5507 166.693 72.8649 166.693H133.861V231.413C133.861 240.371 141.124 247.633 150.082 247.633C159.04 247.633 166.302 240.371 166.302 231.413V166.693H227.292C236.606 166.693 244.157 159.142 244.157 149.828C244.157 140.514 236.606 132.963 227.292 132.963H166.302V68.2204C166.302 59.2621 159.04 52 150.082 52Z" fill="#48515F"/>
</svg>
