<svg xmlns="http://www.w3.org/2000/svg" width="196" height="115" viewBox="0 0 196 115" fill="none">
  <path d="M152.719 32.2852C150.061 32.2918 147.41 32.5515 144.801 33.0606C139.393 21.851 130.449 12.7311 119.347 7.10675C108.245 1.48238 95.6018 -0.334272 83.3655 1.93678C71.1292 4.20783 59.9794 10.4405 51.6348 19.6742C43.2901 28.9078 38.2139 40.6298 37.1884 53.0334C35.4441 52.7135 33.675 52.5484 31.9017 52.54C23.6761 52.54 15.7872 55.8078 9.97081 61.6245C4.15437 67.4413 0.886719 75.3305 0.886719 83.5566C0.886719 91.7827 4.15437 99.672 9.97081 105.489C15.7872 111.305 23.6761 114.573 31.9017 114.573H152.719C158.236 114.76 163.734 113.834 168.885 111.852C174.037 109.869 178.737 106.87 182.705 103.033C186.674 99.1966 189.83 94.6004 191.985 89.5184C194.141 84.4365 195.251 78.9729 195.251 73.4527C195.251 67.9326 194.141 62.4688 191.985 57.3869C189.83 52.305 186.674 47.7088 182.705 43.872C178.737 40.0352 174.037 37.0362 168.885 35.0537C163.734 33.0712 158.236 32.1456 152.719 32.3322V32.2852Z" fill="white"/>
  <path d="M116.039 66.5938V85.7442H78.7275V66.5938H70.5508V93.2164H124.193V66.5938H116.039Z" fill="#0196C9"/>
  <path d="M113.314 56.7984L97.3836 40.8906L81.4531 56.7984L85.7764 61.1219L94.1881 52.7098V72.2832H100.579V52.7098L108.991 61.1219L113.314 56.7984Z" fill="#0196C9"/>
</svg>