<svg width="22" height="28" viewBox="0 0 22 28" fill="none" xmlns="http://www.w3.org/2000/svg">
<path d="M5.35938 11.7562C5.35938 8.20254 6.569 4.75409 8.79006 1.9781C9.03453 1.67287 9.34447 1.4265 9.69698 1.2572C10.0495 1.0879 10.4355 1 10.8266 1C11.2177 1 11.6037 1.0879 11.9562 1.2572C12.3087 1.4265 12.6187 1.67287 12.8631 1.9781C15.0837 4.75343 16.2936 8.20188 16.2938 11.7562V15.5314C16.2938 17.0895 16.2938 17.8686 15.9849 18.4618C15.7258 18.9597 15.3197 19.3658 14.8218 19.6249C14.2286 19.9338 13.4495 19.9338 11.8913 19.9338H9.76186C8.2037 19.9338 7.42462 19.9338 6.83143 19.6249C6.33348 19.3658 5.92737 18.9597 5.66827 18.4618C5.35937 17.8686 5.35938 17.0895 5.35938 15.5314V11.7562Z" stroke="#0095C8" stroke-width="2"/>
<path d="M12.1946 7.63243C12.1946 7.99493 12.0505 8.34258 11.7942 8.59891C11.5379 8.85524 11.1902 8.99924 10.8277 8.99924C10.4652 8.99924 10.1176 8.85524 9.86127 8.59891C9.60494 8.34258 9.46094 7.99493 9.46094 7.63243C9.46094 7.26993 9.60494 6.92228 9.86127 6.66595C10.1176 6.40963 10.4652 6.26562 10.8277 6.26562C11.1902 6.26562 11.5379 6.40963 11.7942 6.66595C12.0505 6.92228 12.1946 7.26993 12.1946 7.63243Z" fill="#717A8B"/>
<path d="M16.2982 9.67969L17.4655 11.4306C19.9599 15.1729 21.2078 17.0427 20.4342 18.4874C19.6619 19.9307 17.4135 19.9307 12.9167 19.9307H8.74523C4.24844 19.9307 2.00004 19.9307 1.22779 18.4874C0.45418 17.0427 1.70208 15.1729 4.1965 11.4306L5.36375 9.67969" stroke="#0095C8" stroke-width="2"/>
<path d="M10.8348 24.0312V26.7649M14.9352 24.0312V25.3981M6.73438 24.0312V25.3981" stroke="#0095C8" stroke-width="2" stroke-linecap="round"/>
</svg>
