<svg width="28" height="24" viewBox="0 0 28 24" fill="none" xmlns="http://www.w3.org/2000/svg">
<g clip-path="url(#clip0_11585_136573)">
<path d="M27.4579 9.99529H0.533768C0.4401 9.99622 0.347868 9.97371 0.266759 9.93018C0.185651 9.88665 0.118574 9.8237 0.0726615 9.74786C0.0250039 9.67118 0 9.5842 0 9.49566C0 9.40713 0.0250039 9.32014 0.0726615 9.24347L3.31016 4.23791C3.35892 4.16513 3.42685 4.10511 3.50751 4.06348C3.58818 4.02186 3.67887 4 3.77115 4H24.2614C24.3534 4.00172 24.4435 4.02434 24.5238 4.06581C24.6042 4.10728 24.6724 4.16633 24.7226 4.23791L27.9498 9.24347C27.9975 9.32014 28.0225 9.40713 28.0225 9.49566C28.0225 9.5842 27.9975 9.67118 27.9498 9.74786C27.9007 9.82315 27.8315 9.88546 27.749 9.92878C27.6664 9.97211 27.5732 9.99501 27.4784 9.99529M1.50701 8.99604H26.5257L23.9439 4.99925H4.0683L1.50701 8.99604Z" fill="#717A8B"/>
<path d="M27.4579 9.99529H0.533768C0.4401 9.99622 0.347868 9.97371 0.266759 9.93018C0.185651 9.88665 0.118574 9.8237 0.0726615 9.74786C0.0250039 9.67118 0 9.5842 0 9.49566C0 9.40713 0.0250039 9.32014 0.0726615 9.24347L3.31016 4.23791C3.35892 4.16513 3.42685 4.10511 3.50751 4.06348C3.58818 4.02186 3.67887 4 3.77115 4H24.2614C24.3534 4.00172 24.4435 4.02434 24.5238 4.06581C24.6042 4.10728 24.6724 4.16633 24.7226 4.23791L27.9498 9.24347C27.9975 9.32014 28.0225 9.40713 28.0225 9.49566C28.0225 9.5842 27.9975 9.67118 27.9498 9.74786C27.9007 9.82315 27.8315 9.88546 27.749 9.92878C27.6664 9.97211 27.5732 9.99501 27.4784 9.99529M1.50701 8.99604H26.5257L23.9439 4.99925H4.0683L1.50701 8.99604Z" stroke="#0095C8" stroke-width="0.5"/>
<path d="M20.6373 4.39605L19.625 4.73438L21.5605 9.73079L22.5728 9.39247L20.6373 4.39605Z" fill="#717A8B" stroke="#0095C8" stroke-width="0.5"/>
<path d="M7.27464 4.26753L5.34375 9.26562L6.35632 9.60313L8.28721 4.60503L7.27464 4.26753Z" fill="#717A8B" stroke="#0095C8" stroke-width="0.5"/>
<path d="M16.6072 4.35755L15.5391 4.47656L16.1845 9.47487L17.2527 9.35586L16.6072 4.35755Z" fill="#717A8B" stroke="#0095C8" stroke-width="0.5"/>
<path d="M11.4883 4.48596L10.8438 9.48438L11.9119 9.60321L12.5564 4.6048L11.4883 4.48596Z" fill="#717A8B" stroke="#0095C8" stroke-width="0.5"/>
<path d="M24.7609 4.49174H23.7364V0.999287H4.35264V4.49174H3.32813V0.494897C3.32811 0.429105 3.34223 0.364007 3.36965 0.303341C3.39706 0.242675 3.43714 0.187658 3.48771 0.141581C3.53827 0.0955035 3.59822 0.0593003 3.66404 0.0349991C3.72987 0.0106979 3.80033 -0.00117377 3.87115 9.14727e-05H24.3615C24.5027 9.14727e-05 24.6382 0.0522061 24.7381 0.145008C24.8381 0.237809 24.8941 0.363656 24.8941 0.494897L24.7609 4.49174Z" fill="#717A8B" stroke="#0095C8" stroke-width="0.5"/>
<path d="M3.22725 12.4976C2.37134 12.4976 1.55045 12.1818 0.945225 11.6196C0.340004 11.0574 0 10.295 0 9.5H1.02452C1.02452 10.03 1.2511 10.5383 1.65458 10.9131C2.05806 11.2879 2.60536 11.4984 3.17597 11.4984C3.74658 11.4984 4.29376 11.2879 4.69724 10.9131C5.10072 10.5383 5.32743 10.03 5.32743 9.5H6.35194C6.35194 9.89365 6.2685 10.2834 6.10632 10.6471C5.94414 11.0108 5.70639 11.3413 5.40672 11.6196C5.10704 11.898 4.75124 12.1188 4.35969 12.2694C3.96815 12.4201 3.5485 12.4976 3.1247 12.4976" fill="#717A8B"/>
<path d="M3.22725 12.4976C2.37134 12.4976 1.55045 12.1818 0.945225 11.6196C0.340004 11.0574 0 10.295 0 9.5H1.02452C1.02452 10.03 1.2511 10.5383 1.65458 10.9131C2.05806 11.2879 2.60536 11.4984 3.17597 11.4984C3.74658 11.4984 4.29376 11.2879 4.69724 10.9131C5.10072 10.5383 5.32743 10.03 5.32743 9.5H6.35194C6.35194 9.89365 6.2685 10.2834 6.10632 10.6471C5.94414 11.0108 5.70639 11.3413 5.40672 11.6196C5.10704 11.898 4.75124 12.1188 4.35969 12.2694C3.96815 12.4201 3.5485 12.4976 3.1247 12.4976" stroke="#0095C8" stroke-width="0.5"/>
<path d="M8.62019 12.4976C7.76333 12.4976 6.94152 12.1821 6.33467 11.6202C5.72782 11.0583 5.38552 10.2959 5.38281 9.5H6.40733C6.445 10.0074 6.6885 10.4826 7.0888 10.8297C7.48909 11.1767 8.01633 11.3698 8.56391 11.3698C9.11149 11.3698 9.63861 11.1767 10.0389 10.8297C10.4392 10.4826 10.6828 10.0074 10.7205 9.5H11.745C11.745 10.295 11.405 11.0574 10.7998 11.6196C10.1946 12.1818 9.37368 12.4976 8.51776 12.4976" fill="#717A8B"/>
<path d="M8.62019 12.4976C7.76333 12.4976 6.94152 12.1821 6.33467 11.6202C5.72782 11.0583 5.38552 10.2959 5.38281 9.5H6.40733C6.445 10.0074 6.6885 10.4826 7.0888 10.8297C7.48909 11.1767 8.01633 11.3698 8.56391 11.3698C9.11149 11.3698 9.63861 11.1767 10.0389 10.8297C10.4392 10.4826 10.6828 10.0074 10.7205 9.5H11.745C11.745 10.295 11.405 11.0574 10.7998 11.6196C10.1946 12.1818 9.37368 12.4976 8.51776 12.4976" stroke="#0095C8" stroke-width="0.5"/>
<path d="M13.9927 12.4976C13.1368 12.4976 12.3161 12.1818 11.7109 11.6196C11.1056 11.0574 10.7656 10.295 10.7656 9.5H11.7901C11.7901 10.03 12.0167 10.5383 12.4202 10.9131C12.8237 11.2879 13.371 11.4984 13.9416 11.4984C14.5122 11.4984 15.0594 11.2879 15.4629 10.9131C15.8663 10.5383 16.0931 10.03 16.0931 9.5H17.1176C17.1176 9.89365 17.0341 10.2834 16.8719 10.6471C16.7098 11.0108 16.472 11.3413 16.1723 11.6196C15.8727 11.898 15.5169 12.1188 15.1253 12.2694C14.7338 12.4201 14.3141 12.4976 13.8903 12.4976" fill="#717A8B"/>
<path d="M13.9927 12.4976C13.1368 12.4976 12.3161 12.1818 11.7109 11.6196C11.1056 11.0574 10.7656 10.295 10.7656 9.5H11.7901C11.7901 10.03 12.0167 10.5383 12.4202 10.9131C12.8237 11.2879 13.371 11.4984 13.9416 11.4984C14.5122 11.4984 15.0594 11.2879 15.4629 10.9131C15.8663 10.5383 16.0931 10.03 16.0931 9.5H17.1176C17.1176 9.89365 17.0341 10.2834 16.8719 10.6471C16.7098 11.0108 16.472 11.3413 16.1723 11.6196C15.8727 11.898 15.5169 12.1188 15.1253 12.2694C14.7338 12.4201 14.3141 12.4976 13.8903 12.4976" stroke="#0095C8" stroke-width="0.5"/>
<path d="M19.378 12.4976C18.5211 12.4976 17.6993 12.1821 17.0925 11.6202C16.4856 11.0583 16.1433 10.2959 16.1406 9.5H17.1651C17.2028 10.0074 17.4463 10.4826 17.8466 10.8297C18.2469 11.1767 18.7741 11.3698 19.3217 11.3698C19.8693 11.3698 20.3964 11.1767 20.7967 10.8297C21.197 10.4826 21.4406 10.0074 21.4783 9.5H22.5028C22.5028 10.295 22.1628 11.0574 21.5576 11.6196C20.9524 12.1818 20.1315 12.4976 19.2756 12.4976" fill="#717A8B"/>
<path d="M19.378 12.4976C18.5211 12.4976 17.6993 12.1821 17.0925 11.6202C16.4856 11.0583 16.1433 10.2959 16.1406 9.5H17.1651C17.2028 10.0074 17.4463 10.4826 17.8466 10.8297C18.2469 11.1767 18.7741 11.3698 19.3217 11.3698C19.8693 11.3698 20.3964 11.1767 20.7967 10.8297C21.197 10.4826 21.4406 10.0074 21.4783 9.5H22.5028C22.5028 10.295 22.1628 11.0574 21.5576 11.6196C20.9524 12.1818 20.1315 12.4976 19.2756 12.4976" stroke="#0095C8" stroke-width="0.5"/>
<path d="M24.7662 12.4976C23.9103 12.4976 23.0895 12.1818 22.4843 11.6196C21.8791 11.0574 21.5391 10.295 21.5391 9.5H22.5636C22.5636 10.03 22.7902 10.5383 23.1936 10.9131C23.5971 11.2879 24.1444 11.4984 24.715 11.4984C25.2856 11.4984 25.8328 11.2879 26.2363 10.9131C26.6398 10.5383 26.8665 10.03 26.8665 9.5H27.891C27.891 9.89365 27.8076 10.2834 27.6454 10.6471C27.4832 11.0108 27.2455 11.3413 26.9458 11.6196C26.6461 11.898 26.2903 12.1188 25.8988 12.2694C25.5072 12.4201 25.0876 12.4976 24.6638 12.4976" fill="#717A8B"/>
<path d="M24.7662 12.4976C23.9103 12.4976 23.0895 12.1818 22.4843 11.6196C21.8791 11.0574 21.5391 10.295 21.5391 9.5H22.5636C22.5636 10.03 22.7902 10.5383 23.1936 10.9131C23.5971 11.2879 24.1444 11.4984 24.715 11.4984C25.2856 11.4984 25.8328 11.2879 26.2363 10.9131C26.6398 10.5383 26.8665 10.03 26.8665 9.5H27.891C27.891 9.89365 27.8076 10.2834 27.6454 10.6471C27.4832 11.0108 27.2455 11.3413 26.9458 11.6196C26.6461 11.898 26.2903 12.1188 25.8988 12.2694C25.5072 12.4201 25.0876 12.4976 24.6638 12.4976" stroke="#0095C8" stroke-width="0.5"/>
<path d="M24.7632 11.9531H23.6875V23.5059H24.7632V11.9531Z" fill="#717A8B" stroke="#0095C8" stroke-width="0.5"/>
<path d="M4.3023 11.9531H3.22656V23.5059H4.3023V11.9531Z" fill="#717A8B" stroke="#0095C8" stroke-width="0.5"/>
<path d="M11.8466 18.5001C11.7754 18.5011 11.7048 18.4881 11.6395 18.4618C11.5741 18.4356 11.5155 18.3967 11.4675 18.3478C11.4161 18.3024 11.3751 18.2478 11.3471 18.1873C11.3191 18.1268 11.3047 18.0616 11.3047 17.9957C11.3047 17.9298 11.3191 17.8646 11.3471 17.8041C11.3751 17.7435 11.4161 17.6889 11.4675 17.6436L13.0761 16.14C13.178 16.0454 13.3162 15.9922 13.4603 15.9922C13.6044 15.9922 13.7426 16.0454 13.8445 16.14C13.9464 16.2347 14.0035 16.363 14.0035 16.4969C14.0035 16.6307 13.9464 16.7591 13.8445 16.8537L12.2257 18.3573C12.1242 18.449 11.9881 18.5002 11.8466 18.5001Z" fill="#717A8B"/>
<path d="M11.8466 18.5001C11.7754 18.5011 11.7048 18.4881 11.6395 18.4618C11.5741 18.4356 11.5155 18.3967 11.4675 18.3478C11.4161 18.3024 11.3751 18.2478 11.3471 18.1873C11.3191 18.1268 11.3047 18.0616 11.3047 17.9957C11.3047 17.9298 11.3191 17.8646 11.3471 17.8041C11.3751 17.7435 11.4161 17.6889 11.4675 17.6436L13.0761 16.14C13.178 16.0454 13.3162 15.9922 13.4603 15.9922C13.6044 15.9922 13.7426 16.0454 13.8445 16.14C13.9464 16.2347 14.0035 16.363 14.0035 16.4969C14.0035 16.6307 13.9464 16.7591 13.8445 16.8537L12.2257 18.3573C12.1242 18.449 11.9881 18.5002 11.8466 18.5001" stroke="#0095C8" stroke-width="0.5"/>
<path d="M7.00283 15.975C6.86128 15.9752 6.72526 15.9239 6.62377 15.8323C6.57231 15.7869 6.53134 15.7323 6.50333 15.6718C6.47533 15.6113 6.46094 15.5461 6.46094 15.4802C6.46094 15.4143 6.47533 15.3491 6.50333 15.2886C6.53134 15.228 6.57231 15.1734 6.62377 15.1281L8.23233 13.6246C8.28276 13.5777 8.34262 13.5404 8.40854 13.515C8.47446 13.4896 8.54516 13.4766 8.61652 13.4766C8.68788 13.4766 8.75845 13.4896 8.82438 13.515C8.8903 13.5404 8.95028 13.5777 9.00071 13.6246C9.09959 13.7188 9.15492 13.8451 9.15492 13.9767C9.15492 14.1082 9.09959 14.2346 9.00071 14.3288L7.3819 15.8323C7.28041 15.9239 7.14439 15.9752 7.00283 15.975Z" fill="#717A8B"/>
<path d="M7.00283 15.975C6.86128 15.9752 6.72526 15.9239 6.62377 15.8323C6.57231 15.7869 6.53134 15.7323 6.50333 15.6718C6.47533 15.6113 6.46094 15.5461 6.46094 15.4802C6.46094 15.4143 6.47533 15.3491 6.50333 15.2886C6.53134 15.228 6.57231 15.1734 6.62377 15.1281L8.23233 13.6246C8.28276 13.5777 8.34262 13.5404 8.40854 13.515C8.47446 13.4896 8.54516 13.4766 8.61652 13.4766C8.68788 13.4766 8.75845 13.4896 8.82438 13.515C8.8903 13.5404 8.95028 13.5777 9.00071 13.6246C9.09959 13.7188 9.15492 13.8451 9.15492 13.9767C9.15492 14.1082 9.09959 14.2346 9.00071 14.3288L7.3819 15.8323C7.28041 15.9239 7.14439 15.9752 7.00283 15.975" stroke="#0095C8" stroke-width="0.5"/>
<path d="M8.06965 18.5013C7.92809 18.5014 7.79207 18.4502 7.69058 18.3585C7.64009 18.3117 7.59998 18.2561 7.57265 18.1948C7.54532 18.1336 7.53125 18.0679 7.53125 18.0016C7.53125 17.9353 7.54532 17.8697 7.57265 17.8085C7.59998 17.7472 7.64009 17.6916 7.69058 17.6448L11.9935 13.6479C12.0439 13.601 12.1038 13.5638 12.1697 13.5385C12.2356 13.5131 12.3063 13.5 12.3777 13.5C12.4491 13.5 12.5197 13.5131 12.5857 13.5385C12.6516 13.5638 12.7114 13.601 12.7619 13.6479C12.8608 13.7421 12.9161 13.8685 12.9161 14C12.9161 14.1316 12.8608 14.2579 12.7619 14.3521L8.44871 18.3585C8.34722 18.4502 8.2112 18.5014 8.06965 18.5013Z" fill="#717A8B"/>
<path d="M8.06965 18.5013C7.92809 18.5014 7.79207 18.4502 7.69058 18.3585C7.64009 18.3117 7.59998 18.2561 7.57265 18.1948C7.54532 18.1336 7.53125 18.0679 7.53125 18.0016C7.53125 17.9353 7.54532 17.8697 7.57265 17.8085C7.59998 17.7472 7.64009 17.6916 7.69058 17.6448L11.9935 13.6479C12.0439 13.601 12.1038 13.5638 12.1697 13.5385C12.2356 13.5131 12.3063 13.5 12.3777 13.5C12.4491 13.5 12.5197 13.5131 12.5857 13.5385C12.6516 13.5638 12.7114 13.601 12.7619 13.6479C12.8608 13.7421 12.9161 13.8685 12.9161 14C12.9161 14.1316 12.8608 14.2579 12.7619 14.3521L8.44871 18.3585C8.34722 18.4502 8.2112 18.5014 8.06965 18.5013" stroke="#0095C8" stroke-width="0.5"/>
<path d="M17.2164 11H16.1406V23.5044H17.2164V11Z" fill="#717A8B" stroke="#0095C8" stroke-width="0.5"/>
<path d="M18.8376 18.5012C18.7667 18.5012 18.6965 18.4881 18.6312 18.4626C18.5659 18.4371 18.5067 18.3998 18.4571 18.3529C18.4075 18.3059 18.3685 18.2502 18.3423 18.1891C18.3161 18.1279 18.3034 18.0626 18.3048 17.9968V15.9793C18.3048 15.8481 18.3608 15.7222 18.4607 15.6294C18.5606 15.5366 18.6963 15.4845 18.8376 15.4845C18.9084 15.4832 18.9787 15.4951 19.0445 15.5194C19.1104 15.5437 19.1703 15.5799 19.2209 15.626C19.2714 15.6721 19.3115 15.727 19.3389 15.7877C19.3663 15.8484 19.3805 15.9135 19.3805 15.9793V17.9777C19.3805 18.1115 19.3233 18.2398 19.2215 18.3344C19.1197 18.429 18.9816 18.4821 18.8376 18.4821" fill="#717A8B"/>
<path d="M18.8376 18.5012C18.7667 18.5012 18.6965 18.4881 18.6312 18.4626C18.5659 18.4371 18.5067 18.3998 18.4571 18.3529C18.4075 18.3059 18.3685 18.2502 18.3423 18.1891C18.3161 18.1279 18.3034 18.0626 18.3048 17.9968V15.9793C18.3048 15.8481 18.3608 15.7222 18.4607 15.6294C18.5606 15.5366 18.6963 15.4845 18.8376 15.4845C18.9084 15.4832 18.9787 15.4951 19.0445 15.5194C19.1104 15.5437 19.1703 15.5799 19.2209 15.626C19.2714 15.6721 19.3115 15.727 19.3389 15.7877C19.3663 15.8484 19.3805 15.9135 19.3805 15.9793V17.9777C19.3805 18.1115 19.3233 18.2398 19.2215 18.3344C19.1197 18.429 18.9816 18.4821 18.8376 18.4821" stroke="#0095C8" stroke-width="0.5"/>
<path d="M16.6926 20H3.77344V20.9992H16.6926V20Z" fill="#717A8B" stroke="#0095C8" stroke-width="0.5"/>
<path d="M26.3838 23.9992H1.61099C1.54016 23.9992 1.47008 23.9861 1.40476 23.9606C1.33945 23.9352 1.28028 23.8979 1.23067 23.8509C1.18107 23.8039 1.14203 23.7483 1.11587 23.6871C1.0897 23.626 1.07686 23.5606 1.07822 23.4949C1.07822 23.3636 1.13439 23.2377 1.2343 23.1449C1.33421 23.0521 1.4697 23 1.61099 23H26.3838C26.5251 23 26.6606 23.0521 26.7605 23.1449C26.8604 23.2377 26.9166 23.3636 26.9166 23.4949C26.918 23.5606 26.9051 23.626 26.8789 23.6871C26.8528 23.7483 26.8137 23.8039 26.7641 23.8509C26.7145 23.8979 26.6554 23.9352 26.59 23.9606C26.5247 23.9861 26.4547 23.9992 26.3838 23.9992Z" fill="#717A8B"/>
<path d="M26.3838 23.9992H1.61099C1.54016 23.9992 1.47008 23.9861 1.40476 23.9606C1.33945 23.9352 1.28028 23.8979 1.23067 23.8509C1.18107 23.8039 1.14203 23.7483 1.11587 23.6871C1.0897 23.626 1.07686 23.5606 1.07822 23.4949C1.07822 23.3636 1.13439 23.2377 1.2343 23.1449C1.33421 23.0521 1.4697 23 1.61099 23H26.3838C26.5251 23 26.6606 23.0521 26.7605 23.1449C26.8604 23.2377 26.9166 23.3636 26.9166 23.4949C26.918 23.5606 26.9051 23.626 26.8789 23.6871C26.8528 23.7483 26.8137 23.8039 26.7641 23.8509C26.7145 23.8979 26.6554 23.9352 26.5901 23.9606C26.5247 23.9861 26.4547 23.9992 26.3838 23.9992" stroke="#0095C8" stroke-width="0.5"/>
</g>
<defs>
<clipPath id="clip0_11585_136573">
<rect width="28" height="24" fill="white"/>
</clipPath>
</defs>
</svg>
