<svg width="28" height="26" viewBox="0 0 28 26" fill="none" xmlns="http://www.w3.org/2000/svg">
<g clip-path="url(#clip0_11585_77878)">
<path d="M0.0327043 25.0937H0.459614V17.0643C0.553432 17.0146 0.63125 16.9714 0.71125 16.9319C2.59198 15.9997 4.47052 15.0647 6.35561 14.1426C6.55998 14.0426 6.62689 13.9267 6.63343 13.7107C6.64434 13.3624 6.69452 13.0154 6.72652 12.6677C6.74786 12.4446 6.76725 12.2215 6.7847 11.9983C6.80725 11.7032 6.82398 11.4081 6.85016 11.113C6.87634 10.8179 6.9127 10.5076 6.94179 10.2053C6.96507 9.96536 6.98592 9.72543 7.00434 9.4855C7.02834 9.17238 7.04361 8.85855 7.07198 8.54615C7.11707 8.04733 7.17089 7.54851 7.21743 7.04968C7.23852 6.83374 7.25743 6.6214 7.27416 6.40762C7.31561 5.88 7.35416 5.35239 7.39561 4.82405C7.41307 4.60091 7.43052 4.37706 7.45379 4.15464C7.46667 4.08293 7.48465 4.01221 7.50761 3.94301H11.768C11.7863 4.01579 11.8001 4.08958 11.8094 4.16399C11.8516 4.78158 11.8887 5.39917 11.9316 6.01605C11.9651 6.49903 12.0043 6.9813 12.04 7.46429C12.0756 7.94728 12.1127 8.44754 12.1498 8.93845C12.1869 9.42935 12.2225 9.9037 12.2582 10.3867C12.2938 10.8697 12.3309 11.3699 12.368 11.8608C12.4036 12.3345 12.4407 12.8081 12.4763 13.2817C12.5287 13.9425 12.5825 14.6033 12.6378 15.2641C12.6451 15.2894 12.6559 15.3136 12.6698 15.3361L15.296 14.0368C15.3142 13.9144 15.3374 13.8007 15.3462 13.6863C15.368 13.4178 15.3854 13.1493 15.4 12.8808C15.424 12.4417 15.44 12.0019 15.4676 11.5636C15.4938 11.1518 15.5302 10.7416 15.5622 10.3305C15.5622 10.3125 15.5622 10.2946 15.5622 10.2766C15.5847 9.81948 15.6043 9.36241 15.6305 8.90534C15.6647 8.29638 15.7032 7.68815 15.7418 7.0792C15.776 6.54222 15.8145 6.00597 15.8472 5.469C15.8858 4.8514 15.92 4.23381 15.9607 3.61622C15.9942 3.08837 16.0291 2.56051 16.0654 2.03266C16.0938 1.63101 16.1309 1.22936 16.1592 0.826987C16.1702 0.665751 16.1672 0.503796 16.1738 0.34184C16.1774 0.254744 16.1883 0.166928 16.1949 0.0877499C16.4189 0.0380834 19.9665 0.0208077 20.5032 0.0625563C20.5168 0.101182 20.5267 0.14093 20.5331 0.181323C20.5527 0.495157 20.5723 0.808273 20.5876 1.12139C20.6116 1.63317 20.6298 2.14423 20.656 2.65529C20.6909 3.35422 20.7287 4.05242 20.7687 4.75135C20.7837 5.0196 20.8005 5.28808 20.8189 5.55681C20.8494 6.00357 20.8809 6.45033 20.9134 6.89709C20.9134 6.92444 20.9134 6.95107 20.9134 6.97842C20.936 7.50748 20.9556 8.03653 20.9862 8.56559C21.0196 9.22853 21.0589 9.89147 21.0952 10.5544C21.1306 11.1806 21.1665 11.8073 21.2029 12.4345C21.24 13.1061 21.2756 13.7777 21.3149 14.45C21.3316 14.7379 21.3592 15.0201 21.3876 15.3397C23.4334 14.3355 25.4603 13.3242 27.5156 12.3122V25.0786L27.9585 25.0937V25.9575C27.8858 25.9575 27.8131 25.9575 27.7403 25.9575H0.249432C0.176705 25.9575 0.103977 25.9575 0.03125 25.9575L0.0327043 25.0937ZM26.6371 13.7115L17.9222 18.0231V13.7043L9.19489 18.0231V13.7043L1.35998 17.5826V23.341C1.70325 23.382 2.87634 23.3734 3.09379 23.3251C3.09379 22.6385 3.09379 21.9474 3.09379 21.2557C3.09379 21.2492 3.10325 21.242 3.10907 21.2356L3.1258 21.2183H11.8182V23.341C12.2618 23.3871 26.44 23.3719 26.6371 23.3273V13.7115ZM16.8102 4.37274C16.7651 5.04215 16.7178 5.68494 16.6785 6.32772C16.6509 6.77544 16.6334 7.22388 16.6109 7.67159C16.6109 7.68959 16.6109 7.70758 16.6109 7.72558C16.5789 8.13659 16.5425 8.54687 16.5163 8.95788C16.4887 9.39624 16.4727 9.83604 16.4487 10.2744C16.4327 10.5702 16.4131 10.8654 16.3934 11.1605C16.359 11.697 16.3239 12.2335 16.288 12.77C16.2822 12.8499 16.2705 12.9298 16.2618 13.0097C16.2306 13.189 16.2306 13.3723 16.2618 13.5517L18.8014 12.2992V16.618L20.5127 15.7701C20.5208 15.7377 20.5261 15.7047 20.5287 15.6715C20.4989 15.2605 20.4632 14.8502 20.4385 14.4392C20.3971 13.7683 20.3658 13.0967 20.3258 12.4237C20.2909 11.7968 20.2531 11.1706 20.2189 10.5443C20.182 9.88211 20.1452 9.21965 20.1083 8.55695C20.0727 7.92137 20.0356 7.28578 20.0014 6.65019C19.9745 6.13985 19.9571 5.62807 19.9323 5.11773C19.9265 4.99249 19.9025 4.86868 19.8938 4.74415C19.8851 4.61963 19.8836 4.49942 19.8785 4.37346L16.8102 4.37274ZM7.5207 13.5589L10.0734 12.2992V16.618L11.7891 15.7679C11.7789 15.696 11.7687 15.6413 11.7658 15.5887C11.7425 15.2036 11.7214 14.8185 11.6974 14.4334C11.6785 14.1383 11.6589 13.8432 11.6349 13.5481C11.6058 13.1882 11.568 12.8347 11.5411 12.4777C11.5142 12.1207 11.4989 11.7795 11.4756 11.4304C11.4589 11.1713 11.4392 10.9121 11.4189 10.653C11.3854 10.2211 11.3498 9.79573 11.3171 9.36745C11.296 9.07953 11.2807 8.79161 11.256 8.50872C11.2434 8.42666 11.2239 8.34576 11.1978 8.26687H7.98689C7.8327 10.0182 7.67852 11.7637 7.5207 13.5589ZM10.9272 22.0885C10.4043 22.0432 4.1738 22.0605 3.97598 22.1058C3.92943 22.7853 3.9498 24.8922 4.00361 25.075H10.9272V22.0885ZM11.8283 25.0879H26.4589C26.504 25.0879 26.5498 25.0879 26.5949 25.0829C26.6032 25.0805 26.6109 25.0764 26.6174 25.0707L26.6472 25.0426V24.2479H11.8283V25.0879ZM11.0931 6.54438C10.584 6.49831 8.34179 6.51559 8.12434 6.57029C8.11104 6.70038 8.10618 6.83117 8.10979 6.96187C8.1207 7.10151 8.01307 7.23611 8.08361 7.36999H11.1643L11.0931 6.54438ZM19.7796 2.65385H16.9032C16.8931 2.93673 16.8872 3.20809 16.8822 3.48522H19.8392C19.8189 3.2009 19.8 2.93673 19.7796 2.65385ZM10.9745 4.82477C10.6182 4.77439 8.46689 4.78806 8.28725 4.83917C8.26446 5.10453 8.24192 5.36846 8.21961 5.63095C8.61016 5.6763 10.8422 5.66478 11.0262 5.62087C11.0087 5.35383 10.992 5.0875 10.9745 4.82477ZM17.0109 1.73898C17.24 1.78145 19.4902 1.78073 19.7171 1.73898C19.7171 1.60797 19.7243 1.47409 19.7171 1.34165C19.7098 1.2092 19.7491 1.05372 19.6669 0.930638H17.0109V1.73898ZM1.34543 24.2436C1.34543 24.3962 1.34543 24.5315 1.34543 24.6625C1.34543 24.7935 1.32507 24.9447 1.3658 25.0786C2.01089 25.1182 2.88725 25.1023 3.06907 25.052V24.2436H1.34543Z" fill="#717A8B" stroke="#0095C8" stroke-width="0.5" stroke-miterlimit="10"/>
<path d="M11.8198 20.7669H3.08594V19.9219H11.8132C11.8322 20.2032 11.8344 20.4854 11.8198 20.7669Z" fill="#717A8B" stroke="#0095C8" stroke-width="0.5" stroke-miterlimit="10"/>
<path d="M14.4244 22.5009H13.6004C13.5495 22.3145 13.5364 20.289 13.5852 19.9219H14.4244V22.5009Z" fill="#717A8B" stroke="#0095C8" stroke-width="0.5" stroke-miterlimit="10"/>
<path d="M17.01 22.5001H16.1875V19.9326C16.325 19.8879 16.469 19.9146 16.61 19.9103C16.7511 19.9059 16.8799 19.9103 17.0108 19.9103C17.0726 20.1485 17.0675 22.3144 17.01 22.5001Z" fill="#717A8B" stroke="#0095C8" stroke-width="0.5" stroke-miterlimit="10"/>
<path d="M18.8125 19.9141H19.638C19.6881 20.1055 19.699 22.1505 19.651 22.4946H18.8125V19.9141Z" fill="#717A8B" stroke="#0095C8" stroke-width="0.5" stroke-miterlimit="10"/>
<path d="M22.2795 22.5022H21.4555C21.4024 22.323 21.3864 20.3428 21.4366 19.9232C21.7101 19.903 21.9846 19.9009 22.2584 19.9167C22.3028 20.1355 22.3173 21.9401 22.2795 22.5022Z" fill="#717A8B" stroke="#0095C8" stroke-width="0.5" stroke-miterlimit="10"/>
<path d="M24.0314 19.9219H24.87C24.9223 20.1033 24.9369 22.1029 24.8874 22.4995H24.0322C24.0307 21.6465 24.0314 20.7993 24.0314 19.9219Z" fill="#717A8B" stroke="#0095C8" stroke-width="0.5" stroke-miterlimit="10"/>
</g>
<defs>
<clipPath id="clip0_11585_77878">
<rect width="28" height="26" fill="white"/>
</clipPath>
</defs>
</svg>
