<svg width="215" height="194" viewBox="0 0 215 194" fill="none" xmlns="http://www.w3.org/2000/svg">
<g clip-path="url(#clip0_14837_331880)">
<path d="M98.5515 79.5477C92.3443 79.5614 86.2726 77.7313 81.1049 74.2891C75.9372 70.8469 71.9059 65.9469 69.521 60.21C67.1362 54.4732 66.5051 48.1573 67.7076 42.0612C68.9102 35.9652 71.8923 30.3633 76.2766 25.9646C80.6609 21.5659 86.2501 18.5679 92.337 17.3506C98.4239 16.1333 104.735 16.7515 110.471 19.1262C116.207 21.501 121.11 25.5256 124.56 30.6913C128.01 35.8569 129.852 41.9309 129.852 48.1448C129.833 56.4557 126.532 64.4223 120.668 70.3055C114.804 76.1887 106.853 79.5112 98.5515 79.5477ZM98.5515 22.0684C93.38 22.0547 88.3208 23.5782 84.0152 26.4459C79.7095 29.3136 76.3511 33.396 74.3658 38.1764C72.3804 42.9567 71.8576 48.2196 72.8632 53.2978C73.8687 58.376 76.3575 63.0411 80.0143 66.7018C83.6711 70.3625 88.3312 72.854 93.4039 73.8606C98.4767 74.8672 103.734 74.3439 108.509 72.3564C113.284 70.3689 117.363 67.0069 120.228 62.6967C123.092 58.3864 124.614 53.3218 124.6 48.1448C124.582 41.2344 121.832 34.6125 116.951 29.7262C112.07 24.8398 105.454 22.0866 98.5515 22.0684Z" fill="white"/>
<path d="M51.2226 116.275H50.186L49.3569 115.652L44.0364 111.294C42.3781 109.98 42.6544 107.974 44.7964 105.277L65.5248 79.8227C67.6667 77.1251 68.9797 77.125 69.5324 77.125H70.4307L71.2598 77.7477L76.6494 82.1054C77.2248 82.6021 77.5935 83.2963 77.683 84.0516C77.7725 84.8069 77.5765 85.5684 77.1331 86.1861C76.7784 86.9056 76.3375 87.5794 75.8203 88.1923L55.0918 113.577C52.9499 116.275 51.7061 116.275 51.1534 116.275M48.9423 108.528L51.0842 110.257L71.8127 84.8719L69.7399 83.1427L48.9423 108.528Z" fill="white"/>
<path d="M78.8405 69.4541L70.3301 79.4609L74.3285 82.8687L82.8389 72.8619L78.8405 69.4541Z" fill="white"/>
<path d="M84.734 43.7844L79.6211 42.4702C80.7395 39.1168 82.7203 36.1178 85.3645 33.7743C88.0087 31.4308 91.223 29.8256 94.6837 29.1207C97.5352 28.4958 100.487 28.4808 103.344 29.0768C106.202 29.6728 108.902 30.8663 111.267 32.5791L108.019 36.7295C106.278 35.5126 104.31 34.6589 102.233 34.2193C100.156 33.7796 98.0113 33.7629 95.9274 34.1703C93.3895 34.665 91.0235 35.8112 89.0613 37.4966C87.0991 39.182 85.6081 41.3485 84.734 43.7844Z" fill="white"/>
<path d="M172.059 124.989C172.065 127.203 170.272 129 168.059 129H55.5684C53.3592 129 51.5684 127.209 51.5684 125V120.835C51.5684 119.385 52.7439 118.21 54.194 118.21C55.644 118.21 56.8196 119.385 56.8196 120.835V120.976C56.8196 122.504 58.0583 123.743 59.5863 123.743H162.74C164.953 123.743 166.745 121.947 166.74 119.734L166.482 9.24751C166.477 7.04202 164.688 5.25684 162.482 5.25684H60.8196C58.6104 5.25684 56.8196 7.0477 56.8196 9.25684V83.628C56.8196 85.0781 55.644 86.2536 54.194 86.2536C52.7439 86.2536 51.5684 85.0781 51.5684 83.628V4C51.5684 1.79086 53.3592 0 55.5684 0H167.735C169.94 0 171.729 1.78434 171.735 3.98929L172.059 124.989Z" fill="white"/>
<path d="M151.131 100.016H81.144C79.6924 100.016 78.5156 101.192 78.5156 102.644C78.5156 104.096 79.6924 105.272 81.144 105.272H151.131C152.583 105.272 153.76 104.096 153.76 102.644C153.76 101.192 152.583 100.016 151.131 100.016Z" fill="white"/>
<path d="M151.13 82.3828H88.2593C86.8076 82.3828 85.6309 83.5596 85.6309 85.0112C85.6309 86.4629 86.8076 87.6397 88.2593 87.6397H151.13C152.582 87.6397 153.758 86.4629 153.758 85.0112C153.758 83.5596 152.582 82.3828 151.13 82.3828Z" fill="white"/>
</g>
<path d="M9.03734 157.27L5.81734 163.472V167H4.22134V163.472L0.987344 157.27H2.76534L5.01934 162.044L7.27334 157.27H9.03734ZM13.6499 167.126C12.9219 167.126 12.2639 166.963 11.6759 166.636C11.0879 166.3 10.6259 165.833 10.2899 165.236C9.95391 164.629 9.78591 163.929 9.78591 163.136C9.78591 162.352 9.95857 161.657 10.3039 161.05C10.6492 160.443 11.1206 159.977 11.7179 159.65C12.3152 159.323 12.9826 159.16 13.7199 159.16C14.4572 159.16 15.1246 159.323 15.7219 159.65C16.3192 159.977 16.7906 160.443 17.1359 161.05C17.4812 161.657 17.6539 162.352 17.6539 163.136C17.6539 163.92 17.4766 164.615 17.1219 165.222C16.7672 165.829 16.2819 166.3 15.6659 166.636C15.0592 166.963 14.3872 167.126 13.6499 167.126ZM13.6499 165.74C14.0606 165.74 14.4432 165.642 14.7979 165.446C15.1619 165.25 15.4559 164.956 15.6799 164.564C15.9039 164.172 16.0159 163.696 16.0159 163.136C16.0159 162.576 15.9086 162.105 15.6939 161.722C15.4792 161.33 15.1946 161.036 14.8399 160.84C14.4852 160.644 14.1026 160.546 13.6919 160.546C13.2812 160.546 12.8986 160.644 12.5439 160.84C12.1986 161.036 11.9232 161.33 11.7179 161.722C11.5126 162.105 11.4099 162.576 11.4099 163.136C11.4099 163.967 11.6199 164.611 12.0399 165.068C12.4692 165.516 13.0059 165.74 13.6499 165.74ZM26.2176 159.286V167H24.6216V166.09C24.3696 166.407 24.0383 166.659 23.6276 166.846C23.2263 167.023 22.797 167.112 22.3396 167.112C21.733 167.112 21.187 166.986 20.7016 166.734C20.2256 166.482 19.8476 166.109 19.5676 165.614C19.297 165.119 19.1616 164.522 19.1616 163.822V159.286H20.7436V163.584C20.7436 164.275 20.9163 164.807 21.2616 165.18C21.607 165.544 22.0783 165.726 22.6756 165.726C23.273 165.726 23.7443 165.544 24.0896 165.18C24.4443 164.807 24.6216 164.275 24.6216 163.584V159.286H26.2176ZM29.9194 160.406C30.1528 160.014 30.4608 159.711 30.8434 159.496C31.2354 159.272 31.6974 159.16 32.2294 159.16V160.812H31.8234C31.1981 160.812 30.7221 160.971 30.3954 161.288C30.0781 161.605 29.9194 162.156 29.9194 162.94V167H28.3234V159.286H29.9194V160.406ZM43.1992 165.012H39.1252L38.4252 167H36.7592L40.2452 157.256H42.0932L45.5792 167H43.8992L43.1992 165.012ZM42.7512 163.71L41.1692 159.188L39.5732 163.71H42.7512ZM46.5629 163.136C46.5629 162.343 46.7216 161.647 47.0389 161.05C47.3656 160.443 47.8136 159.977 48.3829 159.65C48.9523 159.323 49.6056 159.16 50.3429 159.16C51.2763 159.16 52.0463 159.384 52.6529 159.832C53.2689 160.271 53.6843 160.901 53.8989 161.722H52.1769C52.0369 161.339 51.8129 161.041 51.5049 160.826C51.1969 160.611 50.8096 160.504 50.3429 160.504C49.6896 160.504 49.1669 160.737 48.7749 161.204C48.3923 161.661 48.2009 162.305 48.2009 163.136C48.2009 163.967 48.3923 164.615 48.7749 165.082C49.1669 165.549 49.6896 165.782 50.3429 165.782C51.2669 165.782 51.8783 165.376 52.1769 164.564H53.8989C53.6749 165.348 53.2549 165.973 52.6389 166.44C52.0229 166.897 51.2576 167.126 50.3429 167.126C49.6056 167.126 48.9523 166.963 48.3829 166.636C47.8136 166.3 47.3656 165.833 47.0389 165.236C46.7216 164.629 46.5629 163.929 46.5629 163.136ZM54.9575 163.136C54.9575 162.343 55.1161 161.647 55.4335 161.05C55.7601 160.443 56.2081 159.977 56.7775 159.65C57.3468 159.323 58.0001 159.16 58.7375 159.16C59.6708 159.16 60.4408 159.384 61.0475 159.832C61.6635 160.271 62.0788 160.901 62.2935 161.722H60.5715C60.4315 161.339 60.2075 161.041 59.8995 160.826C59.5915 160.611 59.2041 160.504 58.7375 160.504C58.0841 160.504 57.5615 160.737 57.1695 161.204C56.7868 161.661 56.5955 162.305 56.5955 163.136C56.5955 163.967 56.7868 164.615 57.1695 165.082C57.5615 165.549 58.0841 165.782 58.7375 165.782C59.6615 165.782 60.2728 165.376 60.5715 164.564H62.2935C62.0695 165.348 61.6495 165.973 61.0335 166.44C60.4175 166.897 59.6521 167.126 58.7375 167.126C58.0001 167.126 57.3468 166.963 56.7775 166.636C56.2081 166.3 55.7601 165.833 55.4335 165.236C55.1161 164.629 54.9575 163.929 54.9575 163.136ZM67.23 167.126C66.502 167.126 65.844 166.963 65.256 166.636C64.668 166.3 64.206 165.833 63.87 165.236C63.534 164.629 63.366 163.929 63.366 163.136C63.366 162.352 63.5387 161.657 63.884 161.05C64.2293 160.443 64.7007 159.977 65.298 159.65C65.8953 159.323 66.5627 159.16 67.3 159.16C68.0373 159.16 68.7047 159.323 69.302 159.65C69.8993 159.977 70.3707 160.443 70.716 161.05C71.0613 161.657 71.234 162.352 71.234 163.136C71.234 163.92 71.0567 164.615 70.702 165.222C70.3473 165.829 69.862 166.3 69.246 166.636C68.6393 166.963 67.9673 167.126 67.23 167.126ZM67.23 165.74C67.6407 165.74 68.0233 165.642 68.378 165.446C68.742 165.25 69.036 164.956 69.26 164.564C69.484 164.172 69.596 163.696 69.596 163.136C69.596 162.576 69.4887 162.105 69.274 161.722C69.0593 161.33 68.7747 161.036 68.42 160.84C68.0653 160.644 67.6827 160.546 67.272 160.546C66.8613 160.546 66.4787 160.644 66.124 160.84C65.7787 161.036 65.5033 161.33 65.298 161.722C65.0927 162.105 64.99 162.576 64.99 163.136C64.99 163.967 65.2 164.611 65.62 165.068C66.0493 165.516 66.586 165.74 67.23 165.74ZM79.7977 159.286V167H78.2017V166.09C77.9497 166.407 77.6184 166.659 77.2077 166.846C76.8064 167.023 76.3771 167.112 75.9197 167.112C75.3131 167.112 74.7671 166.986 74.2817 166.734C73.8057 166.482 73.4277 166.109 73.1477 165.614C72.8771 165.119 72.7417 164.522 72.7417 163.822V159.286H74.3237V163.584C74.3237 164.275 74.4964 164.807 74.8417 165.18C75.1871 165.544 75.6584 165.726 76.2557 165.726C76.8531 165.726 77.3244 165.544 77.6697 165.18C78.0244 164.807 78.2017 164.275 78.2017 163.584V159.286H79.7977ZM85.7955 159.16C86.4022 159.16 86.9435 159.286 87.4195 159.538C87.9048 159.79 88.2828 160.163 88.5535 160.658C88.8242 161.153 88.9595 161.75 88.9595 162.45V167H87.3775V162.688C87.3775 161.997 87.2048 161.47 86.8595 161.106C86.5142 160.733 86.0428 160.546 85.4455 160.546C84.8482 160.546 84.3722 160.733 84.0175 161.106C83.6722 161.47 83.4995 161.997 83.4995 162.688V167H81.9035V159.286H83.4995V160.168C83.7608 159.851 84.0922 159.603 84.4935 159.426C84.9042 159.249 85.3382 159.16 85.7955 159.16ZM92.8573 160.588V164.858C92.8573 165.147 92.9226 165.357 93.0533 165.488C93.1933 165.609 93.4266 165.67 93.7533 165.67H94.7333V167H93.4733C92.7546 167 92.204 166.832 91.8213 166.496C91.4386 166.16 91.2473 165.614 91.2473 164.858V160.588H90.3373V159.286H91.2473V157.368H92.8573V159.286H94.7333V160.588H92.8573ZM103.831 159.16C104.419 159.16 104.942 159.286 105.399 159.538C105.866 159.79 106.23 160.163 106.491 160.658C106.762 161.153 106.897 161.75 106.897 162.45V167H105.315V162.688C105.315 161.997 105.142 161.47 104.797 161.106C104.452 160.733 103.98 160.546 103.383 160.546C102.786 160.546 102.31 160.733 101.955 161.106C101.61 161.47 101.437 161.997 101.437 162.688V167H99.841V156.64H101.437V160.182C101.708 159.855 102.048 159.603 102.459 159.426C102.879 159.249 103.336 159.16 103.831 159.16ZM108.401 163.108C108.401 162.333 108.559 161.647 108.877 161.05C109.203 160.453 109.642 159.991 110.193 159.664C110.753 159.328 111.369 159.16 112.041 159.16C112.647 159.16 113.175 159.281 113.623 159.524C114.08 159.757 114.444 160.051 114.715 160.406V159.286H116.325V167H114.715V165.852C114.444 166.216 114.075 166.519 113.609 166.762C113.142 167.005 112.61 167.126 112.013 167.126C111.35 167.126 110.743 166.958 110.193 166.622C109.642 166.277 109.203 165.801 108.877 165.194C108.559 164.578 108.401 163.883 108.401 163.108ZM114.715 163.136C114.715 162.604 114.603 162.142 114.379 161.75C114.164 161.358 113.879 161.059 113.525 160.854C113.17 160.649 112.787 160.546 112.377 160.546C111.966 160.546 111.583 160.649 111.229 160.854C110.874 161.05 110.585 161.344 110.361 161.736C110.146 162.119 110.039 162.576 110.039 163.108C110.039 163.64 110.146 164.107 110.361 164.508C110.585 164.909 110.874 165.217 111.229 165.432C111.593 165.637 111.975 165.74 112.377 165.74C112.787 165.74 113.17 165.637 113.525 165.432C113.879 165.227 114.164 164.928 114.379 164.536C114.603 164.135 114.715 163.668 114.715 163.136ZM121.221 167.126C120.614 167.126 120.068 167.019 119.583 166.804C119.107 166.58 118.729 166.281 118.449 165.908C118.169 165.525 118.02 165.101 118.001 164.634H119.653C119.681 164.961 119.835 165.236 120.115 165.46C120.404 165.675 120.764 165.782 121.193 165.782C121.641 165.782 121.986 165.698 122.229 165.53C122.481 165.353 122.607 165.129 122.607 164.858C122.607 164.569 122.467 164.354 122.187 164.214C121.916 164.074 121.482 163.92 120.885 163.752C120.306 163.593 119.835 163.439 119.471 163.29C119.107 163.141 118.79 162.912 118.519 162.604C118.258 162.296 118.127 161.89 118.127 161.386C118.127 160.975 118.248 160.602 118.491 160.266C118.734 159.921 119.079 159.65 119.527 159.454C119.984 159.258 120.507 159.16 121.095 159.16C121.972 159.16 122.677 159.384 123.209 159.832C123.75 160.271 124.04 160.873 124.077 161.638H122.481C122.453 161.293 122.313 161.017 122.061 160.812C121.809 160.607 121.468 160.504 121.039 160.504C120.619 160.504 120.297 160.583 120.073 160.742C119.849 160.901 119.737 161.111 119.737 161.372C119.737 161.577 119.812 161.75 119.961 161.89C120.11 162.03 120.292 162.142 120.507 162.226C120.722 162.301 121.039 162.399 121.459 162.52C122.019 162.669 122.476 162.823 122.831 162.982C123.195 163.131 123.508 163.355 123.769 163.654C124.03 163.953 124.166 164.349 124.175 164.844C124.175 165.283 124.054 165.675 123.811 166.02C123.568 166.365 123.223 166.636 122.775 166.832C122.336 167.028 121.818 167.126 121.221 167.126ZM133.428 159.16C134.035 159.16 134.576 159.286 135.052 159.538C135.538 159.79 135.916 160.163 136.186 160.658C136.457 161.153 136.592 161.75 136.592 162.45V167H135.01V162.688C135.01 161.997 134.838 161.47 134.492 161.106C134.147 160.733 133.676 160.546 133.078 160.546C132.481 160.546 132.005 160.733 131.65 161.106C131.305 161.47 131.132 161.997 131.132 162.688V167H129.536V159.286H131.132V160.168C131.394 159.851 131.725 159.603 132.126 159.426C132.537 159.249 132.971 159.16 133.428 159.16ZM141.974 167.126C141.246 167.126 140.588 166.963 140 166.636C139.412 166.3 138.95 165.833 138.614 165.236C138.278 164.629 138.11 163.929 138.11 163.136C138.11 162.352 138.283 161.657 138.628 161.05C138.973 160.443 139.445 159.977 140.042 159.65C140.639 159.323 141.307 159.16 142.044 159.16C142.781 159.16 143.449 159.323 144.046 159.65C144.643 159.977 145.115 160.443 145.46 161.05C145.805 161.657 145.978 162.352 145.978 163.136C145.978 163.92 145.801 164.615 145.446 165.222C145.091 165.829 144.606 166.3 143.99 166.636C143.383 166.963 142.711 167.126 141.974 167.126ZM141.974 165.74C142.385 165.74 142.767 165.642 143.122 165.446C143.486 165.25 143.78 164.956 144.004 164.564C144.228 164.172 144.34 163.696 144.34 163.136C144.34 162.576 144.233 162.105 144.018 161.722C143.803 161.33 143.519 161.036 143.164 160.84C142.809 160.644 142.427 160.546 142.016 160.546C141.605 160.546 141.223 160.644 140.868 160.84C140.523 161.036 140.247 161.33 140.042 161.722C139.837 162.105 139.734 162.576 139.734 163.136C139.734 163.967 139.944 164.611 140.364 165.068C140.793 165.516 141.33 165.74 141.974 165.74ZM149.418 160.588V164.858C149.418 165.147 149.483 165.357 149.614 165.488C149.754 165.609 149.987 165.67 150.314 165.67H151.294V167H150.034C149.315 167 148.765 166.832 148.382 166.496C147.999 166.16 147.808 165.614 147.808 164.858V160.588H146.898V159.286H147.808V157.368H149.418V159.286H151.294V160.588H149.418ZM155.87 163.136C155.87 162.343 156.028 161.647 156.346 161.05C156.672 160.443 157.12 159.977 157.69 159.65C158.259 159.323 158.912 159.16 159.65 159.16C160.583 159.16 161.353 159.384 161.96 159.832C162.576 160.271 162.991 160.901 163.206 161.722H161.484C161.344 161.339 161.12 161.041 160.812 160.826C160.504 160.611 160.116 160.504 159.65 160.504C158.996 160.504 158.474 160.737 158.082 161.204C157.699 161.661 157.508 162.305 157.508 163.136C157.508 163.967 157.699 164.615 158.082 165.082C158.474 165.549 158.996 165.782 159.65 165.782C160.574 165.782 161.185 165.376 161.484 164.564H163.206C162.982 165.348 162.562 165.973 161.946 166.44C161.33 166.897 160.564 167.126 159.65 167.126C158.912 167.126 158.259 166.963 157.69 166.636C157.12 166.3 156.672 165.833 156.346 165.236C156.028 164.629 155.87 163.929 155.87 163.136ZM166.392 160.406C166.625 160.014 166.933 159.711 167.316 159.496C167.708 159.272 168.17 159.16 168.702 159.16V160.812H168.296C167.671 160.812 167.195 160.971 166.868 161.288C166.551 161.605 166.392 162.156 166.392 162.94V167H164.796V159.286H166.392V160.406ZM177.239 162.954C177.239 163.243 177.22 163.505 177.183 163.738H171.289C171.336 164.354 171.564 164.849 171.975 165.222C172.386 165.595 172.89 165.782 173.487 165.782C174.346 165.782 174.952 165.423 175.307 164.704H177.029C176.796 165.413 176.371 165.997 175.755 166.454C175.148 166.902 174.392 167.126 173.487 167.126C172.75 167.126 172.087 166.963 171.499 166.636C170.92 166.3 170.463 165.833 170.127 165.236C169.8 164.629 169.637 163.929 169.637 163.136C169.637 162.343 169.796 161.647 170.113 161.05C170.44 160.443 170.892 159.977 171.471 159.65C172.059 159.323 172.731 159.16 173.487 159.16C174.215 159.16 174.864 159.319 175.433 159.636C176.002 159.953 176.446 160.401 176.763 160.98C177.08 161.549 177.239 162.207 177.239 162.954ZM175.573 162.45C175.564 161.862 175.354 161.391 174.943 161.036C174.532 160.681 174.024 160.504 173.417 160.504C172.866 160.504 172.395 160.681 172.003 161.036C171.611 161.381 171.378 161.853 171.303 162.45H175.573ZM178.278 163.108C178.278 162.333 178.436 161.647 178.754 161.05C179.08 160.453 179.519 159.991 180.07 159.664C180.63 159.328 181.246 159.16 181.918 159.16C182.524 159.16 183.052 159.281 183.5 159.524C183.957 159.757 184.321 160.051 184.592 160.406V159.286H186.202V167H184.592V165.852C184.321 166.216 183.952 166.519 183.486 166.762C183.019 167.005 182.487 167.126 181.89 167.126C181.227 167.126 180.62 166.958 180.07 166.622C179.519 166.277 179.08 165.801 178.754 165.194C178.436 164.578 178.278 163.883 178.278 163.108ZM184.592 163.136C184.592 162.604 184.48 162.142 184.256 161.75C184.041 161.358 183.756 161.059 183.402 160.854C183.047 160.649 182.664 160.546 182.254 160.546C181.843 160.546 181.46 160.649 181.106 160.854C180.751 161.05 180.462 161.344 180.238 161.736C180.023 162.119 179.916 162.576 179.916 163.108C179.916 163.64 180.023 164.107 180.238 164.508C180.462 164.909 180.751 165.217 181.106 165.432C181.47 165.637 181.852 165.74 182.254 165.74C182.664 165.74 183.047 165.637 183.402 165.432C183.756 165.227 184.041 164.928 184.256 164.536C184.48 164.135 184.592 163.668 184.592 163.136ZM190.16 160.588V164.858C190.16 165.147 190.225 165.357 190.356 165.488C190.496 165.609 190.729 165.67 191.056 165.67H192.036V167H190.776C190.057 167 189.507 166.832 189.124 166.496C188.741 166.16 188.55 165.614 188.55 164.858V160.588H187.64V159.286H188.55V157.368H190.16V159.286H192.036V160.588H190.16ZM200.577 162.954C200.577 163.243 200.558 163.505 200.521 163.738H194.627C194.674 164.354 194.902 164.849 195.313 165.222C195.724 165.595 196.228 165.782 196.825 165.782C197.684 165.782 198.29 165.423 198.645 164.704H200.367C200.134 165.413 199.709 165.997 199.093 166.454C198.486 166.902 197.73 167.126 196.825 167.126C196.088 167.126 195.425 166.963 194.837 166.636C194.258 166.3 193.801 165.833 193.465 165.236C193.138 164.629 192.975 163.929 192.975 163.136C192.975 162.343 193.134 161.647 193.451 161.05C193.778 160.443 194.23 159.977 194.809 159.65C195.397 159.323 196.069 159.16 196.825 159.16C197.553 159.16 198.202 159.319 198.771 159.636C199.34 159.953 199.784 160.401 200.101 160.98C200.418 161.549 200.577 162.207 200.577 162.954ZM198.911 162.45C198.902 161.862 198.692 161.391 198.281 161.036C197.87 160.681 197.362 160.504 196.755 160.504C196.204 160.504 195.733 160.681 195.341 161.036C194.949 161.381 194.716 161.853 194.641 162.45H198.911ZM201.616 163.108C201.616 162.333 201.774 161.647 202.092 161.05C202.418 160.453 202.857 159.991 203.408 159.664C203.968 159.328 204.588 159.16 205.27 159.16C205.774 159.16 206.268 159.272 206.754 159.496C207.248 159.711 207.64 160 207.93 160.364V156.64H209.54V167H207.93V165.838C207.668 166.211 207.304 166.519 206.838 166.762C206.38 167.005 205.853 167.126 205.256 167.126C204.584 167.126 203.968 166.958 203.408 166.622C202.857 166.277 202.418 165.801 202.092 165.194C201.774 164.578 201.616 163.883 201.616 163.108ZM207.93 163.136C207.93 162.604 207.818 162.142 207.594 161.75C207.379 161.358 207.094 161.059 206.74 160.854C206.385 160.649 206.002 160.546 205.592 160.546C205.181 160.546 204.798 160.649 204.444 160.854C204.089 161.05 203.8 161.344 203.576 161.736C203.361 162.119 203.254 162.576 203.254 163.108C203.254 163.64 203.361 164.107 203.576 164.508C203.8 164.909 204.089 165.217 204.444 165.432C204.808 165.637 205.19 165.74 205.592 165.74C206.002 165.74 206.385 165.637 206.74 165.432C207.094 165.227 207.379 164.928 207.594 164.536C207.818 164.135 207.93 163.668 207.93 163.136ZM49.058 184.108C49.058 183.333 49.2167 182.647 49.534 182.05C49.8607 181.453 50.2994 180.991 50.85 180.664C51.41 180.328 52.026 180.16 52.698 180.16C53.3047 180.16 53.832 180.281 54.28 180.524C54.7374 180.757 55.1014 181.051 55.372 181.406V180.286H56.982V188H55.372V186.852C55.1014 187.216 54.7327 187.519 54.266 187.762C53.7994 188.005 53.2674 188.126 52.67 188.126C52.0074 188.126 51.4007 187.958 50.85 187.622C50.2994 187.277 49.8607 186.801 49.534 186.194C49.2167 185.578 49.058 184.883 49.058 184.108ZM55.372 184.136C55.372 183.604 55.26 183.142 55.036 182.75C54.8214 182.358 54.5367 182.059 54.182 181.854C53.8274 181.649 53.4447 181.546 53.034 181.546C52.6234 181.546 52.2407 181.649 51.886 181.854C51.5314 182.05 51.242 182.344 51.018 182.736C50.8034 183.119 50.696 183.576 50.696 184.108C50.696 184.64 50.8034 185.107 51.018 185.508C51.242 185.909 51.5314 186.217 51.886 186.432C52.25 186.637 52.6327 186.74 53.034 186.74C53.4447 186.74 53.8274 186.637 54.182 186.432C54.5367 186.227 54.8214 185.928 55.036 185.536C55.26 185.135 55.372 184.668 55.372 184.136ZM62.9703 180.16C63.577 180.16 64.1183 180.286 64.5943 180.538C65.0797 180.79 65.4577 181.163 65.7283 181.658C65.999 182.153 66.1343 182.75 66.1343 183.45V188H64.5523V183.688C64.5523 182.997 64.3797 182.47 64.0343 182.106C63.689 181.733 63.2177 181.546 62.6203 181.546C62.023 181.546 61.547 181.733 61.1923 182.106C60.847 182.47 60.6743 182.997 60.6743 183.688V188H59.0783V180.286H60.6743V181.168C60.9357 180.851 61.267 180.603 61.6683 180.426C62.079 180.249 62.513 180.16 62.9703 180.16ZM75.1141 180.286L70.3821 191.626H68.7301L70.2981 187.874L67.2601 180.286H69.0381L71.2081 186.166L73.4621 180.286H75.1141ZM85.8213 186.012H81.7473L81.0473 188H79.3813L82.8673 178.256H84.7153L88.2013 188H86.5213L85.8213 186.012ZM85.3733 184.71L83.7913 180.188L82.1953 184.71H85.3733ZM96.521 181.168C96.521 181.663 96.4043 182.129 96.171 182.568C95.9377 183.007 95.5643 183.366 95.051 183.646C94.5377 183.917 93.8797 184.052 93.077 184.052H91.313V188H89.717V178.27H93.077C93.8237 178.27 94.4537 178.401 94.967 178.662C95.4897 178.914 95.877 179.259 96.129 179.698C96.3903 180.137 96.521 180.627 96.521 181.168ZM93.077 182.75C93.6837 182.75 94.1363 182.615 94.435 182.344C94.7337 182.064 94.883 181.672 94.883 181.168C94.883 180.104 94.281 179.572 93.077 179.572H91.313V182.75H93.077ZM99.6392 178.27V188H98.0432V178.27H99.6392ZM110.733 188L106.967 183.646V188H105.371V178.27H106.967V182.708L110.747 178.27H112.749L108.521 183.142L112.819 188H110.733ZM121.301 183.954C121.301 184.243 121.282 184.505 121.245 184.738H115.351C115.397 185.354 115.626 185.849 116.037 186.222C116.447 186.595 116.951 186.782 117.549 186.782C118.407 186.782 119.014 186.423 119.369 185.704H121.091C120.857 186.413 120.433 186.997 119.817 187.454C119.21 187.902 118.454 188.126 117.549 188.126C116.811 188.126 116.149 187.963 115.561 187.636C114.982 187.3 114.525 186.833 114.189 186.236C113.862 185.629 113.699 184.929 113.699 184.136C113.699 183.343 113.857 182.647 114.175 182.05C114.501 181.443 114.954 180.977 115.533 180.65C116.121 180.323 116.793 180.16 117.549 180.16C118.277 180.16 118.925 180.319 119.495 180.636C120.064 180.953 120.507 181.401 120.825 181.98C121.142 182.549 121.301 183.207 121.301 183.954ZM119.635 183.45C119.625 182.862 119.415 182.391 119.005 182.036C118.594 181.681 118.085 181.504 117.479 181.504C116.928 181.504 116.457 181.681 116.065 182.036C115.673 182.381 115.439 182.853 115.365 183.45H119.635ZM129.815 180.286L125.083 191.626H123.431L124.999 187.874L121.961 180.286H123.739L125.909 186.166L128.163 180.286H129.815ZM133.82 188.126C133.213 188.126 132.667 188.019 132.182 187.804C131.706 187.58 131.328 187.281 131.048 186.908C130.768 186.525 130.618 186.101 130.6 185.634H132.252C132.28 185.961 132.434 186.236 132.714 186.46C133.003 186.675 133.362 186.782 133.792 186.782C134.24 186.782 134.585 186.698 134.828 186.53C135.08 186.353 135.206 186.129 135.206 185.858C135.206 185.569 135.066 185.354 134.786 185.214C134.515 185.074 134.081 184.92 133.484 184.752C132.905 184.593 132.434 184.439 132.07 184.29C131.706 184.141 131.388 183.912 131.118 183.604C130.856 183.296 130.726 182.89 130.726 182.386C130.726 181.975 130.847 181.602 131.09 181.266C131.332 180.921 131.678 180.65 132.126 180.454C132.583 180.258 133.106 180.16 133.694 180.16C134.571 180.16 135.276 180.384 135.808 180.832C136.349 181.271 136.638 181.873 136.676 182.638H135.08C135.052 182.293 134.912 182.017 134.66 181.812C134.408 181.607 134.067 181.504 133.638 181.504C133.218 181.504 132.896 181.583 132.672 181.742C132.448 181.901 132.336 182.111 132.336 182.372C132.336 182.577 132.41 182.75 132.56 182.89C132.709 183.03 132.891 183.142 133.106 183.226C133.32 183.301 133.638 183.399 134.058 183.52C134.618 183.669 135.075 183.823 135.43 183.982C135.794 184.131 136.106 184.355 136.368 184.654C136.629 184.953 136.764 185.349 136.774 185.844C136.774 186.283 136.652 186.675 136.41 187.02C136.167 187.365 135.822 187.636 135.374 187.832C134.935 188.028 134.417 188.126 133.82 188.126ZM149.079 180.286L144.347 191.626H142.695L144.263 187.874L141.225 180.286H143.003L145.173 186.166L147.427 180.286H149.079ZM157.353 183.954C157.353 184.243 157.335 184.505 157.297 184.738H151.403C151.45 185.354 151.679 185.849 152.089 186.222C152.5 186.595 153.004 186.782 153.601 186.782C154.46 186.782 155.067 186.423 155.421 185.704H157.143C156.91 186.413 156.485 186.997 155.869 187.454C155.263 187.902 154.507 188.126 153.601 188.126C152.864 188.126 152.201 187.963 151.613 187.636C151.035 187.3 150.577 186.833 150.241 186.236C149.915 185.629 149.751 184.929 149.751 184.136C149.751 183.343 149.91 182.647 150.227 182.05C150.554 181.443 151.007 180.977 151.585 180.65C152.173 180.323 152.845 180.16 153.601 180.16C154.329 180.16 154.978 180.319 155.547 180.636C156.117 180.953 156.56 181.401 156.877 181.98C157.195 182.549 157.353 183.207 157.353 183.954ZM155.687 183.45C155.678 182.862 155.468 182.391 155.057 182.036C154.647 181.681 154.138 181.504 153.531 181.504C152.981 181.504 152.509 181.681 152.117 182.036C151.725 182.381 151.492 182.853 151.417 183.45H155.687ZM160.786 181.588V185.858C160.786 186.147 160.851 186.357 160.982 186.488C161.122 186.609 161.355 186.67 161.682 186.67H162.662V188H161.402C160.683 188 160.133 187.832 159.75 187.496C159.367 187.16 159.176 186.614 159.176 185.858V181.588H158.266V180.286H159.176V178.368H160.786V180.286H162.662V181.588H160.786ZM164.777 188.098C164.488 188.098 164.245 188 164.049 187.804C163.853 187.608 163.755 187.365 163.755 187.076C163.755 186.787 163.853 186.544 164.049 186.348C164.245 186.152 164.488 186.054 164.777 186.054C165.057 186.054 165.295 186.152 165.491 186.348C165.687 186.544 165.785 186.787 165.785 187.076C165.785 187.365 165.687 187.608 165.491 187.804C165.295 188 165.057 188.098 164.777 188.098Z" fill="white"/>
<defs>
<clipPath id="clip0_14837_331880">
<rect width="129" height="129" fill="white" transform="translate(43)"/>
</clipPath>
</defs>
</svg>
