<svg width="19" height="20" viewBox="0 0 19 20" fill="none" xmlns="http://www.w3.org/2000/svg">
<path d="M2.7713 2.98302L3.1363 2.98302L3.1363 2.98301L2.7713 2.98302ZM4.35336 1.39342V1.02841L4.35163 1.02842L4.35336 1.39342ZM9.82286 4.99114C9.62127 4.99114 9.45786 5.15456 9.45786 5.35614C9.45786 5.55773 9.62127 5.72114 9.82286 5.72114V4.99114ZM13.7781 5.72114C13.9796 5.72114 14.1431 5.55773 14.1431 5.35614C14.1431 5.15456 13.9796 4.99114 13.7781 4.99114V5.72114ZM9.82286 6.57322C9.62127 6.57322 9.45786 6.73664 9.45786 6.93822C9.45786 7.13981 9.62127 7.30322 9.82286 7.30322V6.57322ZM12.196 7.30322C12.3976 7.30322 12.561 7.13981 12.561 6.93822C12.561 6.73664 12.3976 6.57322 12.196 6.57322V7.30322ZM9.82286 8.95387C9.62127 8.95387 9.45786 9.11729 9.45786 9.31887C9.45786 9.52046 9.62127 9.68387 9.82286 9.68387V8.95387ZM13.7781 9.68387C13.9796 9.68387 14.1431 9.52046 14.1431 9.31887C14.1431 9.11729 13.9796 8.95387 13.7781 8.95387V9.68387ZM9.82286 10.536C9.62127 10.536 9.45786 10.6994 9.45786 10.901C9.45786 11.1025 9.62127 11.266 9.82286 11.266V10.536ZM12.196 11.266C12.3976 11.266 12.561 11.1025 12.561 10.901C12.561 10.6994 12.3976 10.536 12.196 10.536V11.266ZM9.82286 12.9091C9.62127 12.9091 9.45786 13.0725 9.45786 13.2741C9.45786 13.4757 9.62127 13.6391 9.82286 13.6391V12.9091ZM13.7781 13.6391C13.9796 13.6391 14.1431 13.4757 14.1431 13.2741C14.1431 13.0725 13.9796 12.9091 13.7781 12.9091V13.6391ZM9.82286 14.4911C9.62127 14.4911 9.45786 14.6546 9.45786 14.8561C9.45786 15.0577 9.62127 15.2211 9.82286 15.2211V14.4911ZM12.196 15.2211C12.3976 15.2211 12.561 15.0577 12.561 14.8561C12.561 14.6546 12.3976 14.4911 12.196 14.4911V15.2211ZM1.98034 19.6099L1.98034 19.2449L1.97859 19.2449L1.98034 19.6099ZM0.390643 18.0203L0.755643 18.022V18.0203H0.390643ZM0.390643 17.2293V16.8643C0.189059 16.8643 0.025643 17.0277 0.025643 17.2293H0.390643ZM12.2713 17.2293H12.6363C12.6363 17.0277 12.4729 16.8643 12.2713 16.8643V17.2293ZM15.4355 2.9529H15.8005C15.8005 2.94452 15.8002 2.93614 15.7997 2.92779L15.4355 2.9529ZM18.6072 2.9529L18.243 2.92779C18.2425 2.93614 18.2422 2.94452 18.2422 2.9529L18.6072 2.9529ZM18.6072 3.70627V4.07127C18.8088 4.07127 18.9722 3.90785 18.9722 3.70627H18.6072ZM8.17493 9.93105C8.31747 9.78851 8.31747 9.5574 8.17493 9.41486C8.03238 9.27232 7.80128 9.27232 7.65874 9.41486L8.17493 9.93105ZM6.33475 11.255L6.07666 11.5131C6.2192 11.6557 6.45031 11.6557 6.59285 11.5131L6.33475 11.255ZM5.80181 10.2059C5.65927 10.0634 5.42816 10.0634 5.28562 10.2059C5.14308 10.3484 5.14308 10.5795 5.28562 10.7221L5.80181 10.2059ZM8.17554 13.5768C8.31774 13.4339 8.31719 13.2028 8.17431 13.0606C8.03143 12.9184 7.80033 12.9189 7.65813 13.0618L8.17554 13.5768ZM6.33475 14.9089L6.07544 15.1657C6.14388 15.2348 6.23707 15.2738 6.33432 15.2739C6.43158 15.274 6.52485 15.2353 6.59346 15.1664L6.33475 14.9089ZM5.80303 13.8534C5.66117 13.7102 5.43006 13.7091 5.28685 13.851C5.14363 13.9929 5.14254 14.224 5.2844 14.3672L5.80303 13.8534ZM7.57781 5.14519L7.57305 5.51016C7.57879 5.51023 7.58453 5.51017 7.59027 5.50998L7.57781 5.14519ZM6.54569 5.75542L6.22428 5.92839C6.28805 6.04688 6.41184 6.12068 6.5464 6.12042C6.68096 6.12016 6.80446 6.04589 6.86777 5.92715L6.54569 5.75542ZM5.50604 5.14519L5.49358 5.50998C5.49962 5.51018 5.50566 5.51024 5.51171 5.51015L5.50604 5.14519ZM4.35336 6.23005L3.98836 6.22039V6.23005H4.35336ZM6.54569 8.42992L6.42601 8.77474C6.50329 8.80156 6.58735 8.80165 6.66468 8.77498L6.54569 8.42992ZM8.73049 6.23005L9.09561 6.23005L9.09536 6.22039L8.73049 6.23005ZM3.1363 17.2293V2.98302H2.4063V17.2293H3.1363ZM3.1363 2.98301C3.1363 2.65925 3.26454 2.34864 3.49295 2.11913L2.97554 1.60417C2.611 1.97045 2.4063 2.46621 2.4063 2.98302L3.1363 2.98301ZM3.49295 2.11913C3.72137 1.88963 4.03132 1.75995 4.35509 1.75841L4.35163 1.02842C3.83483 1.03087 3.3401 1.23788 2.97554 1.60417L3.49295 2.11913ZM4.35336 1.75842H17.0025V1.02842H4.35336V1.75842ZM9.82286 5.72114H13.7781V4.99114H9.82286V5.72114ZM9.82286 7.30322H12.196V6.57322H9.82286V7.30322ZM9.82286 9.68387H13.7781V8.95387H9.82286V9.68387ZM9.82286 11.266H12.196V10.536H9.82286V11.266ZM9.82286 13.6391H13.7781V12.9091H9.82286V13.6391ZM9.82286 15.2211H12.196V14.4911H9.82286V15.2211ZM13.8534 19.2449H1.98034V19.9749H13.8534V19.2449ZM1.97859 19.2449C1.81776 19.2457 1.65836 19.2146 1.50967 19.1534L1.23192 19.8285C1.46986 19.9264 1.72485 19.9761 1.98208 19.9749L1.97859 19.2449ZM1.50967 19.1534C1.36098 19.0922 1.22586 19.0022 1.11214 18.8884L0.595956 19.4046C0.777852 19.5865 0.993996 19.7306 1.23192 19.8285L1.50967 19.1534ZM1.11214 18.8884C0.998424 18.7747 0.90837 18.6396 0.847193 18.4909L0.172096 18.7687C0.269984 19.0066 0.41406 19.2227 0.595956 19.4046L1.11214 18.8884ZM0.847193 18.4909C0.785995 18.3422 0.754871 18.1828 0.755639 18.022L0.0256472 18.0186C0.024419 18.2759 0.07423 18.5308 0.172096 18.7687L0.847193 18.4909ZM0.755643 18.0203V17.2293H0.025643V18.0203H0.755643ZM0.390643 17.5943H12.2713V16.8643H0.390643V17.5943ZM11.9063 17.2293V18.0203H12.6363V17.2293H11.9063ZM11.9063 18.0203C11.9063 18.5367 12.1115 19.032 12.4766 19.3971L12.9928 18.8809C12.7646 18.6527 12.6363 18.3431 12.6363 18.0203H11.9063ZM12.4766 19.3971C12.8418 19.7622 13.337 19.9674 13.8534 19.9674V19.2374C13.5306 19.2374 13.2211 19.1092 12.9928 18.8809L12.4766 19.3971ZM13.8534 19.9674C14.3697 19.9674 14.865 19.7623 15.2302 19.3971L14.714 18.8809C14.4858 19.1091 14.1762 19.2374 13.8534 19.2374V19.9674ZM15.2302 19.3971C15.5953 19.032 15.8005 18.5367 15.8005 18.0203H15.0705C15.0705 18.3431 14.9423 18.6527 14.714 18.8809L15.2302 19.3971ZM15.8005 18.0203V2.9529H15.0705V18.0203H15.8005ZM15.7997 2.92779C15.7881 2.7602 15.8111 2.59208 15.8672 2.4339L15.1793 2.18973C15.0896 2.44237 15.0529 2.7107 15.0714 2.97801L15.7997 2.92779ZM15.8672 2.4339C15.9234 2.27568 16.0115 2.13066 16.1261 2.00789L15.5925 1.50978C15.4096 1.70568 15.2689 1.93713 15.1793 2.18973L15.8672 2.4339ZM16.1261 2.00789C16.2407 1.88514 16.3793 1.78728 16.5333 1.72036L16.2423 1.05084C15.9965 1.15765 15.7753 1.31385 15.5925 1.50978L16.1261 2.00789ZM16.5333 1.72036C16.6873 1.65344 16.8534 1.61891 17.0213 1.61891V0.888906C16.7533 0.888906 16.4882 0.944024 16.2423 1.05084L16.5333 1.72036ZM17.0213 1.61891C17.1892 1.61891 17.3553 1.65343 17.5093 1.72036L17.8003 1.05084C17.5545 0.944032 17.2894 0.888906 17.0213 0.888906V1.61891ZM17.5093 1.72036C17.6634 1.7873 17.802 1.88518 17.9166 2.00789L18.4502 1.50978C18.2673 1.31381 18.046 1.15762 17.8003 1.05084L17.5093 1.72036ZM17.9166 2.00789C18.0311 2.1306 18.1192 2.2756 18.1754 2.4339L18.8633 2.18973C18.7737 1.93721 18.6332 1.70575 18.4502 1.50978L17.9166 2.00789ZM18.1754 2.4339C18.2316 2.59218 18.2546 2.7603 18.243 2.92779L18.9713 2.97801C18.9898 2.7106 18.953 2.44227 18.8633 2.18973L18.1754 2.4339ZM18.2422 2.9529V3.70627H18.9722V2.9529H18.2422ZM18.6072 3.34127H15.4355V4.07127H18.6072V3.34127ZM7.65874 9.41486L6.07666 10.9969L6.59285 11.5131L8.17493 9.93105L7.65874 9.41486ZM6.59285 10.9969L5.80181 10.2059L5.28562 10.7221L6.07666 11.5131L6.59285 10.9969ZM7.65813 13.0618L6.07605 14.6514L6.59346 15.1664L8.17554 13.5768L7.65813 13.0618ZM6.59407 14.652L5.80303 13.8534L5.2844 14.3672L6.07544 15.1657L6.59407 14.652ZM7.58256 4.78022C7.30409 4.77659 7.03006 4.84969 6.79041 4.99138L7.16194 5.61977C7.28638 5.5462 7.4286 5.50828 7.57305 5.51016L7.58256 4.78022ZM6.79041 4.99138C6.55077 5.13307 6.35465 5.33794 6.22362 5.58369L6.86777 5.92715C6.93574 5.79967 7.03751 5.69334 7.16194 5.61977L6.79041 4.99138ZM6.8671 5.58244C6.73465 5.33632 6.53712 5.13138 6.29611 4.98992L5.92658 5.61948C6.05227 5.69326 6.15524 5.80011 6.22428 5.92839L6.8671 5.58244ZM6.29611 4.98992C6.05511 4.84846 5.77985 4.77589 5.50037 4.78023L5.51171 5.51015C5.65737 5.50788 5.80089 5.54571 5.92658 5.61948L6.29611 4.98992ZM5.5185 4.7804C5.32324 4.77374 5.12869 4.80582 4.94598 4.87469L5.20347 5.55777C5.29614 5.52284 5.39472 5.5066 5.49358 5.50998L5.5185 4.7804ZM4.94598 4.87469C4.76324 4.94358 4.59591 5.04795 4.45368 5.18182L4.95399 5.71341C5.02606 5.64558 5.11085 5.59269 5.20347 5.55777L4.94598 4.87469ZM4.45368 5.18182C4.3115 5.31564 4.19712 5.47629 4.11726 5.6546L4.7835 5.95298C4.82393 5.86271 4.88188 5.78128 4.95399 5.71341L4.45368 5.18182ZM4.11726 5.6546C4.03745 5.83283 3.99365 6.02512 3.98849 6.22039L4.71823 6.2397C4.72085 6.14079 4.74303 6.04334 4.7835 5.95298L4.11726 5.6546ZM3.98836 6.23005C3.98836 7.1437 4.67789 7.78895 5.24526 8.17208C5.54083 8.37166 5.83384 8.52119 6.05157 8.62058C6.16094 8.67051 6.25258 8.70835 6.3177 8.73401C6.35029 8.74685 6.37633 8.75667 6.39473 8.76346C6.40393 8.76685 6.41122 8.76949 6.41648 8.77137C6.41911 8.77231 6.42123 8.77306 6.42282 8.77362C6.42362 8.77391 6.42428 8.77414 6.42482 8.77432C6.42508 8.77442 6.42532 8.7745 6.42551 8.77457C6.42561 8.7746 6.42574 8.77465 6.42579 8.77466C6.4259 8.7747 6.42601 8.77474 6.54569 8.42992C6.66538 8.0851 6.66547 8.08513 6.66555 8.08516C6.66557 8.08517 6.66564 8.08519 6.66567 8.0852C6.66574 8.08523 6.66577 8.08524 6.66577 8.08524C6.66577 8.08524 6.66564 8.08519 6.66539 8.0851C6.66487 8.08492 6.66385 8.08456 6.66233 8.08402C6.65929 8.08293 6.65428 8.08112 6.64742 8.07859C6.6337 8.07353 6.61264 8.0656 6.58528 8.05482C6.53051 8.03324 6.45087 8.0004 6.35471 7.9565C6.16138 7.86825 5.90631 7.73761 5.65379 7.56709C5.12499 7.21002 4.71836 6.75533 4.71836 6.23005H3.98836ZM6.54569 8.42992C6.66468 8.77498 6.66479 8.77494 6.66491 8.7749C6.66496 8.77489 6.66508 8.77484 6.66518 8.77481C6.66538 8.77474 6.66562 8.77466 6.66589 8.77456C6.66642 8.77438 6.66709 8.77415 6.66788 8.77387C6.66948 8.77331 6.6716 8.77256 6.67423 8.77163C6.67948 8.76976 6.68677 8.76714 6.69596 8.76377C6.71432 8.75703 6.7403 8.74728 6.77282 8.73453C6.83779 8.70905 6.9292 8.67146 7.03828 8.6218C7.25543 8.52296 7.54768 8.37406 7.84248 8.17482C8.40912 7.79184 9.09549 7.1466 9.09549 6.23005H8.36549C8.36549 6.75996 7.95945 7.21466 7.4337 7.57C7.1823 7.73992 6.92835 7.86977 6.73585 7.9574C6.64011 8.00098 6.56083 8.03354 6.50632 8.05491C6.4791 8.06559 6.45814 8.07344 6.4445 8.07844C6.43769 8.08094 6.43271 8.08273 6.42969 8.0838C6.42819 8.08434 6.42717 8.08469 6.42667 8.08487C6.42642 8.08496 6.42629 8.085 6.4263 8.085C6.4263 8.085 6.42634 8.08499 6.4264 8.08496C6.42644 8.08495 6.42651 8.08493 6.42653 8.08492C6.42661 8.08489 6.4267 8.08486 6.54569 8.42992ZM9.09536 6.22039C9.09019 6.02512 9.0464 5.83283 8.96658 5.6546L8.30035 5.95298C8.34081 6.04334 8.363 6.14079 8.36561 6.2397L9.09536 6.22039ZM8.96658 5.6546C8.88673 5.4763 8.77235 5.31564 8.63017 5.18182L8.12985 5.71341C8.20197 5.78128 8.25992 5.86271 8.30035 5.95298L8.96658 5.6546ZM8.63017 5.18182C8.48793 5.04795 8.32061 4.94358 8.13786 4.87469L7.88037 5.55777C7.973 5.59269 8.05779 5.64558 8.12985 5.71341L8.63017 5.18182ZM8.13786 4.87469C7.95516 4.80582 7.7606 4.77374 7.56535 4.7804L7.59027 5.50998C7.68913 5.5066 7.78771 5.52284 7.88037 5.55777L8.13786 4.87469Z" fill="#717A8B"/>
</svg>
