<svg width="191" height="40" viewBox="0 0 191 40" fill="none" xmlns="http://www.w3.org/2000/svg">
<path d="M5.66 12L3.17 7.725H1.52V12H0.155V1.545H3.53C4.32 1.545 4.985 1.68 5.525 1.95C6.075 2.22 6.485 2.585 6.755 3.045C7.025 3.505 7.16 4.03 7.16 4.62C7.16 5.34 6.95 5.975 6.53 6.525C6.12 7.075 5.5 7.44 4.67 7.62L7.295 12H5.66ZM1.52 6.63H3.53C4.27 6.63 4.825 6.45 5.195 6.09C5.565 5.72 5.75 5.23 5.75 4.62C5.75 4 5.565 3.52 5.195 3.18C4.835 2.84 4.28 2.67 3.53 2.67H1.52V6.63ZM16.781 7.575C16.781 7.835 16.766 8.11 16.736 8.4H10.166C10.216 9.21 10.491 9.845 10.991 10.305C11.501 10.755 12.116 10.98 12.836 10.98C13.426 10.98 13.916 10.845 14.306 10.575C14.706 10.295 14.986 9.925 15.146 9.465H16.616C16.396 10.255 15.956 10.9 15.296 11.4C14.636 11.89 13.816 12.135 12.836 12.135C12.056 12.135 11.356 11.96 10.736 11.61C10.126 11.26 9.64598 10.765 9.29598 10.125C8.94598 9.475 8.77098 8.725 8.77098 7.875C8.77098 7.025 8.94098 6.28 9.28098 5.64C9.62098 5 10.096 4.51 10.706 4.17C11.326 3.82 12.036 3.645 12.836 3.645C13.616 3.645 14.306 3.815 14.906 4.155C15.506 4.495 15.966 4.965 16.286 5.565C16.616 6.155 16.781 6.825 16.781 7.575ZM15.371 7.29C15.371 6.77 15.256 6.325 15.026 5.955C14.796 5.575 14.481 5.29 14.081 5.1C13.691 4.9 13.256 4.8 12.776 4.8C12.086 4.8 11.496 5.02 11.006 5.46C10.526 5.9 10.251 6.51 10.181 7.29H15.371ZM18.0727 7.86C18.0727 7.02 18.2427 6.285 18.5827 5.655C18.9227 5.015 19.3877 4.52 19.9777 4.17C20.5777 3.82 21.2477 3.645 21.9877 3.645C22.6977 3.645 23.3177 3.805 23.8477 4.125C24.3877 4.435 24.7827 4.82 25.0327 5.28V3.78H26.4127V15.9H25.0327V10.485C24.7727 10.945 24.3727 11.335 23.8327 11.655C23.2927 11.975 22.6627 12.135 21.9427 12.135C21.2227 12.135 20.5677 11.955 19.9777 11.595C19.3877 11.235 18.9227 10.73 18.5827 10.08C18.2427 9.43 18.0727 8.69 18.0727 7.86ZM25.0327 7.875C25.0327 7.255 24.9077 6.715 24.6577 6.255C24.4077 5.795 24.0677 5.445 23.6377 5.205C23.2177 4.955 22.7527 4.83 22.2427 4.83C21.7327 4.83 21.2677 4.95 20.8477 5.19C20.4277 5.43 20.0927 5.78 19.8427 6.24C19.5927 6.7 19.4677 7.24 19.4677 7.86C19.4677 8.49 19.5927 9.04 19.8427 9.51C20.0927 9.97 20.4277 10.325 20.8477 10.575C21.2677 10.815 21.7327 10.935 22.2427 10.935C22.7527 10.935 23.2177 10.815 23.6377 10.575C24.0677 10.325 24.4077 9.97 24.6577 9.51C24.9077 9.04 25.0327 8.495 25.0327 7.875ZM36.0095 3.78V12H34.6445V10.785C34.3845 11.205 34.0195 11.535 33.5495 11.775C33.0895 12.005 32.5795 12.12 32.0195 12.12C31.3795 12.12 30.8045 11.99 30.2945 11.73C29.7845 11.46 29.3795 11.06 29.0795 10.53C28.7895 10 28.6445 9.355 28.6445 8.595V3.78H29.9945V8.415C29.9945 9.225 30.1995 9.85 30.6095 10.29C31.0195 10.72 31.5795 10.935 32.2895 10.935C33.0195 10.935 33.5945 10.71 34.0145 10.26C34.4345 9.81 34.6445 9.155 34.6445 8.295V3.78H36.0095ZM39.0192 2.445C38.7592 2.445 38.5392 2.355 38.3592 2.175C38.1792 1.995 38.0892 1.775 38.0892 1.515C38.0892 1.255 38.1792 1.035 38.3592 0.855C38.5392 0.674999 38.7592 0.584999 39.0192 0.584999C39.2692 0.584999 39.4792 0.674999 39.6492 0.855C39.8292 1.035 39.9192 1.255 39.9192 1.515C39.9192 1.775 39.8292 1.995 39.6492 2.175C39.4792 2.355 39.2692 2.445 39.0192 2.445ZM39.6792 3.78V12H38.3142V3.78H39.6792ZM43.3706 5.115C43.6106 4.645 43.9506 4.28 44.3906 4.02C44.8406 3.76 45.3856 3.63 46.0256 3.63V5.04H45.6656C44.1356 5.04 43.3706 5.87 43.3706 7.53V12H42.0056V3.78H43.3706V5.115ZM55.1013 7.575C55.1013 7.835 55.0863 8.11 55.0563 8.4H48.4863C48.5363 9.21 48.8113 9.845 49.3113 10.305C49.8213 10.755 50.4363 10.98 51.1563 10.98C51.7463 10.98 52.2363 10.845 52.6263 10.575C53.0263 10.295 53.3063 9.925 53.4663 9.465H54.9363C54.7163 10.255 54.2763 10.9 53.6163 11.4C52.9563 11.89 52.1363 12.135 51.1563 12.135C50.3763 12.135 49.6763 11.96 49.0563 11.61C48.4463 11.26 47.9663 10.765 47.6163 10.125C47.2663 9.475 47.0913 8.725 47.0913 7.875C47.0913 7.025 47.2613 6.28 47.6013 5.64C47.9413 5 48.4163 4.51 49.0263 4.17C49.6463 3.82 50.3563 3.645 51.1563 3.645C51.9363 3.645 52.6263 3.815 53.2263 4.155C53.8263 4.495 54.2863 4.965 54.6063 5.565C54.9363 6.155 55.1013 6.825 55.1013 7.575ZM53.6913 7.29C53.6913 6.77 53.5763 6.325 53.3463 5.955C53.1163 5.575 52.8013 5.29 52.4013 5.1C52.0113 4.9 51.5763 4.8 51.0963 4.8C50.4063 4.8 49.8163 5.02 49.3263 5.46C48.8463 5.9 48.5713 6.51 48.5013 7.29H53.6913ZM56.393 7.86C56.393 7.02 56.563 6.285 56.903 5.655C57.243 5.015 57.708 4.52 58.298 4.17C58.898 3.82 59.568 3.645 60.308 3.645C60.948 3.645 61.543 3.795 62.093 4.095C62.643 4.385 63.063 4.77 63.353 5.25V0.9H64.733V12H63.353V10.455C63.083 10.945 62.683 11.35 62.153 11.67C61.623 11.98 61.003 12.135 60.293 12.135C59.563 12.135 58.898 11.955 58.298 11.595C57.708 11.235 57.243 10.73 56.903 10.08C56.563 9.43 56.393 8.69 56.393 7.86ZM63.353 7.875C63.353 7.255 63.228 6.715 62.978 6.255C62.728 5.795 62.388 5.445 61.958 5.205C61.538 4.955 61.073 4.83 60.563 4.83C60.053 4.83 59.588 4.95 59.168 5.19C58.748 5.43 58.413 5.78 58.163 6.24C57.913 6.7 57.788 7.24 57.788 7.86C57.788 8.49 57.913 9.04 58.163 9.51C58.413 9.97 58.748 10.325 59.168 10.575C59.588 10.815 60.053 10.935 60.563 10.935C61.073 10.935 61.538 10.815 61.958 10.575C62.388 10.325 62.728 9.97 62.978 9.51C63.228 9.04 63.353 8.495 63.353 7.875ZM67.4748 12.09C67.2148 12.09 66.9948 12 66.8148 11.82C66.6348 11.64 66.5448 11.42 66.5448 11.16C66.5448 10.9 66.6348 10.68 66.8148 10.5C66.9948 10.32 67.2148 10.23 67.4748 10.23C67.7248 10.23 67.9348 10.32 68.1048 10.5C68.2848 10.68 68.3748 10.9 68.3748 11.16C68.3748 11.42 68.2848 11.64 68.1048 11.82C67.9348 12 67.7248 12.09 67.4748 12.09ZM67.4748 5.67C67.2148 5.67 66.9948 5.58 66.8148 5.4C66.6348 5.22 66.5448 5 66.5448 4.74C66.5448 4.48 66.6348 4.26 66.8148 4.08C66.9948 3.9 67.2148 3.81 67.4748 3.81C67.7248 3.81 67.9348 3.9 68.1048 4.08C68.2848 4.26 68.3748 4.48 68.3748 4.74C68.3748 5 68.2848 5.22 68.1048 5.4C67.9348 5.58 67.7248 5.67 67.4748 5.67ZM9.51805 25.655V29.15H13.328V30.275H9.51805V33.875H13.778V35H8.15305V24.53H13.778V25.655H9.51805ZM19.8485 26.63C20.8485 26.63 21.6585 26.935 22.2785 27.545C22.8985 28.145 23.2085 29.015 23.2085 30.155V35H21.8585V30.35C21.8585 29.53 21.6535 28.905 21.2435 28.475C20.8335 28.035 20.2735 27.815 19.5635 27.815C18.8435 27.815 18.2685 28.04 17.8385 28.49C17.4185 28.94 17.2085 29.595 17.2085 30.455V35H15.8435V26.78H17.2085V27.95C17.4785 27.53 17.8435 27.205 18.3035 26.975C18.7735 26.745 19.2885 26.63 19.8485 26.63ZM29.5182 26.63C30.1382 26.63 30.6982 26.765 31.1982 27.035C31.6982 27.295 32.0882 27.69 32.3682 28.22C32.6582 28.75 32.8032 29.395 32.8032 30.155V35H31.4532V30.35C31.4532 29.53 31.2482 28.905 30.8382 28.475C30.4282 28.035 29.8682 27.815 29.1582 27.815C28.4382 27.815 27.8632 28.04 27.4332 28.49C27.0132 28.94 26.8032 29.595 26.8032 30.455V35H25.4382V23.9H26.8032V27.95C27.0732 27.53 27.4432 27.205 27.9132 26.975C28.3932 26.745 28.9282 26.63 29.5182 26.63ZM34.5229 30.86C34.5229 30.02 34.6929 29.285 35.0329 28.655C35.3729 28.015 35.8379 27.52 36.4279 27.17C37.0279 26.82 37.6929 26.645 38.4229 26.645C39.1429 26.645 39.7679 26.8 40.2979 27.11C40.8279 27.42 41.2229 27.81 41.4829 28.28V26.78H42.8629V35H41.4829V33.47C41.2129 33.95 40.8079 34.35 40.2679 34.67C39.7379 34.98 39.1179 35.135 38.4079 35.135C37.6779 35.135 37.0179 34.955 36.4279 34.595C35.8379 34.235 35.3729 33.73 35.0329 33.08C34.6929 32.43 34.5229 31.69 34.5229 30.86ZM41.4829 30.875C41.4829 30.255 41.3579 29.715 41.1079 29.255C40.8579 28.795 40.5179 28.445 40.0879 28.205C39.6679 27.955 39.2029 27.83 38.6929 27.83C38.1829 27.83 37.7179 27.95 37.2979 28.19C36.8779 28.43 36.5429 28.78 36.2929 29.24C36.0429 29.7 35.9179 30.24 35.9179 30.86C35.9179 31.49 36.0429 32.04 36.2929 32.51C36.5429 32.97 36.8779 33.325 37.2979 33.575C37.7179 33.815 38.1829 33.935 38.6929 33.935C39.2029 33.935 39.6679 33.815 40.0879 33.575C40.5179 33.325 40.8579 32.97 41.1079 32.51C41.3579 32.04 41.4829 31.495 41.4829 30.875ZM49.1746 26.63C50.1746 26.63 50.9846 26.935 51.6046 27.545C52.2246 28.145 52.5346 29.015 52.5346 30.155V35H51.1846V30.35C51.1846 29.53 50.9796 28.905 50.5696 28.475C50.1596 28.035 49.5996 27.815 48.8896 27.815C48.1696 27.815 47.5946 28.04 47.1646 28.49C46.7446 28.94 46.5346 29.595 46.5346 30.455V35H45.1696V26.78H46.5346V27.95C46.8046 27.53 47.1696 27.205 47.6296 26.975C48.0996 26.745 48.6146 26.63 49.1746 26.63ZM54.2544 30.875C54.2544 30.025 54.4244 29.285 54.7644 28.655C55.1044 28.015 55.5744 27.52 56.1744 27.17C56.7844 26.82 57.4794 26.645 58.2594 26.645C59.2694 26.645 60.0994 26.89 60.7494 27.38C61.4094 27.87 61.8444 28.55 62.0544 29.42H60.5844C60.4444 28.92 60.1694 28.525 59.7594 28.235C59.3594 27.945 58.8594 27.8 58.2594 27.8C57.4794 27.8 56.8494 28.07 56.3694 28.61C55.8894 29.14 55.6494 29.895 55.6494 30.875C55.6494 31.865 55.8894 32.63 56.3694 33.17C56.8494 33.71 57.4794 33.98 58.2594 33.98C58.8594 33.98 59.3594 33.84 59.7594 33.56C60.1594 33.28 60.4344 32.88 60.5844 32.36H62.0544C61.8344 33.2 61.3944 33.875 60.7344 34.385C60.0744 34.885 59.2494 35.135 58.2594 35.135C57.4794 35.135 56.7844 34.96 56.1744 34.61C55.5744 34.26 55.1044 33.765 54.7644 33.125C54.4244 32.485 54.2544 31.735 54.2544 30.875ZM71.3757 30.575C71.3757 30.835 71.3607 31.11 71.3307 31.4H64.7607C64.8107 32.21 65.0857 32.845 65.5857 33.305C66.0957 33.755 66.7107 33.98 67.4307 33.98C68.0207 33.98 68.5107 33.845 68.9007 33.575C69.3007 33.295 69.5807 32.925 69.7407 32.465H71.2107C70.9907 33.255 70.5507 33.9 69.8907 34.4C69.2307 34.89 68.4107 35.135 67.4307 35.135C66.6507 35.135 65.9507 34.96 65.3307 34.61C64.7207 34.26 64.2407 33.765 63.8907 33.125C63.5407 32.475 63.3657 31.725 63.3657 30.875C63.3657 30.025 63.5357 29.28 63.8757 28.64C64.2157 28 64.6907 27.51 65.3007 27.17C65.9207 26.82 66.6307 26.645 67.4307 26.645C68.2107 26.645 68.9007 26.815 69.5007 27.155C70.1007 27.495 70.5607 27.965 70.8807 28.565C71.2107 29.155 71.3757 29.825 71.3757 30.575ZM69.9657 30.29C69.9657 29.77 69.8507 29.325 69.6207 28.955C69.3907 28.575 69.0757 28.29 68.6757 28.1C68.2857 27.9 67.8507 27.8 67.3707 27.8C66.6807 27.8 66.0907 28.02 65.6007 28.46C65.1207 28.9 64.8457 29.51 64.7757 30.29H69.9657ZM72.6675 30.86C72.6675 30.02 72.8375 29.285 73.1775 28.655C73.5175 28.015 73.9825 27.52 74.5725 27.17C75.1725 26.82 75.8425 26.645 76.5825 26.645C77.2225 26.645 77.8175 26.795 78.3675 27.095C78.9175 27.385 79.3375 27.77 79.6275 28.25V23.9H81.0075V35H79.6275V33.455C79.3575 33.945 78.9575 34.35 78.4275 34.67C77.8975 34.98 77.2775 35.135 76.5675 35.135C75.8375 35.135 75.1725 34.955 74.5725 34.595C73.9825 34.235 73.5175 33.73 73.1775 33.08C72.8375 32.43 72.6675 31.69 72.6675 30.86ZM79.6275 30.875C79.6275 30.255 79.5025 29.715 79.2525 29.255C79.0025 28.795 78.6625 28.445 78.2325 28.205C77.8125 27.955 77.3475 27.83 76.8375 27.83C76.3275 27.83 75.8625 27.95 75.4425 28.19C75.0225 28.43 74.6875 28.78 74.4375 29.24C74.1875 29.7 74.0625 30.24 74.0625 30.86C74.0625 31.49 74.1875 32.04 74.4375 32.51C74.6875 32.97 75.0225 33.325 75.4425 33.575C75.8625 33.815 76.3275 33.935 76.8375 33.935C77.3475 33.935 77.8125 33.815 78.2325 33.575C78.6625 33.325 79.0025 32.97 79.2525 32.51C79.5025 32.04 79.6275 31.495 79.6275 30.875ZM86.8032 30.86C86.8032 30.02 86.9732 29.285 87.3132 28.655C87.6532 28.015 88.1182 27.52 88.7082 27.17C89.3082 26.82 89.9782 26.645 90.7182 26.645C91.3582 26.645 91.9532 26.795 92.5032 27.095C93.0532 27.385 93.4732 27.77 93.7632 28.25V23.9H95.1432V35H93.7632V33.455C93.4932 33.945 93.0932 34.35 92.5632 34.67C92.0332 34.98 91.4132 35.135 90.7032 35.135C89.9732 35.135 89.3082 34.955 88.7082 34.595C88.1182 34.235 87.6532 33.73 87.3132 33.08C86.9732 32.43 86.8032 31.69 86.8032 30.86ZM93.7632 30.875C93.7632 30.255 93.6382 29.715 93.3882 29.255C93.1382 28.795 92.7982 28.445 92.3682 28.205C91.9482 27.955 91.4832 27.83 90.9732 27.83C90.4632 27.83 89.9982 27.95 89.5782 28.19C89.1582 28.43 88.8232 28.78 88.5732 29.24C88.3232 29.7 88.1982 30.24 88.1982 30.86C88.1982 31.49 88.3232 32.04 88.5732 32.51C88.8232 32.97 89.1582 33.325 89.5782 33.575C89.9982 33.815 90.4632 33.935 90.9732 33.935C91.4832 33.935 91.9482 33.815 92.3682 33.575C92.7982 33.325 93.1382 32.97 93.3882 32.51C93.6382 32.04 93.7632 31.495 93.7632 30.875ZM104.74 26.78V35H103.375V33.785C103.115 34.205 102.75 34.535 102.28 34.775C101.82 35.005 101.31 35.12 100.75 35.12C100.11 35.12 99.5349 34.99 99.0249 34.73C98.5149 34.46 98.1099 34.06 97.8099 33.53C97.5199 33 97.3749 32.355 97.3749 31.595V26.78H98.7249V31.415C98.7249 32.225 98.9299 32.85 99.3399 33.29C99.7499 33.72 100.31 33.935 101.02 33.935C101.75 33.935 102.325 33.71 102.745 33.26C103.165 32.81 103.375 32.155 103.375 31.295V26.78H104.74ZM114.545 30.575C114.545 30.835 114.53 31.11 114.5 31.4H107.93C107.98 32.21 108.255 32.845 108.755 33.305C109.265 33.755 109.88 33.98 110.6 33.98C111.19 33.98 111.68 33.845 112.07 33.575C112.47 33.295 112.75 32.925 112.91 32.465H114.38C114.16 33.255 113.72 33.9 113.06 34.4C112.4 34.89 111.58 35.135 110.6 35.135C109.82 35.135 109.12 34.96 108.5 34.61C107.89 34.26 107.41 33.765 107.06 33.125C106.71 32.475 106.535 31.725 106.535 30.875C106.535 30.025 106.705 29.28 107.045 28.64C107.385 28 107.86 27.51 108.47 27.17C109.09 26.82 109.8 26.645 110.6 26.645C111.38 26.645 112.07 26.815 112.67 27.155C113.27 27.495 113.73 27.965 114.05 28.565C114.38 29.155 114.545 29.825 114.545 30.575ZM113.135 30.29C113.135 29.77 113.02 29.325 112.79 28.955C112.56 28.575 112.245 28.29 111.845 28.1C111.455 27.9 111.02 27.8 110.54 27.8C109.85 27.8 109.26 28.02 108.77 28.46C108.29 28.9 108.015 29.51 107.945 30.29H113.135ZM119.835 30.86C119.835 30.02 120.005 29.285 120.345 28.655C120.685 28.015 121.15 27.52 121.74 27.17C122.34 26.82 123.01 26.645 123.75 26.645C124.39 26.645 124.985 26.795 125.535 27.095C126.085 27.385 126.505 27.77 126.795 28.25V23.9H128.175V35H126.795V33.455C126.525 33.945 126.125 34.35 125.595 34.67C125.065 34.98 124.445 35.135 123.735 35.135C123.005 35.135 122.34 34.955 121.74 34.595C121.15 34.235 120.685 33.73 120.345 33.08C120.005 32.43 119.835 31.69 119.835 30.86ZM126.795 30.875C126.795 30.255 126.67 29.715 126.42 29.255C126.17 28.795 125.83 28.445 125.4 28.205C124.98 27.955 124.515 27.83 124.005 27.83C123.495 27.83 123.03 27.95 122.61 28.19C122.19 28.43 121.855 28.78 121.605 29.24C121.355 29.7 121.23 30.24 121.23 30.86C121.23 31.49 121.355 32.04 121.605 32.51C121.855 32.97 122.19 33.325 122.61 33.575C123.03 33.815 123.495 33.935 124.005 33.935C124.515 33.935 124.98 33.815 125.4 33.575C125.83 33.325 126.17 32.97 126.42 32.51C126.67 32.04 126.795 31.495 126.795 30.875ZM131.187 25.445C130.927 25.445 130.707 25.355 130.527 25.175C130.347 24.995 130.257 24.775 130.257 24.515C130.257 24.255 130.347 24.035 130.527 23.855C130.707 23.675 130.927 23.585 131.187 23.585C131.437 23.585 131.647 23.675 131.817 23.855C131.997 24.035 132.087 24.255 132.087 24.515C132.087 24.775 131.997 24.995 131.817 25.175C131.647 25.355 131.437 25.445 131.187 25.445ZM131.847 26.78V35H130.482V26.78H131.847ZM135.539 23.9V35H134.174V23.9H135.539ZM139.23 23.9V35H137.865V23.9H139.23ZM142.261 25.445C142.001 25.445 141.781 25.355 141.601 25.175C141.421 24.995 141.331 24.775 141.331 24.515C141.331 24.255 141.421 24.035 141.601 23.855C141.781 23.675 142.001 23.585 142.261 23.585C142.511 23.585 142.721 23.675 142.891 23.855C143.071 24.035 143.161 24.255 143.161 24.515C143.161 24.775 143.071 24.995 142.891 25.175C142.721 25.355 142.511 25.445 142.261 25.445ZM142.921 26.78V35H141.556V26.78H142.921ZM148.638 26.645C149.348 26.645 149.968 26.8 150.498 27.11C151.038 27.42 151.438 27.81 151.698 28.28V26.78H153.078V35.18C153.078 35.93 152.918 36.595 152.598 37.175C152.278 37.765 151.818 38.225 151.218 38.555C150.628 38.885 149.938 39.05 149.148 39.05C148.068 39.05 147.168 38.795 146.448 38.285C145.728 37.775 145.303 37.08 145.173 36.2H146.523C146.673 36.7 146.983 37.1 147.453 37.4C147.923 37.71 148.488 37.865 149.148 37.865C149.898 37.865 150.508 37.63 150.978 37.16C151.458 36.69 151.698 36.03 151.698 35.18V33.455C151.428 33.935 151.028 34.335 150.498 34.655C149.968 34.975 149.348 35.135 148.638 35.135C147.908 35.135 147.243 34.955 146.643 34.595C146.053 34.235 145.588 33.73 145.248 33.08C144.908 32.43 144.738 31.69 144.738 30.86C144.738 30.02 144.908 29.285 145.248 28.655C145.588 28.015 146.053 27.52 146.643 27.17C147.243 26.82 147.908 26.645 148.638 26.645ZM151.698 30.875C151.698 30.255 151.573 29.715 151.323 29.255C151.073 28.795 150.733 28.445 150.303 28.205C149.883 27.955 149.418 27.83 148.908 27.83C148.398 27.83 147.933 27.95 147.513 28.19C147.093 28.43 146.758 28.78 146.508 29.24C146.258 29.7 146.133 30.24 146.133 30.86C146.133 31.49 146.258 32.04 146.508 32.51C146.758 32.97 147.093 33.325 147.513 33.575C147.933 33.815 148.398 33.935 148.908 33.935C149.418 33.935 149.883 33.815 150.303 33.575C150.733 33.325 151.073 32.97 151.323 32.51C151.573 32.04 151.698 31.495 151.698 30.875ZM162.884 30.575C162.884 30.835 162.869 31.11 162.839 31.4H156.269C156.319 32.21 156.594 32.845 157.094 33.305C157.604 33.755 158.219 33.98 158.939 33.98C159.529 33.98 160.019 33.845 160.409 33.575C160.809 33.295 161.089 32.925 161.249 32.465H162.719C162.499 33.255 162.059 33.9 161.399 34.4C160.739 34.89 159.919 35.135 158.939 35.135C158.159 35.135 157.459 34.96 156.839 34.61C156.229 34.26 155.749 33.765 155.399 33.125C155.049 32.475 154.874 31.725 154.874 30.875C154.874 30.025 155.044 29.28 155.384 28.64C155.724 28 156.199 27.51 156.809 27.17C157.429 26.82 158.139 26.645 158.939 26.645C159.719 26.645 160.409 26.815 161.009 27.155C161.609 27.495 162.069 27.965 162.389 28.565C162.719 29.155 162.884 29.825 162.884 30.575ZM161.474 30.29C161.474 29.77 161.359 29.325 161.129 28.955C160.899 28.575 160.584 28.29 160.184 28.1C159.794 27.9 159.359 27.8 158.879 27.8C158.189 27.8 157.599 28.02 157.109 28.46C156.629 28.9 156.354 29.51 156.284 30.29H161.474ZM168.691 26.63C169.691 26.63 170.501 26.935 171.121 27.545C171.741 28.145 172.051 29.015 172.051 30.155V35H170.701V30.35C170.701 29.53 170.496 28.905 170.086 28.475C169.676 28.035 169.116 27.815 168.406 27.815C167.686 27.815 167.111 28.04 166.681 28.49C166.261 28.94 166.051 29.595 166.051 30.455V35H164.686V26.78H166.051V27.95C166.321 27.53 166.686 27.205 167.146 26.975C167.616 26.745 168.131 26.63 168.691 26.63ZM173.771 30.875C173.771 30.025 173.941 29.285 174.281 28.655C174.621 28.015 175.091 27.52 175.691 27.17C176.301 26.82 176.996 26.645 177.776 26.645C178.786 26.645 179.616 26.89 180.266 27.38C180.926 27.87 181.361 28.55 181.571 29.42H180.101C179.961 28.92 179.686 28.525 179.276 28.235C178.876 27.945 178.376 27.8 177.776 27.8C176.996 27.8 176.366 28.07 175.886 28.61C175.406 29.14 175.166 29.895 175.166 30.875C175.166 31.865 175.406 32.63 175.886 33.17C176.366 33.71 176.996 33.98 177.776 33.98C178.376 33.98 178.876 33.84 179.276 33.56C179.676 33.28 179.951 32.88 180.101 32.36H181.571C181.351 33.2 180.911 33.875 180.251 34.385C179.591 34.885 178.766 35.135 177.776 35.135C176.996 35.135 176.301 34.96 175.691 34.61C175.091 34.26 174.621 33.765 174.281 33.125C173.941 32.485 173.771 31.735 173.771 30.875ZM190.892 30.575C190.892 30.835 190.877 31.11 190.847 31.4H184.277C184.327 32.21 184.602 32.845 185.102 33.305C185.612 33.755 186.227 33.98 186.947 33.98C187.537 33.98 188.027 33.845 188.417 33.575C188.817 33.295 189.097 32.925 189.257 32.465H190.727C190.507 33.255 190.067 33.9 189.407 34.4C188.747 34.89 187.927 35.135 186.947 35.135C186.167 35.135 185.467 34.96 184.847 34.61C184.237 34.26 183.757 33.765 183.407 33.125C183.057 32.475 182.882 31.725 182.882 30.875C182.882 30.025 183.052 29.28 183.392 28.64C183.732 28 184.207 27.51 184.817 27.17C185.437 26.82 186.147 26.645 186.947 26.645C187.727 26.645 188.417 26.815 189.017 27.155C189.617 27.495 190.077 27.965 190.397 28.565C190.727 29.155 190.892 29.825 190.892 30.575ZM189.482 30.29C189.482 29.77 189.367 29.325 189.137 28.955C188.907 28.575 188.592 28.29 188.192 28.1C187.802 27.9 187.367 27.8 186.887 27.8C186.197 27.8 185.607 28.02 185.117 28.46C184.637 28.9 184.362 29.51 184.292 30.29H189.482Z" fill="white"/>
</svg>
