<svg width="129" height="36" viewBox="0 0 129 36" fill="none" xmlns="http://www.w3.org/2000/svg">
<path d="M5.66 12L3.17 7.725H1.52V12H0.155V1.545H3.53C4.32 1.545 4.985 1.68 5.525 1.95C6.075 2.22 6.485 2.585 6.755 3.045C7.025 3.505 7.16 4.03 7.16 4.62C7.16 5.34 6.95 5.975 6.53 6.525C6.12 7.075 5.5 7.44 4.67 7.62L7.295 12H5.66ZM1.52 6.63H3.53C4.27 6.63 4.825 6.45 5.195 6.09C5.565 5.72 5.75 5.23 5.75 4.62C5.75 4 5.565 3.52 5.195 3.18C4.835 2.84 4.28 2.67 3.53 2.67H1.52V6.63ZM16.781 7.575C16.781 7.835 16.766 8.11 16.736 8.4H10.166C10.216 9.21 10.491 9.845 10.991 10.305C11.501 10.755 12.116 10.98 12.836 10.98C13.426 10.98 13.916 10.845 14.306 10.575C14.706 10.295 14.986 9.925 15.146 9.465H16.616C16.396 10.255 15.956 10.9 15.296 11.4C14.636 11.89 13.816 12.135 12.836 12.135C12.056 12.135 11.356 11.96 10.736 11.61C10.126 11.26 9.64598 10.765 9.29598 10.125C8.94598 9.475 8.77098 8.725 8.77098 7.875C8.77098 7.025 8.94098 6.28 9.28098 5.64C9.62098 5 10.096 4.51 10.706 4.17C11.326 3.82 12.036 3.645 12.836 3.645C13.616 3.645 14.306 3.815 14.906 4.155C15.506 4.495 15.966 4.965 16.286 5.565C16.616 6.155 16.781 6.825 16.781 7.575ZM15.371 7.29C15.371 6.77 15.256 6.325 15.026 5.955C14.796 5.575 14.481 5.29 14.081 5.1C13.691 4.9 13.256 4.8 12.776 4.8C12.086 4.8 11.496 5.02 11.006 5.46C10.526 5.9 10.251 6.51 10.181 7.29H15.371ZM18.0727 7.86C18.0727 7.02 18.2427 6.285 18.5827 5.655C18.9227 5.015 19.3877 4.52 19.9777 4.17C20.5777 3.82 21.2477 3.645 21.9877 3.645C22.6977 3.645 23.3177 3.805 23.8477 4.125C24.3877 4.435 24.7827 4.82 25.0327 5.28V3.78H26.4127V15.9H25.0327V10.485C24.7727 10.945 24.3727 11.335 23.8327 11.655C23.2927 11.975 22.6627 12.135 21.9427 12.135C21.2227 12.135 20.5677 11.955 19.9777 11.595C19.3877 11.235 18.9227 10.73 18.5827 10.08C18.2427 9.43 18.0727 8.69 18.0727 7.86ZM25.0327 7.875C25.0327 7.255 24.9077 6.715 24.6577 6.255C24.4077 5.795 24.0677 5.445 23.6377 5.205C23.2177 4.955 22.7527 4.83 22.2427 4.83C21.7327 4.83 21.2677 4.95 20.8477 5.19C20.4277 5.43 20.0927 5.78 19.8427 6.24C19.5927 6.7 19.4677 7.24 19.4677 7.86C19.4677 8.49 19.5927 9.04 19.8427 9.51C20.0927 9.97 20.4277 10.325 20.8477 10.575C21.2677 10.815 21.7327 10.935 22.2427 10.935C22.7527 10.935 23.2177 10.815 23.6377 10.575C24.0677 10.325 24.4077 9.97 24.6577 9.51C24.9077 9.04 25.0327 8.495 25.0327 7.875ZM36.0095 3.78V12H34.6445V10.785C34.3845 11.205 34.0195 11.535 33.5495 11.775C33.0895 12.005 32.5795 12.12 32.0195 12.12C31.3795 12.12 30.8045 11.99 30.2945 11.73C29.7845 11.46 29.3795 11.06 29.0795 10.53C28.7895 10 28.6445 9.355 28.6445 8.595V3.78H29.9945V8.415C29.9945 9.225 30.1995 9.85 30.6095 10.29C31.0195 10.72 31.5795 10.935 32.2895 10.935C33.0195 10.935 33.5945 10.71 34.0145 10.26C34.4345 9.81 34.6445 9.155 34.6445 8.295V3.78H36.0095ZM39.0192 2.445C38.7592 2.445 38.5392 2.355 38.3592 2.175C38.1792 1.995 38.0892 1.775 38.0892 1.515C38.0892 1.255 38.1792 1.035 38.3592 0.855C38.5392 0.674999 38.7592 0.584999 39.0192 0.584999C39.2692 0.584999 39.4792 0.674999 39.6492 0.855C39.8292 1.035 39.9192 1.255 39.9192 1.515C39.9192 1.775 39.8292 1.995 39.6492 2.175C39.4792 2.355 39.2692 2.445 39.0192 2.445ZM39.6792 3.78V12H38.3142V3.78H39.6792ZM43.3706 5.115C43.6106 4.645 43.9506 4.28 44.3906 4.02C44.8406 3.76 45.3856 3.63 46.0256 3.63V5.04H45.6656C44.1356 5.04 43.3706 5.87 43.3706 7.53V12H42.0056V3.78H43.3706V5.115ZM55.1013 7.575C55.1013 7.835 55.0863 8.11 55.0563 8.4H48.4863C48.5363 9.21 48.8113 9.845 49.3113 10.305C49.8213 10.755 50.4363 10.98 51.1563 10.98C51.7463 10.98 52.2363 10.845 52.6263 10.575C53.0263 10.295 53.3063 9.925 53.4663 9.465H54.9363C54.7163 10.255 54.2763 10.9 53.6163 11.4C52.9563 11.89 52.1363 12.135 51.1563 12.135C50.3763 12.135 49.6763 11.96 49.0563 11.61C48.4463 11.26 47.9663 10.765 47.6163 10.125C47.2663 9.475 47.0913 8.725 47.0913 7.875C47.0913 7.025 47.2613 6.28 47.6013 5.64C47.9413 5 48.4163 4.51 49.0263 4.17C49.6463 3.82 50.3563 3.645 51.1563 3.645C51.9363 3.645 52.6263 3.815 53.2263 4.155C53.8263 4.495 54.2863 4.965 54.6063 5.565C54.9363 6.155 55.1013 6.825 55.1013 7.575ZM53.6913 7.29C53.6913 6.77 53.5763 6.325 53.3463 5.955C53.1163 5.575 52.8013 5.29 52.4013 5.1C52.0113 4.9 51.5763 4.8 51.0963 4.8C50.4063 4.8 49.8163 5.02 49.3263 5.46C48.8463 5.9 48.5713 6.51 48.5013 7.29H53.6913ZM56.393 7.86C56.393 7.02 56.563 6.285 56.903 5.655C57.243 5.015 57.708 4.52 58.298 4.17C58.898 3.82 59.568 3.645 60.308 3.645C60.948 3.645 61.543 3.795 62.093 4.095C62.643 4.385 63.063 4.77 63.353 5.25V0.9H64.733V12H63.353V10.455C63.083 10.945 62.683 11.35 62.153 11.67C61.623 11.98 61.003 12.135 60.293 12.135C59.563 12.135 58.898 11.955 58.298 11.595C57.708 11.235 57.243 10.73 56.903 10.08C56.563 9.43 56.393 8.69 56.393 7.86ZM63.353 7.875C63.353 7.255 63.228 6.715 62.978 6.255C62.728 5.795 62.388 5.445 61.958 5.205C61.538 4.955 61.073 4.83 60.563 4.83C60.053 4.83 59.588 4.95 59.168 5.19C58.748 5.43 58.413 5.78 58.163 6.24C57.913 6.7 57.788 7.24 57.788 7.86C57.788 8.49 57.913 9.04 58.163 9.51C58.413 9.97 58.748 10.325 59.168 10.575C59.588 10.815 60.053 10.935 60.563 10.935C61.073 10.935 61.538 10.815 61.958 10.575C62.388 10.325 62.728 9.97 62.978 9.51C63.228 9.04 63.353 8.495 63.353 7.875ZM67.4748 12.09C67.2148 12.09 66.9948 12 66.8148 11.82C66.6348 11.64 66.5448 11.42 66.5448 11.16C66.5448 10.9 66.6348 10.68 66.8148 10.5C66.9948 10.32 67.2148 10.23 67.4748 10.23C67.7248 10.23 67.9348 10.32 68.1048 10.5C68.2848 10.68 68.3748 10.9 68.3748 11.16C68.3748 11.42 68.2848 11.64 68.1048 11.82C67.9348 12 67.7248 12.09 67.4748 12.09ZM67.4748 5.67C67.2148 5.67 66.9948 5.58 66.8148 5.4C66.6348 5.22 66.5448 5 66.5448 4.74C66.5448 4.48 66.6348 4.26 66.8148 4.08C66.9948 3.9 67.2148 3.81 67.4748 3.81C67.7248 3.81 67.9348 3.9 68.1048 4.08C68.2848 4.26 68.3748 4.48 68.3748 4.74C68.3748 5 68.2848 5.22 68.1048 5.4C67.9348 5.58 67.7248 5.67 67.4748 5.67ZM15.143 27.605C15.143 28.475 14.843 29.2 14.243 29.78C13.653 30.35 12.748 30.635 11.528 30.635H9.51805V35H8.15305V24.545H11.528C12.708 24.545 13.603 24.83 14.213 25.4C14.833 25.97 15.143 26.705 15.143 27.605ZM11.528 29.51C12.288 29.51 12.848 29.345 13.208 29.015C13.568 28.685 13.748 28.215 13.748 27.605C13.748 26.315 13.008 25.67 11.528 25.67H9.51805V29.51H11.528ZM18.2046 28.115C18.4446 27.645 18.7846 27.28 19.2246 27.02C19.6746 26.76 20.2196 26.63 20.8596 26.63V28.04H20.4996C18.9696 28.04 18.2046 28.87 18.2046 30.53V35H16.8396V26.78H18.2046V28.115ZM26.0203 35.135C25.2503 35.135 24.5503 34.96 23.9203 34.61C23.3003 34.26 22.8103 33.765 22.4503 33.125C22.1003 32.475 21.9253 31.725 21.9253 30.875C21.9253 30.035 22.1053 29.295 22.4653 28.655C22.8353 28.005 23.3353 27.51 23.9653 27.17C24.5953 26.82 25.3003 26.645 26.0803 26.645C26.8603 26.645 27.5653 26.82 28.1953 27.17C28.8253 27.51 29.3203 28 29.6803 28.64C30.0503 29.28 30.2353 30.025 30.2353 30.875C30.2353 31.725 30.0453 32.475 29.6653 33.125C29.2953 33.765 28.7903 34.26 28.1503 34.61C27.5103 34.96 26.8003 35.135 26.0203 35.135ZM26.0203 33.935C26.5103 33.935 26.9703 33.82 27.4003 33.59C27.8303 33.36 28.1753 33.015 28.4353 32.555C28.7053 32.095 28.8403 31.535 28.8403 30.875C28.8403 30.215 28.7103 29.655 28.4503 29.195C28.1903 28.735 27.8503 28.395 27.4303 28.175C27.0103 27.945 26.5553 27.83 26.0653 27.83C25.5653 27.83 25.1053 27.945 24.6853 28.175C24.2753 28.395 23.9453 28.735 23.6953 29.195C23.4453 29.655 23.3203 30.215 23.3203 30.875C23.3203 31.545 23.4403 32.11 23.6803 32.57C23.9303 33.03 24.2603 33.375 24.6703 33.605C25.0803 33.825 25.5303 33.935 26.0203 33.935ZM35.615 35.135C34.845 35.135 34.145 34.96 33.515 34.61C32.895 34.26 32.405 33.765 32.045 33.125C31.695 32.475 31.52 31.725 31.52 30.875C31.52 30.035 31.7 29.295 32.06 28.655C32.43 28.005 32.93 27.51 33.56 27.17C34.19 26.82 34.895 26.645 35.675 26.645C36.455 26.645 37.16 26.82 37.79 27.17C38.42 27.51 38.915 28 39.275 28.64C39.645 29.28 39.83 30.025 39.83 30.875C39.83 31.725 39.64 32.475 39.26 33.125C38.89 33.765 38.385 34.26 37.745 34.61C37.105 34.96 36.395 35.135 35.615 35.135ZM35.615 33.935C36.105 33.935 36.565 33.82 36.995 33.59C37.425 33.36 37.77 33.015 38.03 32.555C38.3 32.095 38.435 31.535 38.435 30.875C38.435 30.215 38.305 29.655 38.045 29.195C37.785 28.735 37.445 28.395 37.025 28.175C36.605 27.945 36.15 27.83 35.66 27.83C35.16 27.83 34.7 27.945 34.28 28.175C33.87 28.395 33.54 28.735 33.29 29.195C33.04 29.655 32.915 30.215 32.915 30.875C32.915 31.545 33.035 32.11 33.275 32.57C33.525 33.03 33.855 33.375 34.265 33.605C34.675 33.825 35.125 33.935 35.615 33.935ZM44.9697 27.905H43.2447V35H41.8797V27.905H40.8147V26.78H41.8797V26.195C41.8797 25.275 42.1147 24.605 42.5847 24.185C43.0647 23.755 43.8297 23.54 44.8797 23.54V24.68C44.2797 24.68 43.8547 24.8 43.6047 25.04C43.3647 25.27 43.2447 25.655 43.2447 26.195V26.78H44.9697V27.905ZM54.1453 35.135C53.3753 35.135 52.6753 34.96 52.0453 34.61C51.4253 34.26 50.9353 33.765 50.5753 33.125C50.2253 32.475 50.0503 31.725 50.0503 30.875C50.0503 30.035 50.2303 29.295 50.5903 28.655C50.9603 28.005 51.4603 27.51 52.0903 27.17C52.7203 26.82 53.4253 26.645 54.2053 26.645C54.9853 26.645 55.6903 26.82 56.3203 27.17C56.9503 27.51 57.4453 28 57.8053 28.64C58.1753 29.28 58.3603 30.025 58.3603 30.875C58.3603 31.725 58.1703 32.475 57.7903 33.125C57.4203 33.765 56.9153 34.26 56.2753 34.61C55.6353 34.96 54.9253 35.135 54.1453 35.135ZM54.1453 33.935C54.6353 33.935 55.0953 33.82 55.5253 33.59C55.9553 33.36 56.3003 33.015 56.5603 32.555C56.8303 32.095 56.9653 31.535 56.9653 30.875C56.9653 30.215 56.8353 29.655 56.5753 29.195C56.3153 28.735 55.9753 28.395 55.5553 28.175C55.1353 27.945 54.6803 27.83 54.1903 27.83C53.6903 27.83 53.2303 27.945 52.8103 28.175C52.4003 28.395 52.0703 28.735 51.8203 29.195C51.5703 29.655 51.4453 30.215 51.4453 30.875C51.4453 31.545 51.5653 32.11 51.8053 32.57C52.0553 33.03 52.3853 33.375 52.7953 33.605C53.2053 33.825 53.6553 33.935 54.1453 33.935ZM63.5 27.905H61.775V35H60.41V27.905H59.345V26.78H60.41V26.195C60.41 25.275 60.645 24.605 61.115 24.185C61.595 23.755 62.36 23.54 63.41 23.54V24.68C62.81 24.68 62.385 24.8 62.135 25.04C61.895 25.27 61.775 25.655 61.775 26.195V26.78H63.5V27.905ZM75.2705 32.675H70.7105L69.8705 35H68.4305L72.2105 24.605H73.7855L77.5505 35H76.1105L75.2705 32.675ZM74.8805 31.565L72.9905 26.285L71.1005 31.565H74.8805ZM78.688 30.86C78.688 30.02 78.858 29.285 79.198 28.655C79.538 28.015 80.003 27.52 80.593 27.17C81.193 26.82 81.863 26.645 82.603 26.645C83.243 26.645 83.838 26.795 84.388 27.095C84.938 27.385 85.358 27.77 85.648 28.25V23.9H87.028V35H85.648V33.455C85.378 33.945 84.978 34.35 84.448 34.67C83.918 34.98 83.298 35.135 82.588 35.135C81.858 35.135 81.193 34.955 80.593 34.595C80.003 34.235 79.538 33.73 79.198 33.08C78.858 32.43 78.688 31.69 78.688 30.86ZM85.648 30.875C85.648 30.255 85.523 29.715 85.273 29.255C85.023 28.795 84.683 28.445 84.253 28.205C83.833 27.955 83.368 27.83 82.858 27.83C82.348 27.83 81.883 27.95 81.463 28.19C81.043 28.43 80.708 28.78 80.458 29.24C80.208 29.7 80.083 30.24 80.083 30.86C80.083 31.49 80.208 32.04 80.458 32.51C80.708 32.97 81.043 33.325 81.463 33.575C81.883 33.815 82.348 33.935 82.858 33.935C83.368 33.935 83.833 33.815 84.253 33.575C84.683 33.325 85.023 32.97 85.273 32.51C85.523 32.04 85.648 31.495 85.648 30.875ZM88.8247 30.86C88.8247 30.02 88.9947 29.285 89.3347 28.655C89.6747 28.015 90.1397 27.52 90.7297 27.17C91.3297 26.82 91.9997 26.645 92.7397 26.645C93.3797 26.645 93.9747 26.795 94.5247 27.095C95.0747 27.385 95.4947 27.77 95.7847 28.25V23.9H97.1647V35H95.7847V33.455C95.5147 33.945 95.1147 34.35 94.5847 34.67C94.0547 34.98 93.4347 35.135 92.7247 35.135C91.9947 35.135 91.3297 34.955 90.7297 34.595C90.1397 34.235 89.6747 33.73 89.3347 33.08C88.9947 32.43 88.8247 31.69 88.8247 30.86ZM95.7847 30.875C95.7847 30.255 95.6597 29.715 95.4097 29.255C95.1597 28.795 94.8197 28.445 94.3897 28.205C93.9697 27.955 93.5047 27.83 92.9947 27.83C92.4847 27.83 92.0197 27.95 91.5997 28.19C91.1797 28.43 90.8447 28.78 90.5947 29.24C90.3447 29.7 90.2197 30.24 90.2197 30.86C90.2197 31.49 90.3447 32.04 90.5947 32.51C90.8447 32.97 91.1797 33.325 91.5997 33.575C92.0197 33.815 92.4847 33.935 92.9947 33.935C93.5047 33.935 93.9697 33.815 94.3897 33.575C94.8197 33.325 95.1597 32.97 95.4097 32.51C95.6597 32.04 95.7847 31.495 95.7847 30.875ZM100.836 28.115C101.076 27.645 101.416 27.28 101.856 27.02C102.306 26.76 102.851 26.63 103.491 26.63V28.04H103.131C101.601 28.04 100.836 28.87 100.836 30.53V35H99.4714V26.78H100.836V28.115ZM112.567 30.575C112.567 30.835 112.552 31.11 112.522 31.4H105.952C106.002 32.21 106.277 32.845 106.777 33.305C107.287 33.755 107.902 33.98 108.622 33.98C109.212 33.98 109.702 33.845 110.092 33.575C110.492 33.295 110.772 32.925 110.932 32.465H112.402C112.182 33.255 111.742 33.9 111.082 34.4C110.422 34.89 109.602 35.135 108.622 35.135C107.842 35.135 107.142 34.96 106.522 34.61C105.912 34.26 105.432 33.765 105.082 33.125C104.732 32.475 104.557 31.725 104.557 30.875C104.557 30.025 104.727 29.28 105.067 28.64C105.407 28 105.882 27.51 106.492 27.17C107.112 26.82 107.822 26.645 108.622 26.645C109.402 26.645 110.092 26.815 110.692 27.155C111.292 27.495 111.752 27.965 112.072 28.565C112.402 29.155 112.567 29.825 112.567 30.575ZM111.157 30.29C111.157 29.77 111.042 29.325 110.812 28.955C110.582 28.575 110.267 28.29 109.867 28.1C109.477 27.9 109.042 27.8 108.562 27.8C107.872 27.8 107.282 28.02 106.792 28.46C106.312 28.9 106.037 29.51 105.967 30.29H111.157ZM117.279 35.135C116.649 35.135 116.084 35.03 115.584 34.82C115.084 34.6 114.689 34.3 114.399 33.92C114.109 33.53 113.949 33.085 113.919 32.585H115.329C115.369 32.995 115.559 33.33 115.899 33.59C116.249 33.85 116.704 33.98 117.264 33.98C117.784 33.98 118.194 33.865 118.494 33.635C118.794 33.405 118.944 33.115 118.944 32.765C118.944 32.405 118.784 32.14 118.464 31.97C118.144 31.79 117.649 31.615 116.979 31.445C116.369 31.285 115.869 31.125 115.479 30.965C115.099 30.795 114.769 30.55 114.489 30.23C114.219 29.9 114.084 29.47 114.084 28.94C114.084 28.52 114.209 28.135 114.459 27.785C114.709 27.435 115.064 27.16 115.524 26.96C115.984 26.75 116.509 26.645 117.099 26.645C118.009 26.645 118.744 26.875 119.304 27.335C119.864 27.795 120.164 28.425 120.204 29.225H118.839C118.809 28.795 118.634 28.45 118.314 28.19C118.004 27.93 117.584 27.8 117.054 27.8C116.564 27.8 116.174 27.905 115.884 28.115C115.594 28.325 115.449 28.6 115.449 28.94C115.449 29.21 115.534 29.435 115.704 29.615C115.884 29.785 116.104 29.925 116.364 30.035C116.634 30.135 117.004 30.25 117.474 30.38C118.064 30.54 118.544 30.7 118.914 30.86C119.284 31.01 119.599 31.24 119.859 31.55C120.129 31.86 120.269 32.265 120.279 32.765C120.279 33.215 120.154 33.62 119.904 33.98C119.654 34.34 119.299 34.625 118.839 34.835C118.389 35.035 117.869 35.135 117.279 35.135ZM125.116 35.135C124.486 35.135 123.921 35.03 123.421 34.82C122.921 34.6 122.526 34.3 122.236 33.92C121.946 33.53 121.786 33.085 121.756 32.585H123.166C123.206 32.995 123.396 33.33 123.736 33.59C124.086 33.85 124.541 33.98 125.101 33.98C125.621 33.98 126.031 33.865 126.331 33.635C126.631 33.405 126.781 33.115 126.781 32.765C126.781 32.405 126.621 32.14 126.301 31.97C125.981 31.79 125.486 31.615 124.816 31.445C124.206 31.285 123.706 31.125 123.316 30.965C122.936 30.795 122.606 30.55 122.326 30.23C122.056 29.9 121.921 29.47 121.921 28.94C121.921 28.52 122.046 28.135 122.296 27.785C122.546 27.435 122.901 27.16 123.361 26.96C123.821 26.75 124.346 26.645 124.936 26.645C125.846 26.645 126.581 26.875 127.141 27.335C127.701 27.795 128.001 28.425 128.041 29.225H126.676C126.646 28.795 126.471 28.45 126.151 28.19C125.841 27.93 125.421 27.8 124.891 27.8C124.401 27.8 124.011 27.905 123.721 28.115C123.431 28.325 123.286 28.6 123.286 28.94C123.286 29.21 123.371 29.435 123.541 29.615C123.721 29.785 123.941 29.925 124.201 30.035C124.471 30.135 124.841 30.25 125.311 30.38C125.901 30.54 126.381 30.7 126.751 30.86C127.121 31.01 127.436 31.24 127.696 31.55C127.966 31.86 128.106 32.265 128.116 32.765C128.116 33.215 127.991 33.62 127.741 33.98C127.491 34.34 127.136 34.625 126.676 34.835C126.226 35.035 125.706 35.135 125.116 35.135Z" fill="white"/>
</svg>
