<svg width="177" height="86" viewBox="0 0 177 86" fill="none" xmlns="http://www.w3.org/2000/svg">
<path d="M9.795 1.545L5.85 12H4.275L0.33 1.545H1.785L5.07 10.56L8.355 1.545H9.795ZM18.7917 7.575C18.7917 7.835 18.7767 8.11 18.7467 8.4H12.1767C12.2267 9.21 12.5017 9.845 13.0017 10.305C13.5117 10.755 14.1267 10.98 14.8467 10.98C15.4367 10.98 15.9267 10.845 16.3167 10.575C16.7167 10.295 16.9967 9.925 17.1567 9.465H18.6267C18.4067 10.255 17.9667 10.9 17.3067 11.4C16.6467 11.89 15.8267 12.135 14.8467 12.135C14.0667 12.135 13.3667 11.96 12.7467 11.61C12.1367 11.26 11.6567 10.765 11.3067 10.125C10.9567 9.475 10.7817 8.725 10.7817 7.875C10.7817 7.025 10.9517 6.28 11.2917 5.64C11.6317 5 12.1067 4.51 12.7167 4.17C13.3367 3.82 14.0467 3.645 14.8467 3.645C15.6267 3.645 16.3167 3.815 16.9167 4.155C17.5167 4.495 17.9767 4.965 18.2967 5.565C18.6267 6.155 18.7917 6.825 18.7917 7.575ZM17.3817 7.29C17.3817 6.77 17.2667 6.325 17.0367 5.955C16.8067 5.575 16.4917 5.29 16.0917 5.1C15.7017 4.9 15.2667 4.8 14.7867 4.8C14.0967 4.8 13.5067 5.02 13.0167 5.46C12.5367 5.9 12.2617 6.51 12.1917 7.29H17.3817ZM21.9585 5.115C22.1985 4.645 22.5385 4.28 22.9785 4.02C23.4285 3.76 23.9735 3.63 24.6135 3.63V5.04H24.2535C22.7235 5.04 21.9585 5.87 21.9585 7.53V12H20.5935V3.78H21.9585V5.115ZM26.8942 2.445C26.6342 2.445 26.4142 2.355 26.2342 2.175C26.0542 1.995 25.9642 1.775 25.9642 1.515C25.9642 1.255 26.0542 1.035 26.2342 0.855C26.4142 0.674999 26.6342 0.584999 26.8942 0.584999C27.1442 0.584999 27.3542 0.674999 27.5242 0.855C27.7042 1.035 27.7942 1.255 27.7942 1.515C27.7942 1.775 27.7042 1.995 27.5242 2.175C27.3542 2.355 27.1442 2.445 26.8942 2.445ZM27.5542 3.78V12H26.1892V3.78H27.5542ZM33.2256 4.905H31.5006V12H30.1356V4.905H29.0706V3.78H30.1356V3.195C30.1356 2.275 30.3706 1.605 30.8406 1.185C31.3206 0.754999 32.0856 0.539999 33.1356 0.539999V1.68C32.5356 1.68 32.1106 1.8 31.8606 2.04C31.6206 2.27 31.5006 2.655 31.5006 3.195V3.78H33.2256V4.905ZM35.5221 2.445C35.2621 2.445 35.0421 2.355 34.8621 2.175C34.6821 1.995 34.5921 1.775 34.5921 1.515C34.5921 1.255 34.6821 1.035 34.8621 0.855C35.0421 0.674999 35.2621 0.584999 35.5221 0.584999C35.7721 0.584999 35.9821 0.674999 36.1521 0.855C36.3321 1.035 36.4221 1.255 36.4221 1.515C36.4221 1.775 36.3321 1.995 36.1521 2.175C35.9821 2.355 35.7721 2.445 35.5221 2.445ZM36.1821 3.78V12H34.8171V3.78H36.1821ZM46.0085 7.575C46.0085 7.835 45.9935 8.11 45.9635 8.4H39.3935C39.4435 9.21 39.7185 9.845 40.2185 10.305C40.7285 10.755 41.3435 10.98 42.0635 10.98C42.6535 10.98 43.1435 10.845 43.5335 10.575C43.9335 10.295 44.2135 9.925 44.3735 9.465H45.8435C45.6235 10.255 45.1835 10.9 44.5235 11.4C43.8635 11.89 43.0435 12.135 42.0635 12.135C41.2835 12.135 40.5835 11.96 39.9635 11.61C39.3535 11.26 38.8735 10.765 38.5235 10.125C38.1735 9.475 37.9985 8.725 37.9985 7.875C37.9985 7.025 38.1685 6.28 38.5085 5.64C38.8485 5 39.3235 4.51 39.9335 4.17C40.5535 3.82 41.2635 3.645 42.0635 3.645C42.8435 3.645 43.5335 3.815 44.1335 4.155C44.7335 4.495 45.1935 4.965 45.5135 5.565C45.8435 6.155 46.0085 6.825 46.0085 7.575ZM44.5985 7.29C44.5985 6.77 44.4835 6.325 44.2535 5.955C44.0235 5.575 43.7085 5.29 43.3085 5.1C42.9185 4.9 42.4835 4.8 42.0035 4.8C41.3135 4.8 40.7235 5.02 40.2335 5.46C39.7535 5.9 39.4785 6.51 39.4085 7.29H44.5985ZM47.3003 7.86C47.3003 7.02 47.4703 6.285 47.8103 5.655C48.1503 5.015 48.6153 4.52 49.2053 4.17C49.8053 3.82 50.4753 3.645 51.2153 3.645C51.8553 3.645 52.4503 3.795 53.0003 4.095C53.5503 4.385 53.9703 4.77 54.2603 5.25V0.9H55.6403V12H54.2603V10.455C53.9903 10.945 53.5903 11.35 53.0603 11.67C52.5303 11.98 51.9103 12.135 51.2003 12.135C50.4703 12.135 49.8053 11.955 49.2053 11.595C48.6153 11.235 48.1503 10.73 47.8103 10.08C47.4703 9.43 47.3003 8.69 47.3003 7.86ZM54.2603 7.875C54.2603 7.255 54.1353 6.715 53.8853 6.255C53.6353 5.795 53.2953 5.445 52.8653 5.205C52.4453 4.955 51.9803 4.83 51.4703 4.83C50.9603 4.83 50.4953 4.95 50.0753 5.19C49.6553 5.43 49.3203 5.78 49.0703 6.24C48.8203 6.7 48.6953 7.24 48.6953 7.86C48.6953 8.49 48.8203 9.04 49.0703 9.51C49.3203 9.97 49.6553 10.325 50.0753 10.575C50.4953 10.815 50.9603 10.935 51.4703 10.935C51.9803 10.935 52.4453 10.815 52.8653 10.575C53.2953 10.325 53.6353 9.97 53.8853 9.51C54.1353 9.04 54.2603 8.495 54.2603 7.875ZM58.382 12.09C58.122 12.09 57.902 12 57.722 11.82C57.542 11.64 57.452 11.42 57.452 11.16C57.452 10.9 57.542 10.68 57.722 10.5C57.902 10.32 58.122 10.23 58.382 10.23C58.632 10.23 58.842 10.32 59.012 10.5C59.192 10.68 59.282 10.9 59.282 11.16C59.282 11.42 59.192 11.64 59.012 11.82C58.842 12 58.632 12.09 58.382 12.09ZM58.382 5.67C58.122 5.67 57.902 5.58 57.722 5.4C57.542 5.22 57.452 5 57.452 4.74C57.452 4.48 57.542 4.26 57.722 4.08C57.902 3.9 58.122 3.81 58.382 3.81C58.632 3.81 58.842 3.9 59.012 4.08C59.192 4.26 59.282 4.48 59.282 4.74C59.282 5 59.192 5.22 59.012 5.4C58.842 5.58 58.632 5.67 58.382 5.67ZM16.143 27.605C16.143 28.475 15.843 29.2 15.243 29.78C14.653 30.35 13.748 30.635 12.528 30.635H10.518V35H9.15305V24.545H12.528C13.708 24.545 14.603 24.83 15.213 25.4C15.833 25.97 16.143 26.705 16.143 27.605ZM12.528 29.51C13.288 29.51 13.848 29.345 14.208 29.015C14.568 28.685 14.748 28.215 14.748 27.605C14.748 26.315 14.008 25.67 12.528 25.67H10.518V29.51H12.528ZM25.3396 30.575C25.3396 30.835 25.3246 31.11 25.2946 31.4H18.7246C18.7746 32.21 19.0496 32.845 19.5496 33.305C20.0596 33.755 20.6746 33.98 21.3946 33.98C21.9846 33.98 22.4746 33.845 22.8646 33.575C23.2646 33.295 23.5446 32.925 23.7046 32.465H25.1746C24.9546 33.255 24.5146 33.9 23.8546 34.4C23.1946 34.89 22.3746 35.135 21.3946 35.135C20.6146 35.135 19.9146 34.96 19.2946 34.61C18.6846 34.26 18.2046 33.765 17.8546 33.125C17.5046 32.475 17.3296 31.725 17.3296 30.875C17.3296 30.025 17.4996 29.28 17.8396 28.64C18.1796 28 18.6546 27.51 19.2646 27.17C19.8846 26.82 20.5946 26.645 21.3946 26.645C22.1746 26.645 22.8646 26.815 23.4646 27.155C24.0646 27.495 24.5246 27.965 24.8446 28.565C25.1746 29.155 25.3396 29.825 25.3396 30.575ZM23.9296 30.29C23.9296 29.77 23.8146 29.325 23.5846 28.955C23.3546 28.575 23.0396 28.29 22.6396 28.1C22.2496 27.9 21.8146 27.8 21.3346 27.8C20.6446 27.8 20.0546 28.02 19.5646 28.46C19.0846 28.9 18.8096 29.51 18.7396 30.29H23.9296ZM28.5063 28.115C28.7463 27.645 29.0863 27.28 29.5263 27.02C29.9763 26.76 30.5213 26.63 31.1613 26.63V28.04H30.8013C29.2713 28.04 28.5063 28.87 28.5063 30.53V35H27.1413V26.78H28.5063V28.115ZM35.647 35.135C35.017 35.135 34.452 35.03 33.952 34.82C33.452 34.6 33.057 34.3 32.767 33.92C32.477 33.53 32.317 33.085 32.287 32.585H33.697C33.737 32.995 33.927 33.33 34.267 33.59C34.617 33.85 35.072 33.98 35.632 33.98C36.152 33.98 36.562 33.865 36.862 33.635C37.162 33.405 37.312 33.115 37.312 32.765C37.312 32.405 37.152 32.14 36.832 31.97C36.512 31.79 36.017 31.615 35.347 31.445C34.737 31.285 34.237 31.125 33.847 30.965C33.467 30.795 33.137 30.55 32.857 30.23C32.587 29.9 32.452 29.47 32.452 28.94C32.452 28.52 32.577 28.135 32.827 27.785C33.077 27.435 33.432 27.16 33.892 26.96C34.352 26.75 34.877 26.645 35.467 26.645C36.377 26.645 37.112 26.875 37.672 27.335C38.232 27.795 38.532 28.425 38.572 29.225H37.207C37.177 28.795 37.002 28.45 36.682 28.19C36.372 27.93 35.952 27.8 35.422 27.8C34.932 27.8 34.542 27.905 34.252 28.115C33.962 28.325 33.817 28.6 33.817 28.94C33.817 29.21 33.902 29.435 34.072 29.615C34.252 29.785 34.472 29.925 34.732 30.035C35.002 30.135 35.372 30.25 35.842 30.38C36.432 30.54 36.912 30.7 37.282 30.86C37.652 31.01 37.967 31.24 38.227 31.55C38.497 31.86 38.637 32.265 38.647 32.765C38.647 33.215 38.522 33.62 38.272 33.98C38.022 34.34 37.667 34.625 37.207 34.835C36.757 35.035 36.237 35.135 35.647 35.135ZM44.1589 35.135C43.3889 35.135 42.6889 34.96 42.0589 34.61C41.4389 34.26 40.9489 33.765 40.5889 33.125C40.2389 32.475 40.0639 31.725 40.0639 30.875C40.0639 30.035 40.2439 29.295 40.6039 28.655C40.9739 28.005 41.4739 27.51 42.1039 27.17C42.7339 26.82 43.4389 26.645 44.2189 26.645C44.9989 26.645 45.7039 26.82 46.3339 27.17C46.9639 27.51 47.4589 28 47.8189 28.64C48.1889 29.28 48.3739 30.025 48.3739 30.875C48.3739 31.725 48.1839 32.475 47.8039 33.125C47.4339 33.765 46.9289 34.26 46.2889 34.61C45.6489 34.96 44.9389 35.135 44.1589 35.135ZM44.1589 33.935C44.6489 33.935 45.1089 33.82 45.5389 33.59C45.9689 33.36 46.3139 33.015 46.5739 32.555C46.8439 32.095 46.9789 31.535 46.9789 30.875C46.9789 30.215 46.8489 29.655 46.5889 29.195C46.3289 28.735 45.9889 28.395 45.5689 28.175C45.1489 27.945 44.6939 27.83 44.2039 27.83C43.7039 27.83 43.2439 27.945 42.8239 28.175C42.4139 28.395 42.0839 28.735 41.8339 29.195C41.5839 29.655 41.4589 30.215 41.4589 30.875C41.4589 31.545 41.5789 32.11 41.8189 32.57C42.0689 33.03 42.3989 33.375 42.8089 33.605C43.2189 33.825 43.6689 33.935 44.1589 33.935ZM54.1737 26.63C55.1737 26.63 55.9837 26.935 56.6037 27.545C57.2237 28.145 57.5337 29.015 57.5337 30.155V35H56.1837V30.35C56.1837 29.53 55.9787 28.905 55.5687 28.475C55.1587 28.035 54.5987 27.815 53.8887 27.815C53.1687 27.815 52.5937 28.04 52.1637 28.49C51.7437 28.94 51.5337 29.595 51.5337 30.455V35H50.1687V26.78H51.5337V27.95C51.8037 27.53 52.1687 27.205 52.6287 26.975C53.0987 26.745 53.6137 26.63 54.1737 26.63ZM59.2534 30.86C59.2534 30.02 59.4234 29.285 59.7634 28.655C60.1034 28.015 60.5684 27.52 61.1584 27.17C61.7584 26.82 62.4234 26.645 63.1534 26.645C63.8734 26.645 64.4984 26.8 65.0284 27.11C65.5584 27.42 65.9534 27.81 66.2134 28.28V26.78H67.5934V35H66.2134V33.47C65.9434 33.95 65.5384 34.35 64.9984 34.67C64.4684 34.98 63.8484 35.135 63.1384 35.135C62.4084 35.135 61.7484 34.955 61.1584 34.595C60.5684 34.235 60.1034 33.73 59.7634 33.08C59.4234 32.43 59.2534 31.69 59.2534 30.86ZM66.2134 30.875C66.2134 30.255 66.0884 29.715 65.8384 29.255C65.5884 28.795 65.2484 28.445 64.8184 28.205C64.3984 27.955 63.9334 27.83 63.4234 27.83C62.9134 27.83 62.4484 27.95 62.0284 28.19C61.6084 28.43 61.2734 28.78 61.0234 29.24C60.7734 29.7 60.6484 30.24 60.6484 30.86C60.6484 31.49 60.7734 32.04 61.0234 32.51C61.2734 32.97 61.6084 33.325 62.0284 33.575C62.4484 33.815 62.9134 33.935 63.4234 33.935C63.9334 33.935 64.3984 33.815 64.8184 33.575C65.2484 33.325 65.5884 32.97 65.8384 32.51C66.0884 32.04 66.2134 31.495 66.2134 30.875ZM71.2651 23.9V35H69.9001V23.9H71.2651ZM78.2955 25.445C78.0355 25.445 77.8155 25.355 77.6355 25.175C77.4555 24.995 77.3655 24.775 77.3655 24.515C77.3655 24.255 77.4555 24.035 77.6355 23.855C77.8155 23.675 78.0355 23.585 78.2955 23.585C78.5455 23.585 78.7555 23.675 78.9255 23.855C79.1055 24.035 79.1955 24.255 79.1955 24.515C79.1955 24.775 79.1055 24.995 78.9255 25.175C78.7555 25.355 78.5455 25.445 78.2955 25.445ZM78.9555 26.78V35H77.5905V26.78H78.9555ZM85.287 26.63C86.287 26.63 87.097 26.935 87.717 27.545C88.337 28.145 88.647 29.015 88.647 30.155V35H87.297V30.35C87.297 29.53 87.092 28.905 86.682 28.475C86.272 28.035 85.712 27.815 85.002 27.815C84.282 27.815 83.707 28.04 83.277 28.49C82.857 28.94 82.647 29.595 82.647 30.455V35H81.282V26.78H82.647V27.95C82.917 27.53 83.282 27.205 83.742 26.975C84.212 26.745 84.727 26.63 85.287 26.63ZM94.2217 27.905H92.4967V35H91.1317V27.905H90.0667V26.78H91.1317V26.195C91.1317 25.275 91.3667 24.605 91.8367 24.185C92.3167 23.755 93.0817 23.54 94.1317 23.54V24.68C93.5317 24.68 93.1067 24.8 92.8567 25.04C92.6167 25.27 92.4967 25.655 92.4967 26.195V26.78H94.2217V27.905ZM99.3982 35.135C98.6282 35.135 97.9282 34.96 97.2982 34.61C96.6782 34.26 96.1882 33.765 95.8282 33.125C95.4782 32.475 95.3032 31.725 95.3032 30.875C95.3032 30.035 95.4832 29.295 95.8432 28.655C96.2132 28.005 96.7132 27.51 97.3432 27.17C97.9732 26.82 98.6782 26.645 99.4582 26.645C100.238 26.645 100.943 26.82 101.573 27.17C102.203 27.51 102.698 28 103.058 28.64C103.428 29.28 103.613 30.025 103.613 30.875C103.613 31.725 103.423 32.475 103.043 33.125C102.673 33.765 102.168 34.26 101.528 34.61C100.888 34.96 100.178 35.135 99.3982 35.135ZM99.3982 33.935C99.8882 33.935 100.348 33.82 100.778 33.59C101.208 33.36 101.553 33.015 101.813 32.555C102.083 32.095 102.218 31.535 102.218 30.875C102.218 30.215 102.088 29.655 101.828 29.195C101.568 28.735 101.228 28.395 100.808 28.175C100.388 27.945 99.9332 27.83 99.4432 27.83C98.9432 27.83 98.4832 27.945 98.0632 28.175C97.6532 28.395 97.3232 28.735 97.0732 29.195C96.8232 29.655 96.6982 30.215 96.6982 30.875C96.6982 31.545 96.8182 32.11 97.0582 32.57C97.3082 33.03 97.6382 33.375 98.0482 33.605C98.4582 33.825 98.9082 33.935 99.3982 33.935ZM106.773 28.115C107.013 27.645 107.353 27.28 107.793 27.02C108.243 26.76 108.788 26.63 109.428 26.63V28.04H109.068C107.538 28.04 106.773 28.87 106.773 30.53V35H105.408V26.78H106.773V28.115ZM120.889 26.63C121.529 26.63 122.099 26.765 122.599 27.035C123.099 27.295 123.494 27.69 123.784 28.22C124.074 28.75 124.219 29.395 124.219 30.155V35H122.869V30.35C122.869 29.53 122.664 28.905 122.254 28.475C121.854 28.035 121.309 27.815 120.619 27.815C119.909 27.815 119.344 28.045 118.924 28.505C118.504 28.955 118.294 29.61 118.294 30.47V35H116.944V30.35C116.944 29.53 116.739 28.905 116.329 28.475C115.929 28.035 115.384 27.815 114.694 27.815C113.984 27.815 113.419 28.045 112.999 28.505C112.579 28.955 112.369 29.61 112.369 30.47V35H111.004V26.78H112.369V27.965C112.639 27.535 112.999 27.205 113.449 26.975C113.909 26.745 114.414 26.63 114.964 26.63C115.654 26.63 116.264 26.785 116.794 27.095C117.324 27.405 117.719 27.86 117.979 28.46C118.209 27.88 118.589 27.43 119.119 27.11C119.649 26.79 120.239 26.63 120.889 26.63ZM125.948 30.86C125.948 30.02 126.118 29.285 126.458 28.655C126.798 28.015 127.263 27.52 127.853 27.17C128.453 26.82 129.118 26.645 129.848 26.645C130.568 26.645 131.193 26.8 131.723 27.11C132.253 27.42 132.648 27.81 132.908 28.28V26.78H134.288V35H132.908V33.47C132.638 33.95 132.233 34.35 131.693 34.67C131.163 34.98 130.543 35.135 129.833 35.135C129.103 35.135 128.443 34.955 127.853 34.595C127.263 34.235 126.798 33.73 126.458 33.08C126.118 32.43 125.948 31.69 125.948 30.86ZM132.908 30.875C132.908 30.255 132.783 29.715 132.533 29.255C132.283 28.795 131.943 28.445 131.513 28.205C131.093 27.955 130.628 27.83 130.118 27.83C129.608 27.83 129.143 27.95 128.723 28.19C128.303 28.43 127.968 28.78 127.718 29.24C127.468 29.7 127.343 30.24 127.343 30.86C127.343 31.49 127.468 32.04 127.718 32.51C127.968 32.97 128.303 33.325 128.723 33.575C129.143 33.815 129.608 33.935 130.118 33.935C130.628 33.935 131.093 33.815 131.513 33.575C131.943 33.325 132.283 32.97 132.533 32.51C132.783 32.04 132.908 31.495 132.908 30.875ZM138.259 27.905V32.75C138.259 33.15 138.344 33.435 138.514 33.605C138.684 33.765 138.979 33.845 139.399 33.845H140.404V35H139.174C138.414 35 137.844 34.825 137.464 34.475C137.084 34.125 136.894 33.55 136.894 32.75V27.905H135.829V26.78H136.894V24.71H138.259V26.78H140.404V27.905H138.259ZM142.763 25.445C142.503 25.445 142.283 25.355 142.103 25.175C141.923 24.995 141.833 24.775 141.833 24.515C141.833 24.255 141.923 24.035 142.103 23.855C142.283 23.675 142.503 23.585 142.763 23.585C143.013 23.585 143.223 23.675 143.393 23.855C143.573 24.035 143.663 24.255 143.663 24.515C143.663 24.775 143.573 24.995 143.393 25.175C143.223 25.355 143.013 25.445 142.763 25.445ZM143.423 26.78V35H142.058V26.78H143.423ZM149.335 35.135C148.565 35.135 147.865 34.96 147.235 34.61C146.615 34.26 146.125 33.765 145.765 33.125C145.415 32.475 145.24 31.725 145.24 30.875C145.24 30.035 145.42 29.295 145.78 28.655C146.15 28.005 146.65 27.51 147.28 27.17C147.91 26.82 148.615 26.645 149.395 26.645C150.175 26.645 150.88 26.82 151.51 27.17C152.14 27.51 152.635 28 152.995 28.64C153.365 29.28 153.55 30.025 153.55 30.875C153.55 31.725 153.36 32.475 152.98 33.125C152.61 33.765 152.105 34.26 151.465 34.61C150.825 34.96 150.115 35.135 149.335 35.135ZM149.335 33.935C149.825 33.935 150.285 33.82 150.715 33.59C151.145 33.36 151.49 33.015 151.75 32.555C152.02 32.095 152.155 31.535 152.155 30.875C152.155 30.215 152.025 29.655 151.765 29.195C151.505 28.735 151.165 28.395 150.745 28.175C150.325 27.945 149.87 27.83 149.38 27.83C148.88 27.83 148.42 27.945 148 28.175C147.59 28.395 147.26 28.735 147.01 29.195C146.76 29.655 146.635 30.215 146.635 30.875C146.635 31.545 146.755 32.11 146.995 32.57C147.245 33.03 147.575 33.375 147.985 33.605C148.395 33.825 148.845 33.935 149.335 33.935ZM159.349 26.63C160.349 26.63 161.159 26.935 161.779 27.545C162.399 28.145 162.709 29.015 162.709 30.155V35H161.359V30.35C161.359 29.53 161.154 28.905 160.744 28.475C160.334 28.035 159.774 27.815 159.064 27.815C158.344 27.815 157.769 28.04 157.339 28.49C156.919 28.94 156.709 29.595 156.709 30.455V35H155.344V26.78H156.709V27.95C156.979 27.53 157.344 27.205 157.804 26.975C158.274 26.745 158.789 26.63 159.349 26.63ZM17.073 50.575C16.783 49.965 16.363 49.495 15.813 49.165C15.263 48.825 14.623 48.655 13.893 48.655C13.163 48.655 12.503 48.825 11.913 49.165C11.333 49.495 10.873 49.975 10.533 50.605C10.203 51.225 10.038 51.945 10.038 52.765C10.038 53.585 10.203 54.305 10.533 54.925C10.873 55.545 11.333 56.025 11.913 56.365C12.503 56.695 13.163 56.86 13.893 56.86C14.913 56.86 15.753 56.555 16.413 55.945C17.073 55.335 17.458 54.51 17.568 53.47H13.398V52.36H19.023V53.41C18.943 54.27 18.673 55.06 18.213 55.78C17.753 56.49 17.148 57.055 16.398 57.475C15.648 57.885 14.813 58.09 13.893 58.09C12.923 58.09 12.038 57.865 11.238 57.415C10.438 56.955 9.80305 56.32 9.33305 55.51C8.87305 54.7 8.64305 53.785 8.64305 52.765C8.64305 51.745 8.87305 50.83 9.33305 50.02C9.80305 49.2 10.438 48.565 11.238 48.115C12.038 47.655 12.923 47.425 13.893 47.425C15.003 47.425 15.983 47.7 16.833 48.25C17.693 48.8 18.318 49.575 18.708 50.575H17.073ZM24.4129 58.135C23.6429 58.135 22.9429 57.96 22.3129 57.61C21.6929 57.26 21.2029 56.765 20.8429 56.125C20.4929 55.475 20.3179 54.725 20.3179 53.875C20.3179 53.035 20.4979 52.295 20.8579 51.655C21.2279 51.005 21.7279 50.51 22.3579 50.17C22.9879 49.82 23.6929 49.645 24.4729 49.645C25.2529 49.645 25.9579 49.82 26.5879 50.17C27.2179 50.51 27.7129 51 28.0729 51.64C28.4429 52.28 28.6279 53.025 28.6279 53.875C28.6279 54.725 28.4379 55.475 28.0579 56.125C27.6879 56.765 27.1829 57.26 26.5429 57.61C25.9029 57.96 25.1929 58.135 24.4129 58.135ZM24.4129 56.935C24.9029 56.935 25.3629 56.82 25.7929 56.59C26.2229 56.36 26.5679 56.015 26.8279 55.555C27.0979 55.095 27.2329 54.535 27.2329 53.875C27.2329 53.215 27.1029 52.655 26.8429 52.195C26.5829 51.735 26.2429 51.395 25.8229 51.175C25.4029 50.945 24.9479 50.83 24.4579 50.83C23.9579 50.83 23.4979 50.945 23.0779 51.175C22.6679 51.395 22.3379 51.735 22.0879 52.195C21.8379 52.655 21.7129 53.215 21.7129 53.875C21.7129 54.545 21.8329 55.11 22.0729 55.57C22.3229 56.03 22.6529 56.375 23.0629 56.605C23.4729 56.825 23.9229 56.935 24.4129 56.935ZM33.4826 56.74L36.0326 49.78H37.4876L34.2626 58H32.6726L29.4476 49.78H30.9176L33.4826 56.74ZM46.3308 53.575C46.3308 53.835 46.3158 54.11 46.2858 54.4H39.7158C39.7658 55.21 40.0408 55.845 40.5408 56.305C41.0508 56.755 41.6658 56.98 42.3858 56.98C42.9758 56.98 43.4658 56.845 43.8558 56.575C44.2558 56.295 44.5358 55.925 44.6958 55.465H46.1658C45.9458 56.255 45.5058 56.9 44.8458 57.4C44.1858 57.89 43.3658 58.135 42.3858 58.135C41.6058 58.135 40.9058 57.96 40.2858 57.61C39.6758 57.26 39.1958 56.765 38.8458 56.125C38.4958 55.475 38.3208 54.725 38.3208 53.875C38.3208 53.025 38.4908 52.28 38.8308 51.64C39.1708 51 39.6458 50.51 40.2558 50.17C40.8758 49.82 41.5858 49.645 42.3858 49.645C43.1658 49.645 43.8558 49.815 44.4558 50.155C45.0558 50.495 45.5158 50.965 45.8358 51.565C46.1658 52.155 46.3308 52.825 46.3308 53.575ZM44.9208 53.29C44.9208 52.77 44.8058 52.325 44.5758 51.955C44.3458 51.575 44.0308 51.29 43.6308 51.1C43.2408 50.9 42.8058 50.8 42.3258 50.8C41.6358 50.8 41.0458 51.02 40.5558 51.46C40.0758 51.9 39.8008 52.51 39.7308 53.29H44.9208ZM49.4975 51.115C49.7375 50.645 50.0775 50.28 50.5175 50.02C50.9675 49.76 51.5125 49.63 52.1525 49.63V51.04H51.7925C50.2625 51.04 49.4975 51.87 49.4975 53.53V58H48.1325V49.78H49.4975V51.115ZM57.7332 49.63C58.7332 49.63 59.5432 49.935 60.1632 50.545C60.7832 51.145 61.0932 52.015 61.0932 53.155V58H59.7432V53.35C59.7432 52.53 59.5382 51.905 59.1282 51.475C58.7182 51.035 58.1582 50.815 57.4482 50.815C56.7282 50.815 56.1532 51.04 55.7232 51.49C55.3032 51.94 55.0932 52.595 55.0932 53.455V58H53.7282V49.78H55.0932V50.95C55.3632 50.53 55.7282 50.205 56.1882 49.975C56.6582 49.745 57.1732 49.63 57.7332 49.63ZM73.208 49.63C73.848 49.63 74.418 49.765 74.918 50.035C75.418 50.295 75.813 50.69 76.103 51.22C76.393 51.75 76.538 52.395 76.538 53.155V58H75.188V53.35C75.188 52.53 74.983 51.905 74.573 51.475C74.173 51.035 73.628 50.815 72.938 50.815C72.228 50.815 71.663 51.045 71.243 51.505C70.823 51.955 70.613 52.61 70.613 53.47V58H69.263V53.35C69.263 52.53 69.058 51.905 68.648 51.475C68.248 51.035 67.703 50.815 67.013 50.815C66.303 50.815 65.738 51.045 65.318 51.505C64.898 51.955 64.688 52.61 64.688 53.47V58H63.323V49.78H64.688V50.965C64.958 50.535 65.318 50.205 65.768 49.975C66.228 49.745 66.733 49.63 67.283 49.63C67.973 49.63 68.583 49.785 69.113 50.095C69.643 50.405 70.038 50.86 70.298 51.46C70.528 50.88 70.908 50.43 71.438 50.11C71.968 49.79 72.558 49.63 73.208 49.63ZM86.2771 53.575C86.2771 53.835 86.2621 54.11 86.2321 54.4H79.6621C79.7121 55.21 79.9871 55.845 80.4871 56.305C80.9971 56.755 81.6121 56.98 82.3321 56.98C82.9221 56.98 83.4121 56.845 83.8021 56.575C84.2021 56.295 84.4821 55.925 84.6421 55.465H86.1121C85.8921 56.255 85.4521 56.9 84.7921 57.4C84.1321 57.89 83.3121 58.135 82.3321 58.135C81.5521 58.135 80.8521 57.96 80.2321 57.61C79.6221 57.26 79.1421 56.765 78.7921 56.125C78.4421 55.475 78.2671 54.725 78.2671 53.875C78.2671 53.025 78.4371 52.28 78.7771 51.64C79.1171 51 79.5921 50.51 80.2021 50.17C80.8221 49.82 81.5321 49.645 82.3321 49.645C83.1121 49.645 83.8021 49.815 84.4021 50.155C85.0021 50.495 85.4621 50.965 85.7821 51.565C86.1121 52.155 86.2771 52.825 86.2771 53.575ZM84.8671 53.29C84.8671 52.77 84.7521 52.325 84.5221 51.955C84.2921 51.575 83.9771 51.29 83.5771 51.1C83.1871 50.9 82.7521 50.8 82.2721 50.8C81.5821 50.8 80.9921 51.02 80.5021 51.46C80.0221 51.9 79.7471 52.51 79.6771 53.29H84.8671ZM92.0838 49.63C93.0838 49.63 93.8938 49.935 94.5138 50.545C95.1338 51.145 95.4438 52.015 95.4438 53.155V58H94.0938V53.35C94.0938 52.53 93.8888 51.905 93.4788 51.475C93.0688 51.035 92.5088 50.815 91.7988 50.815C91.0788 50.815 90.5038 51.04 90.0738 51.49C89.6538 51.94 89.4438 52.595 89.4438 53.455V58H88.0788V49.78H89.4438V50.95C89.7138 50.53 90.0788 50.205 90.5388 49.975C91.0088 49.745 91.5238 49.63 92.0838 49.63ZM99.3386 50.905V55.75C99.3386 56.15 99.4236 56.435 99.5936 56.605C99.7636 56.765 100.059 56.845 100.479 56.845H101.484V58H100.254C99.4936 58 98.9236 57.825 98.5436 57.475C98.1636 57.125 97.9736 56.55 97.9736 55.75V50.905H96.9086V49.78H97.9736V47.71H99.3386V49.78H101.484V50.905H99.3386ZM108.837 51.925V53.08H102.852V51.925H108.837ZM112.104 48.445C111.844 48.445 111.624 48.355 111.444 48.175C111.264 47.995 111.174 47.775 111.174 47.515C111.174 47.255 111.264 47.035 111.444 46.855C111.624 46.675 111.844 46.585 112.104 46.585C112.354 46.585 112.564 46.675 112.734 46.855C112.914 47.035 113.004 47.255 113.004 47.515C113.004 47.775 112.914 47.995 112.734 48.175C112.564 48.355 112.354 48.445 112.104 48.445ZM112.764 49.78V58H111.399V49.78H112.764ZM118.001 58.135C117.371 58.135 116.806 58.03 116.306 57.82C115.806 57.6 115.411 57.3 115.121 56.92C114.831 56.53 114.671 56.085 114.641 55.585H116.051C116.091 55.995 116.281 56.33 116.621 56.59C116.971 56.85 117.426 56.98 117.986 56.98C118.506 56.98 118.916 56.865 119.216 56.635C119.516 56.405 119.666 56.115 119.666 55.765C119.666 55.405 119.506 55.14 119.186 54.97C118.866 54.79 118.371 54.615 117.701 54.445C117.091 54.285 116.591 54.125 116.201 53.965C115.821 53.795 115.491 53.55 115.211 53.23C114.941 52.9 114.806 52.47 114.806 51.94C114.806 51.52 114.931 51.135 115.181 50.785C115.431 50.435 115.786 50.16 116.246 49.96C116.706 49.75 117.231 49.645 117.821 49.645C118.731 49.645 119.466 49.875 120.026 50.335C120.586 50.795 120.886 51.425 120.926 52.225H119.561C119.531 51.795 119.356 51.45 119.036 51.19C118.726 50.93 118.306 50.8 117.776 50.8C117.286 50.8 116.896 50.905 116.606 51.115C116.316 51.325 116.171 51.6 116.171 51.94C116.171 52.21 116.256 52.435 116.426 52.615C116.606 52.785 116.826 52.925 117.086 53.035C117.356 53.135 117.726 53.25 118.196 53.38C118.786 53.54 119.266 53.7 119.636 53.86C120.006 54.01 120.321 54.24 120.581 54.55C120.851 54.86 120.991 55.265 121.001 55.765C121.001 56.215 120.876 56.62 120.626 56.98C120.376 57.34 120.021 57.625 119.561 57.835C119.111 58.035 118.591 58.135 118.001 58.135ZM125.837 58.135C125.207 58.135 124.642 58.03 124.142 57.82C123.642 57.6 123.247 57.3 122.957 56.92C122.667 56.53 122.507 56.085 122.477 55.585H123.887C123.927 55.995 124.117 56.33 124.457 56.59C124.807 56.85 125.262 56.98 125.822 56.98C126.342 56.98 126.752 56.865 127.052 56.635C127.352 56.405 127.502 56.115 127.502 55.765C127.502 55.405 127.342 55.14 127.022 54.97C126.702 54.79 126.207 54.615 125.537 54.445C124.927 54.285 124.427 54.125 124.037 53.965C123.657 53.795 123.327 53.55 123.047 53.23C122.777 52.9 122.642 52.47 122.642 51.94C122.642 51.52 122.767 51.135 123.017 50.785C123.267 50.435 123.622 50.16 124.082 49.96C124.542 49.75 125.067 49.645 125.657 49.645C126.567 49.645 127.302 49.875 127.862 50.335C128.422 50.795 128.722 51.425 128.762 52.225H127.397C127.367 51.795 127.192 51.45 126.872 51.19C126.562 50.93 126.142 50.8 125.612 50.8C125.122 50.8 124.732 50.905 124.442 51.115C124.152 51.325 124.007 51.6 124.007 51.94C124.007 52.21 124.092 52.435 124.262 52.615C124.442 52.785 124.662 52.925 124.922 53.035C125.192 53.135 125.562 53.25 126.032 53.38C126.622 53.54 127.102 53.7 127.472 53.86C127.842 54.01 128.157 54.24 128.417 54.55C128.687 54.86 128.827 55.265 128.837 55.765C128.837 56.215 128.712 56.62 128.462 56.98C128.212 57.34 127.857 57.625 127.397 57.835C126.947 58.035 126.427 58.135 125.837 58.135ZM138.054 49.78V58H136.689V56.785C136.429 57.205 136.064 57.535 135.594 57.775C135.134 58.005 134.624 58.12 134.064 58.12C133.424 58.12 132.849 57.99 132.339 57.73C131.829 57.46 131.424 57.06 131.124 56.53C130.834 56 130.689 55.355 130.689 54.595V49.78H132.039V54.415C132.039 55.225 132.244 55.85 132.654 56.29C133.064 56.72 133.624 56.935 134.334 56.935C135.064 56.935 135.639 56.71 136.059 56.26C136.479 55.81 136.689 55.155 136.689 54.295V49.78H138.054ZM147.859 53.575C147.859 53.835 147.844 54.11 147.814 54.4H141.244C141.294 55.21 141.569 55.845 142.069 56.305C142.579 56.755 143.194 56.98 143.914 56.98C144.504 56.98 144.994 56.845 145.384 56.575C145.784 56.295 146.064 55.925 146.224 55.465H147.694C147.474 56.255 147.034 56.9 146.374 57.4C145.714 57.89 144.894 58.135 143.914 58.135C143.134 58.135 142.434 57.96 141.814 57.61C141.204 57.26 140.724 56.765 140.374 56.125C140.024 55.475 139.849 54.725 139.849 53.875C139.849 53.025 140.019 52.28 140.359 51.64C140.699 51 141.174 50.51 141.784 50.17C142.404 49.82 143.114 49.645 143.914 49.645C144.694 49.645 145.384 49.815 145.984 50.155C146.584 50.495 147.044 50.965 147.364 51.565C147.694 52.155 147.859 52.825 147.859 53.575ZM146.449 53.29C146.449 52.77 146.334 52.325 146.104 51.955C145.874 51.575 145.559 51.29 145.159 51.1C144.769 50.9 144.334 50.8 143.854 50.8C143.164 50.8 142.574 51.02 142.084 51.46C141.604 51.9 141.329 52.51 141.259 53.29H146.449ZM149.151 53.86C149.151 53.02 149.321 52.285 149.661 51.655C150.001 51.015 150.466 50.52 151.056 50.17C151.656 49.82 152.326 49.645 153.066 49.645C153.706 49.645 154.301 49.795 154.851 50.095C155.401 50.385 155.821 50.77 156.111 51.25V46.9H157.491V58H156.111V56.455C155.841 56.945 155.441 57.35 154.911 57.67C154.381 57.98 153.761 58.135 153.051 58.135C152.321 58.135 151.656 57.955 151.056 57.595C150.466 57.235 150.001 56.73 149.661 56.08C149.321 55.43 149.151 54.69 149.151 53.86ZM156.111 53.875C156.111 53.255 155.986 52.715 155.736 52.255C155.486 51.795 155.146 51.445 154.716 51.205C154.296 50.955 153.831 50.83 153.321 50.83C152.811 50.83 152.346 50.95 151.926 51.19C151.506 51.43 151.171 51.78 150.921 52.24C150.671 52.7 150.546 53.24 150.546 53.86C150.546 54.49 150.671 55.04 150.921 55.51C151.171 55.97 151.506 56.325 151.926 56.575C152.346 56.815 152.811 56.935 153.321 56.935C153.831 56.935 154.296 56.815 154.716 56.575C155.146 56.325 155.486 55.97 155.736 55.51C155.986 55.04 156.111 54.495 156.111 53.875ZM165.162 47.545V58H163.797V47.545H165.162ZM170.743 47.545C171.883 47.545 172.868 47.76 173.698 48.19C174.538 48.61 175.178 49.215 175.618 50.005C176.068 50.795 176.293 51.725 176.293 52.795C176.293 53.865 176.068 54.795 175.618 55.585C175.178 56.365 174.538 56.965 173.698 57.385C172.868 57.795 171.883 58 170.743 58H167.488V47.545H170.743ZM170.743 56.875C172.093 56.875 173.123 56.52 173.833 55.81C174.543 55.09 174.898 54.085 174.898 52.795C174.898 51.495 174.538 50.48 173.818 49.75C173.108 49.02 172.083 48.655 170.743 48.655H168.853V56.875H170.743ZM15.063 70.545V71.655H10.518V75.18H14.208V76.29H10.518V81H9.15305V70.545H15.063ZM16.2016 76.86C16.2016 76.02 16.3716 75.285 16.7116 74.655C17.0516 74.015 17.5166 73.52 18.1066 73.17C18.7066 72.82 19.3716 72.645 20.1016 72.645C20.8216 72.645 21.4466 72.8 21.9766 73.11C22.5066 73.42 22.9016 73.81 23.1616 74.28V72.78H24.5416V81H23.1616V79.47C22.8916 79.95 22.4866 80.35 21.9466 80.67C21.4166 80.98 20.7966 81.135 20.0866 81.135C19.3566 81.135 18.6966 80.955 18.1066 80.595C17.5166 80.235 17.0516 79.73 16.7116 79.08C16.3716 78.43 16.2016 77.69 16.2016 76.86ZM23.1616 76.875C23.1616 76.255 23.0366 75.715 22.7866 75.255C22.5366 74.795 22.1966 74.445 21.7666 74.205C21.3466 73.955 20.8816 73.83 20.3716 73.83C19.8616 73.83 19.3966 73.95 18.9766 74.19C18.5566 74.43 18.2216 74.78 17.9716 75.24C17.7216 75.7 17.5966 76.24 17.5966 76.86C17.5966 77.49 17.7216 78.04 17.9716 78.51C18.2216 78.97 18.5566 79.325 18.9766 79.575C19.3966 79.815 19.8616 79.935 20.3716 79.935C20.8816 79.935 21.3466 79.815 21.7666 79.575C22.1966 79.325 22.5366 78.97 22.7866 78.51C23.0366 78.04 23.1616 77.495 23.1616 76.875ZM26.3384 76.875C26.3384 76.025 26.5084 75.285 26.8484 74.655C27.1884 74.015 27.6584 73.52 28.2584 73.17C28.8684 72.82 29.5634 72.645 30.3434 72.645C31.3534 72.645 32.1834 72.89 32.8334 73.38C33.4934 73.87 33.9284 74.55 34.1384 75.42H32.6684C32.5284 74.92 32.2534 74.525 31.8434 74.235C31.4434 73.945 30.9434 73.8 30.3434 73.8C29.5634 73.8 28.9334 74.07 28.4534 74.61C27.9734 75.14 27.7334 75.895 27.7334 76.875C27.7334 77.865 27.9734 78.63 28.4534 79.17C28.9334 79.71 29.5634 79.98 30.3434 79.98C30.9434 79.98 31.4434 79.84 31.8434 79.56C32.2434 79.28 32.5184 78.88 32.6684 78.36H34.1384C33.9184 79.2 33.4784 79.875 32.8184 80.385C32.1584 80.885 31.3334 81.135 30.3434 81.135C29.5634 81.135 28.8684 80.96 28.2584 80.61C27.6584 80.26 27.1884 79.765 26.8484 79.125C26.5084 78.485 26.3384 77.735 26.3384 76.875ZM36.6647 71.445C36.4047 71.445 36.1847 71.355 36.0047 71.175C35.8247 70.995 35.7347 70.775 35.7347 70.515C35.7347 70.255 35.8247 70.035 36.0047 69.855C36.1847 69.675 36.4047 69.585 36.6647 69.585C36.9147 69.585 37.1247 69.675 37.2947 69.855C37.4747 70.035 37.5647 70.255 37.5647 70.515C37.5647 70.775 37.4747 70.995 37.2947 71.175C37.1247 71.355 36.9147 71.445 36.6647 71.445ZM37.3247 72.78V81H35.9597V72.78H37.3247ZM39.1411 76.86C39.1411 76.02 39.3111 75.285 39.6511 74.655C39.9911 74.015 40.4561 73.52 41.0461 73.17C41.6461 72.82 42.3111 72.645 43.0411 72.645C43.7611 72.645 44.3861 72.8 44.9161 73.11C45.4461 73.42 45.8411 73.81 46.1011 74.28V72.78H47.4811V81H46.1011V79.47C45.8311 79.95 45.4261 80.35 44.8861 80.67C44.3561 80.98 43.7361 81.135 43.0261 81.135C42.2961 81.135 41.6361 80.955 41.0461 80.595C40.4561 80.235 39.9911 79.73 39.6511 79.08C39.3111 78.43 39.1411 77.69 39.1411 76.86ZM46.1011 76.875C46.1011 76.255 45.9761 75.715 45.7261 75.255C45.4761 74.795 45.1361 74.445 44.7061 74.205C44.2861 73.955 43.8211 73.83 43.3111 73.83C42.8011 73.83 42.3361 73.95 41.9161 74.19C41.4961 74.43 41.1611 74.78 40.9111 75.24C40.6611 75.7 40.5361 76.24 40.5361 76.86C40.5361 77.49 40.6611 78.04 40.9111 78.51C41.1611 78.97 41.4961 79.325 41.9161 79.575C42.3361 79.815 42.8011 79.935 43.3111 79.935C43.8211 79.935 44.2861 79.815 44.7061 79.575C45.1361 79.325 45.4761 78.97 45.7261 78.51C45.9761 78.04 46.1011 77.495 46.1011 76.875ZM51.1528 69.9V81H49.7878V69.9H51.1528ZM58.8432 74.115C59.0832 73.645 59.4232 73.28 59.8632 73.02C60.3132 72.76 60.8582 72.63 61.4982 72.63V74.04H61.1382C59.6082 74.04 58.8432 74.87 58.8432 76.53V81H57.4782V72.78H58.8432V74.115ZM70.5739 76.575C70.5739 76.835 70.5589 77.11 70.5289 77.4H63.9589C64.0089 78.21 64.2839 78.845 64.7839 79.305C65.2939 79.755 65.9089 79.98 66.6289 79.98C67.2189 79.98 67.7089 79.845 68.0989 79.575C68.4989 79.295 68.7789 78.925 68.9389 78.465H70.4089C70.1889 79.255 69.7489 79.9 69.0889 80.4C68.4289 80.89 67.6089 81.135 66.6289 81.135C65.8489 81.135 65.1489 80.96 64.5289 80.61C63.9189 80.26 63.4389 79.765 63.0889 79.125C62.7389 78.475 62.5639 77.725 62.5639 76.875C62.5639 76.025 62.7339 75.28 63.0739 74.64C63.4139 74 63.8889 73.51 64.4989 73.17C65.1189 72.82 65.8289 72.645 66.6289 72.645C67.4089 72.645 68.0989 72.815 68.6989 73.155C69.2989 73.495 69.7589 73.965 70.0789 74.565C70.4089 75.155 70.5739 75.825 70.5739 76.575ZM69.1639 76.29C69.1639 75.77 69.0489 75.325 68.8189 74.955C68.5889 74.575 68.2739 74.29 67.8739 74.1C67.4839 73.9 67.0489 73.8 66.5689 73.8C65.8789 73.8 65.2889 74.02 64.7989 74.46C64.3189 74.9 64.0439 75.51 63.9739 76.29H69.1639ZM71.8657 76.875C71.8657 76.025 72.0357 75.285 72.3757 74.655C72.7157 74.015 73.1857 73.52 73.7857 73.17C74.3957 72.82 75.0907 72.645 75.8707 72.645C76.8807 72.645 77.7107 72.89 78.3607 73.38C79.0207 73.87 79.4557 74.55 79.6657 75.42H78.1957C78.0557 74.92 77.7807 74.525 77.3707 74.235C76.9707 73.945 76.4707 73.8 75.8707 73.8C75.0907 73.8 74.4607 74.07 73.9807 74.61C73.5007 75.14 73.2607 75.895 73.2607 76.875C73.2607 77.865 73.5007 78.63 73.9807 79.17C74.4607 79.71 75.0907 79.98 75.8707 79.98C76.4707 79.98 76.9707 79.84 77.3707 79.56C77.7707 79.28 78.0457 78.88 78.1957 78.36H79.6657C79.4457 79.2 79.0057 79.875 78.3457 80.385C77.6857 80.885 76.8607 81.135 75.8707 81.135C75.0907 81.135 74.3957 80.96 73.7857 80.61C73.1857 80.26 72.7157 79.765 72.3757 79.125C72.0357 78.485 71.8657 77.735 71.8657 76.875ZM85.072 81.135C84.302 81.135 83.602 80.96 82.972 80.61C82.352 80.26 81.862 79.765 81.502 79.125C81.152 78.475 80.977 77.725 80.977 76.875C80.977 76.035 81.157 75.295 81.517 74.655C81.887 74.005 82.387 73.51 83.017 73.17C83.647 72.82 84.352 72.645 85.132 72.645C85.912 72.645 86.617 72.82 87.247 73.17C87.877 73.51 88.372 74 88.732 74.64C89.102 75.28 89.287 76.025 89.287 76.875C89.287 77.725 89.097 78.475 88.717 79.125C88.347 79.765 87.842 80.26 87.202 80.61C86.562 80.96 85.852 81.135 85.072 81.135ZM85.072 79.935C85.562 79.935 86.022 79.82 86.452 79.59C86.882 79.36 87.227 79.015 87.487 78.555C87.757 78.095 87.892 77.535 87.892 76.875C87.892 76.215 87.762 75.655 87.502 75.195C87.242 74.735 86.902 74.395 86.482 74.175C86.062 73.945 85.607 73.83 85.117 73.83C84.617 73.83 84.157 73.945 83.737 74.175C83.327 74.395 82.997 74.735 82.747 75.195C82.497 75.655 82.372 76.215 82.372 76.875C82.372 77.545 82.492 78.11 82.732 78.57C82.982 79.03 83.312 79.375 83.722 79.605C84.132 79.825 84.582 79.935 85.072 79.935ZM94.4718 72.645C95.1818 72.645 95.8018 72.8 96.3318 73.11C96.8718 73.42 97.2718 73.81 97.5318 74.28V72.78H98.9118V81.18C98.9118 81.93 98.7518 82.595 98.4318 83.175C98.1118 83.765 97.6518 84.225 97.0518 84.555C96.4618 84.885 95.7718 85.05 94.9818 85.05C93.9018 85.05 93.0018 84.795 92.2818 84.285C91.5618 83.775 91.1368 83.08 91.0068 82.2H92.3568C92.5068 82.7 92.8168 83.1 93.2868 83.4C93.7568 83.71 94.3218 83.865 94.9818 83.865C95.7318 83.865 96.3418 83.63 96.8118 83.16C97.2918 82.69 97.5318 82.03 97.5318 81.18V79.455C97.2618 79.935 96.8618 80.335 96.3318 80.655C95.8018 80.975 95.1818 81.135 94.4718 81.135C93.7418 81.135 93.0768 80.955 92.4768 80.595C91.8868 80.235 91.4218 79.73 91.0818 79.08C90.7418 78.43 90.5718 77.69 90.5718 76.86C90.5718 76.02 90.7418 75.285 91.0818 74.655C91.4218 74.015 91.8868 73.52 92.4768 73.17C93.0768 72.82 93.7418 72.645 94.4718 72.645ZM97.5318 76.875C97.5318 76.255 97.4068 75.715 97.1568 75.255C96.9068 74.795 96.5668 74.445 96.1368 74.205C95.7168 73.955 95.2518 73.83 94.7418 73.83C94.2318 73.83 93.7668 73.95 93.3468 74.19C92.9268 74.43 92.5918 74.78 92.3418 75.24C92.0918 75.7 91.9668 76.24 91.9668 76.86C91.9668 77.49 92.0918 78.04 92.3418 78.51C92.5918 78.97 92.9268 79.325 93.3468 79.575C93.7668 79.815 94.2318 79.935 94.7418 79.935C95.2518 79.935 95.7168 79.815 96.1368 79.575C96.5668 79.325 96.9068 78.97 97.1568 78.51C97.4068 78.04 97.5318 77.495 97.5318 76.875ZM105.223 72.63C106.223 72.63 107.033 72.935 107.653 73.545C108.273 74.145 108.583 75.015 108.583 76.155V81H107.233V76.35C107.233 75.53 107.028 74.905 106.618 74.475C106.208 74.035 105.648 73.815 104.938 73.815C104.218 73.815 103.643 74.04 103.213 74.49C102.793 74.94 102.583 75.595 102.583 76.455V81H101.218V72.78H102.583V73.95C102.853 73.53 103.218 73.205 103.678 72.975C104.148 72.745 104.663 72.63 105.223 72.63ZM111.518 71.445C111.258 71.445 111.038 71.355 110.858 71.175C110.678 70.995 110.588 70.775 110.588 70.515C110.588 70.255 110.678 70.035 110.858 69.855C111.038 69.675 111.258 69.585 111.518 69.585C111.768 69.585 111.978 69.675 112.148 69.855C112.328 70.035 112.418 70.255 112.418 70.515C112.418 70.775 112.328 70.995 112.148 71.175C111.978 71.355 111.768 71.445 111.518 71.445ZM112.178 72.78V81H110.813V72.78H112.178ZM116.17 73.905V78.75C116.17 79.15 116.255 79.435 116.425 79.605C116.595 79.765 116.89 79.845 117.31 79.845H118.315V81H117.085C116.325 81 115.755 80.825 115.375 80.475C114.995 80.125 114.805 79.55 114.805 78.75V73.905H113.74V72.78H114.805V70.71H116.17V72.78H118.315V73.905H116.17ZM120.673 71.445C120.413 71.445 120.193 71.355 120.013 71.175C119.833 70.995 119.743 70.775 119.743 70.515C119.743 70.255 119.833 70.035 120.013 69.855C120.193 69.675 120.413 69.585 120.673 69.585C120.923 69.585 121.133 69.675 121.303 69.855C121.483 70.035 121.573 70.255 121.573 70.515C121.573 70.775 121.483 70.995 121.303 71.175C121.133 71.355 120.923 71.445 120.673 71.445ZM121.333 72.78V81H119.968V72.78H121.333ZM127.245 81.135C126.475 81.135 125.775 80.96 125.145 80.61C124.525 80.26 124.035 79.765 123.675 79.125C123.325 78.475 123.15 77.725 123.15 76.875C123.15 76.035 123.33 75.295 123.69 74.655C124.06 74.005 124.56 73.51 125.19 73.17C125.82 72.82 126.525 72.645 127.305 72.645C128.085 72.645 128.79 72.82 129.42 73.17C130.05 73.51 130.545 74 130.905 74.64C131.275 75.28 131.46 76.025 131.46 76.875C131.46 77.725 131.27 78.475 130.89 79.125C130.52 79.765 130.015 80.26 129.375 80.61C128.735 80.96 128.025 81.135 127.245 81.135ZM127.245 79.935C127.735 79.935 128.195 79.82 128.625 79.59C129.055 79.36 129.4 79.015 129.66 78.555C129.93 78.095 130.065 77.535 130.065 76.875C130.065 76.215 129.935 75.655 129.675 75.195C129.415 74.735 129.075 74.395 128.655 74.175C128.235 73.945 127.78 73.83 127.29 73.83C126.79 73.83 126.33 73.945 125.91 74.175C125.5 74.395 125.17 74.735 124.92 75.195C124.67 75.655 124.545 76.215 124.545 76.875C124.545 77.545 124.665 78.11 124.905 78.57C125.155 79.03 125.485 79.375 125.895 79.605C126.305 79.825 126.755 79.935 127.245 79.935ZM137.26 72.63C138.26 72.63 139.07 72.935 139.69 73.545C140.31 74.145 140.62 75.015 140.62 76.155V81H139.27V76.35C139.27 75.53 139.065 74.905 138.655 74.475C138.245 74.035 137.685 73.815 136.975 73.815C136.255 73.815 135.68 74.04 135.25 74.49C134.83 74.94 134.62 75.595 134.62 76.455V81H133.255V72.78H134.62V73.95C134.89 73.53 135.255 73.205 135.715 72.975C136.185 72.745 136.7 72.63 137.26 72.63Z" fill="white"/>
</svg>
