<svg xmlns="http://www.w3.org/2000/svg" width="24" height="24" viewBox="0 0 24 24" fill="none">
  <rect width="24" height="24" rx="12" fill="white" fill-opacity="0.2"/>
  <path d="M15.973 18.698H8.43558C5.11158 18.698 4.10156 17.688 4.10156 14.364V8.33402C4.10156 5.01001 5.11158 4 8.43558 4H15.973C19.297 4 20.307 5.01001 20.307 8.33402V14.364C20.307 17.688 19.297 18.698 15.973 18.698ZM8.43558 5.13061C5.73718 5.13061 5.23218 5.64316 5.23218 8.33402V14.364C5.23218 17.0548 5.73718 17.5674 8.43558 17.5674H15.973C18.6714 17.5674 19.1764 17.0548 19.1764 14.364V8.33402C19.1764 5.64316 18.6714 5.13061 15.973 5.13061H8.43558Z" fill="white"/>
  <path d="M17.4785 8.89624H13.7098C13.4008 8.89624 13.1445 8.63997 13.1445 8.33093C13.1445 8.0219 13.4008 7.76562 13.7098 7.76562H17.4785C17.7876 7.76562 18.0439 8.0219 18.0439 8.33093C18.0439 8.63997 17.7876 8.89624 17.4785 8.89624Z" fill="white"/>
  <path d="M17.4787 11.9119H14.4637C14.1547 11.9119 13.8984 11.6556 13.8984 11.3466C13.8984 11.0375 14.1547 10.7812 14.4637 10.7812H17.4787C17.7877 10.7812 18.044 11.0375 18.044 11.3466C18.044 11.6556 17.7877 11.9119 17.4787 11.9119Z" fill="white"/>
  <path d="M17.479 14.9275H15.9716C15.6625 14.9275 15.4062 14.6712 15.4062 14.3622C15.4062 14.0531 15.6625 13.7969 15.9716 13.7969H17.479C17.7881 13.7969 18.0443 14.0531 18.0443 14.3622C18.0443 14.6712 17.7881 14.9275 17.479 14.9275Z" fill="white"/>
  <path d="M9.5663 11.3826C8.50352 11.3826 7.63672 10.5158 7.63672 9.45302C7.63672 8.39024 8.50352 7.52344 9.5663 7.52344C10.6291 7.52344 11.4959 8.39024 11.4959 9.45302C11.4959 10.5158 10.6291 11.3826 9.5663 11.3826ZM9.5663 8.65405C9.12913 8.65405 8.76733 9.01585 8.76733 9.45302C8.76733 9.89017 9.12913 10.252 9.5663 10.252C10.0035 10.252 10.3653 9.89017 10.3653 9.45302C10.3653 9.01585 10.0035 8.65405 9.5663 8.65405Z" fill="white"/>
  <path d="M12.2033 15.17C11.9169 15.17 11.6681 14.9514 11.638 14.6574C11.5551 13.8434 10.8993 13.1877 10.0777 13.1123C9.73102 13.0821 9.3843 13.0821 9.03758 13.1123C8.216 13.1877 7.56025 13.8359 7.47733 14.6574C7.44719 14.9665 7.1683 15.2001 6.85927 15.1625C6.55023 15.1323 6.32411 14.8534 6.35426 14.5444C6.48993 13.1877 7.56778 12.1098 8.93206 11.9892C9.34662 11.9515 9.76871 11.9515 10.1833 11.9892C11.54 12.1173 12.6254 13.1952 12.7611 14.5444C12.7912 14.8534 12.5651 15.1323 12.2561 15.1625C12.241 15.17 12.2184 15.17 12.2033 15.17Z" fill="white"/>
</svg>