<svg xmlns="http://www.w3.org/2000/svg" width="24" height="24" viewBox="0 0 24 24" fill="none">
  <rect width="24" height="24" rx="3" fill="#717A8B"/>
  <path d="M16.3853 20.698H7.8222C4.04589 20.698 2.89844 19.5505 2.89844 15.7742V8.92376C2.89844 5.14745 4.04589 4 7.8222 4H16.3853C20.1616 4 21.309 5.14745 21.309 8.92376V15.7742C21.309 19.5505 20.1616 20.698 16.3853 20.698ZM7.8222 5.28446C4.75662 5.28446 4.1829 5.86675 4.1829 8.92376V15.7742C4.1829 18.8312 4.75662 19.4135 7.8222 19.4135H16.3853C19.4508 19.4135 20.0246 18.8312 20.0246 15.7742V8.92376C20.0246 5.86675 19.4508 5.28446 16.3853 5.28446H7.8222Z" fill="white"/>
  <path d="M18.0995 9.56571H13.818C13.4669 9.56571 13.1758 9.27457 13.1758 8.92348C13.1758 8.57239 13.4669 8.28125 13.818 8.28125H18.0995C18.4506 8.28125 18.7418 8.57239 18.7418 8.92348C18.7418 9.27457 18.4506 9.56571 18.0995 9.56571Z" fill="white"/>
  <path d="M18.0987 12.9876H14.6735C14.3224 12.9876 14.0312 12.6964 14.0312 12.3454C14.0312 11.9943 14.3224 11.7031 14.6735 11.7031H18.0987C18.4498 11.7031 18.7409 11.9943 18.7409 12.3454C18.7409 12.6964 18.4498 12.9876 18.0987 12.9876Z" fill="white"/>
  <path d="M18.097 16.4173H16.3844C16.0333 16.4173 15.7422 16.1261 15.7422 15.775C15.7422 15.424 16.0333 15.1328 16.3844 15.1328H18.097C18.4481 15.1328 18.7393 15.424 18.7393 15.775C18.7393 16.1261 18.4481 16.4173 18.097 16.4173Z" fill="white"/>
  <path d="M9.10621 12.3843C7.89881 12.3843 6.91406 11.3995 6.91406 10.1921C6.91406 8.98475 7.89881 8 9.10621 8C10.3136 8 11.2983 8.98475 11.2983 10.1921C11.2983 11.3995 10.3136 12.3843 9.10621 12.3843ZM9.10621 9.28446C8.60955 9.28446 8.19852 9.69549 8.19852 10.1921C8.19852 10.6888 8.60955 11.0998 9.10621 11.0998C9.60286 11.0998 10.0139 10.6888 10.0139 10.1921C10.0139 9.69549 9.60286 9.28446 9.10621 9.28446Z" fill="white"/>
  <path d="M12.105 16.6926C11.7796 16.6926 11.497 16.4443 11.4628 16.1103C11.3686 15.1855 10.6236 14.4405 9.69025 14.3549C9.29635 14.3206 8.90245 14.3206 8.50854 14.3549C7.57517 14.4405 6.83018 15.1769 6.73599 16.1103C6.70174 16.4614 6.38491 16.7269 6.03382 16.684C5.68273 16.6498 5.42584 16.3329 5.46009 15.9819C5.61423 14.4405 6.83875 13.216 8.38866 13.079C8.85963 13.0362 9.33916 13.0362 9.81013 13.079C11.3515 13.2246 12.5846 14.4491 12.7387 15.9819C12.7729 16.3329 12.516 16.6498 12.165 16.684C12.1478 16.6926 12.1221 16.6926 12.105 16.6926Z" fill="white"/>
</svg>