<svg xmlns="http://www.w3.org/2000/svg" width="24" height="24" viewBox="0 0 24 24" fill="none">
<rect width="24" height="24" rx="3" fill="#717A8B"/>
<path d="M18.4002 11.1016H5.80002C4.8059 11.1016 4 11.9075 4 12.9016V19.2016C4 20.1958 4.8059 21.0017 5.80002 21.0017H18.4002C19.3943 21.0017 20.2002 20.1958 20.2002 19.2016V12.9016C20.2002 11.9075 19.3943 11.1016 18.4002 11.1016Z" stroke="white" stroke-width="1.5" stroke-linecap="round" stroke-linejoin="round"/>
<path d="M7.60156 11.1001V7.50005C7.60156 6.30656 8.07567 5.16196 8.9196 4.31803C9.76352 3.47411 10.9081 3 12.1016 3C13.2951 3 14.4397 3.47411 15.2836 4.31803C16.1275 5.16196 16.6017 6.30656 16.6017 7.50005V11.1001" stroke="white" stroke-width="1.5" stroke-linecap="round" stroke-linejoin="round"/>
</svg>