<svg xmlns="http://www.w3.org/2000/svg" width="24" height="24" viewBox="0 0 24 24" fill="none">
  <rect width="24" height="24" rx="3" fill="#717A8B"/>
  <path d="M12.5018 14.8161C13.7821 14.8161 14.82 13.7782 14.82 12.4979C14.82 11.2176 13.7821 10.1797 12.5018 10.1797C11.2215 10.1797 10.1836 11.2176 10.1836 12.4979C10.1836 13.7782 11.2215 14.8161 12.5018 14.8161Z" stroke="white" stroke-width="1.5" stroke-linecap="round" stroke-linejoin="round"/>
  <path d="M18.2182 14.8182C18.1153 15.0512 18.0846 15.3098 18.1301 15.5605C18.1755 15.8111 18.295 16.0424 18.4732 16.2245L18.5195 16.2709C18.6632 16.4144 18.7772 16.5849 18.855 16.7725C18.9328 16.9601 18.9728 17.1612 18.9728 17.3643C18.9728 17.5674 18.9328 17.7685 18.855 17.9561C18.7772 18.1437 18.6632 18.3142 18.5195 18.4577C18.376 18.6014 18.2056 18.7154 18.018 18.7932C17.8303 18.871 17.6292 18.911 17.4261 18.911C17.223 18.911 17.0219 18.871 16.8343 18.7932C16.6467 18.7154 16.4763 18.6014 16.3327 18.4577L16.2864 18.4114C16.1042 18.2332 15.8729 18.1137 15.6223 18.0683C15.3716 18.0228 15.1131 18.0535 14.88 18.1564C14.6515 18.2543 14.4565 18.417 14.3192 18.6243C14.1819 18.8316 14.1083 19.0745 14.1073 19.3232V19.4545C14.1073 19.8644 13.9444 20.2575 13.6546 20.5473C13.3648 20.8372 12.9717 21 12.5618 21C12.1519 21 11.7588 20.8372 11.469 20.5473C11.1792 20.2575 11.0164 19.8644 11.0164 19.4545V19.385C11.0104 19.1292 10.9276 18.8812 10.7788 18.6731C10.6299 18.465 10.4219 18.3065 10.1818 18.2182C9.94875 18.1153 9.69021 18.0846 9.43955 18.1301C9.18888 18.1755 8.95757 18.295 8.77545 18.4732L8.72909 18.5195C8.58556 18.6632 8.41511 18.7772 8.2275 18.855C8.03988 18.9328 7.83878 18.9728 7.63568 18.9728C7.43259 18.9728 7.23148 18.9328 7.04386 18.855C6.85625 18.7772 6.6858 18.6632 6.54227 18.5195C6.39858 18.376 6.28459 18.2056 6.20682 18.018C6.12904 17.8303 6.08901 17.6292 6.08901 17.4261C6.08901 17.223 6.12904 17.0219 6.20682 16.8343C6.28459 16.6467 6.39858 16.4763 6.54227 16.3327L6.58864 16.2864C6.76678 16.1042 6.88628 15.8729 6.93173 15.6223C6.97718 15.3716 6.9465 15.1131 6.84364 14.88C6.74568 14.6515 6.58304 14.4565 6.37572 14.3192C6.16841 14.1819 5.92547 14.1083 5.67682 14.1073H5.54545C5.13557 14.1073 4.74248 13.9444 4.45265 13.6546C4.16282 13.3648 4 12.9717 4 12.5618C4 12.1519 4.16282 11.7588 4.45265 11.469C4.74248 11.1792 5.13557 11.0164 5.54545 11.0164H5.615C5.87077 11.0104 6.11882 10.9276 6.32691 10.7788C6.535 10.6299 6.69351 10.4219 6.78182 10.1818C6.88468 9.94875 6.91536 9.69021 6.86991 9.43955C6.82446 9.18888 6.70496 8.95757 6.52682 8.77545L6.48045 8.72909C6.33676 8.58556 6.22277 8.41511 6.145 8.2275C6.06722 8.03988 6.02719 7.83878 6.02719 7.63568C6.02719 7.43259 6.06722 7.23148 6.145 7.04386C6.22277 6.85625 6.33676 6.6858 6.48045 6.54227C6.62399 6.39858 6.79443 6.28459 6.98205 6.20682C7.16966 6.12904 7.37077 6.08901 7.57386 6.08901C7.77696 6.08901 7.97807 6.12904 8.16568 6.20682C8.3533 6.28459 8.52374 6.39858 8.66727 6.54227L8.71364 6.58864C8.89575 6.76678 9.12706 6.88628 9.37773 6.93173C9.6284 6.97718 9.88693 6.9465 10.12 6.84364H10.1818C10.4104 6.74568 10.6053 6.58304 10.7426 6.37572C10.8799 6.16841 10.9536 5.92547 10.9545 5.67682V5.54545C10.9545 5.13557 11.1174 4.74248 11.4072 4.45265C11.697 4.16282 12.0901 4 12.5 4C12.9099 4 13.303 4.16282 13.5928 4.45265C13.8826 4.74248 14.0455 5.13557 14.0455 5.54545V5.615C14.0464 5.86365 14.1201 6.10659 14.2574 6.31391C14.3947 6.52122 14.5896 6.68386 14.8182 6.78182C15.0512 6.88468 15.3098 6.91536 15.5605 6.86991C15.8111 6.82446 16.0424 6.70496 16.2245 6.52682L16.2709 6.48045C16.4144 6.33676 16.5849 6.22277 16.7725 6.145C16.9601 6.06722 17.1612 6.02719 17.3643 6.02719C17.5674 6.02719 17.7685 6.06722 17.9561 6.145C18.1437 6.22277 18.3142 6.33676 18.4577 6.48045C18.6014 6.62399 18.7154 6.79443 18.7932 6.98205C18.871 7.16966 18.911 7.37077 18.911 7.57386C18.911 7.77696 18.871 7.97807 18.7932 8.16568C18.7154 8.3533 18.6014 8.52374 18.4577 8.66727L18.4114 8.71364C18.2332 8.89575 18.1137 9.12706 18.0683 9.37773C18.0228 9.6284 18.0535 9.88693 18.1564 10.12V10.1818C18.2543 10.4104 18.417 10.6053 18.6243 10.7426C18.8316 10.8799 19.0745 10.9536 19.3232 10.9545H19.4545C19.8644 10.9545 20.2575 11.1174 20.5473 11.4072C20.8372 11.697 21 12.0901 21 12.5C21 12.9099 20.8372 13.303 20.5473 13.5928C20.2575 13.8826 19.8644 14.0455 19.4545 14.0455H19.385C19.1363 14.0464 18.8934 14.1201 18.6861 14.2574C18.4788 14.3947 18.3161 14.5896 18.2182 14.8182Z" stroke="white" stroke-width="1.5" stroke-linecap="round" stroke-linejoin="round"/>
</svg>