<svg width="100" height="100" viewBox="0 0 100 100" fill="none" xmlns="http://www.w3.org/2000/svg">
<circle cx="50" cy="50" r="49.5" fill="#2EBD85" stroke="#2EBD85"/>
<path d="M54 30.24L53.104 57.288H46.496L45.544 30.24H54ZM49.968 70.392C48.5493 70.392 47.3733 69.9627 46.44 69.104C45.544 68.208 45.096 67.1067 45.096 65.8C45.096 64.4933 45.544 63.4107 46.44 62.552C47.3733 61.656 48.5493 61.208 49.968 61.208C51.3493 61.208 52.488 61.656 53.384 62.552C54.28 63.4107 54.728 64.4933 54.728 65.8C54.728 67.1067 54.28 68.208 53.384 69.104C52.488 69.9627 51.3493 70.392 49.968 70.392Z" fill="white"/>
<path d="M54 30.24L54.9995 30.2731L55.0337 29.24H54V30.24ZM53.104 57.288V58.288H54.0714L54.1035 57.3211L53.104 57.288ZM46.496 57.288L45.4966 57.3232L45.5306 58.288H46.496V57.288ZM45.544 30.24V29.24H44.5082L44.5446 30.2752L45.544 30.24ZM46.44 69.104L45.7329 69.8111L45.7476 69.8258L45.7629 69.8399L46.44 69.104ZM46.44 62.552L47.1319 63.274L47.1325 63.2734L46.44 62.552ZM53.384 62.552L52.6769 63.2591L52.6844 63.2666L52.6921 63.274L53.384 62.552ZM53.384 69.104L54.0759 69.826L54.0836 69.8186L54.0911 69.8111L53.384 69.104ZM53.0005 30.2069L52.1045 57.2549L54.1035 57.3211L54.9995 30.2731L53.0005 30.2069ZM53.104 56.288H46.496V58.288H53.104V56.288ZM47.4954 57.2528L46.5434 30.2048L44.5446 30.2752L45.4966 57.3232L47.4954 57.2528ZM45.544 31.24H54V29.24H45.544V31.24ZM49.968 69.392C48.768 69.392 47.8435 69.0364 47.1171 68.3681L45.7629 69.8399C46.9032 70.889 48.3306 71.392 49.968 71.392V69.392ZM47.1471 68.3969C46.4451 67.6949 46.096 66.8507 46.096 65.8H44.096C44.096 67.3626 44.6429 68.7211 45.7329 69.8111L47.1471 68.3969ZM46.096 65.8C46.096 64.7498 46.4441 63.9332 47.1319 63.274L45.7481 61.83C44.6439 62.8882 44.096 64.2369 44.096 65.8H46.096ZM47.1325 63.2734C47.8609 62.5742 48.7803 62.208 49.968 62.208V60.208C48.3184 60.208 46.8858 60.7378 45.7475 61.8306L47.1325 63.2734ZM49.968 62.208C51.1104 62.208 51.9863 62.5685 52.6769 63.2591L54.0911 61.8449C52.9897 60.7435 51.5882 60.208 49.968 60.208V62.208ZM52.6921 63.274C53.3799 63.9332 53.728 64.7498 53.728 65.8H55.728C55.728 64.2369 55.1801 62.8882 54.0759 61.83L52.6921 63.274ZM53.728 65.8C53.728 66.8507 53.3789 67.6949 52.6769 68.3969L54.0911 69.8111C55.1811 68.7211 55.728 67.3626 55.728 65.8H53.728ZM52.6921 68.382C52.004 69.0415 51.1232 69.392 49.968 69.392V71.392C51.5755 71.392 52.972 70.8839 54.0759 69.826L52.6921 68.382Z" fill="#2EBD85"/>
</svg>
